<?xml version="1.0" encoding="utf-8"?>
<!-- Generator: Adobe Illustrator 16.0.0, SVG Export Plug-In . SVG Version: 6.00 Build 0)  -->
<!DOCTYPE svg PUBLIC "-//W3C//DTD SVG 1.1//EN" "http://www.w3.org/Graphics/SVG/1.1/DTD/svg11.dtd">
<svg version="1.1" id="Layer_1" xmlns="http://www.w3.org/2000/svg" xmlns:xlink="http://www.w3.org/1999/xlink" x="0px" y="0px"
	 width="443px" height="246.604px" viewBox="0 0 443 246.604" enable-background="new 0 0 443 246.604" xml:space="preserve">
<polyline fill="#848383" points="237.681,196.429 249.834,185.688 268.029,171.785 284.415,173.846 304.739,179.62 318.988,184.092 
	326.018,186.207 325.146,194.261 325.591,200.793 323.502,204.742 322,207.029 318.433,215.177 309.209,222.71 303.455,225.155 
	299.646,228.934 290.356,235.552 286.578,239.728 275.646,241.797 269.506,244.029 254.755,244.029 244.242,238.997 
	237.681,228.138 233.344,212.875 "/>
<g>
	<line fill="none" stroke="#FF0000" stroke-miterlimit="10" x1="325.146" y1="126.807" x2="353.309" y2="96.899"/>
	<line fill="none" stroke="#FF0000" stroke-miterlimit="10" x1="353.309" y1="96.899" x2="382.449" y2="96.899"/>
</g>
<g>
	<line fill="none" stroke="#FF0000" stroke-miterlimit="10" x1="298.402" y1="64.98" x2="328.827" y2="32.778"/>
	<line fill="none" stroke="#FF0000" stroke-miterlimit="10" x1="328.827" y1="32.778" x2="360.309" y2="32.778"/>
</g>
<g>
	<line fill="none" stroke="#FF0000" stroke-miterlimit="10" x1="205.554" y1="44.602" x2="175.646" y2="14.695"/>
	<line fill="none" stroke="#FF0000" stroke-miterlimit="10" x1="175.646" y1="14.695" x2="144.7" y2="14.695"/>
</g>
<g>
	<line fill="none" stroke="#FF0000" stroke-miterlimit="10" x1="323.502" y1="201.75" x2="351.522" y2="231.657"/>
	<line fill="none" stroke="#FF0000" stroke-miterlimit="10" x1="351.522" y1="231.657" x2="380.516" y2="231.657"/>
</g>
<g>
	<line fill="none" stroke="#FF0000" stroke-miterlimit="10" x1="180.145" y1="200.793" x2="152.418" y2="230.7"/>
	<line fill="none" stroke="#FF0000" stroke-miterlimit="10" x1="152.418" y1="230.7" x2="123.729" y2="230.7"/>
</g>
<g>
	<line fill="none" stroke="#FF0000" stroke-miterlimit="10" x1="79.835" y1="104.509" x2="49.928" y2="74.602"/>
	<line fill="none" stroke="#FF0000" stroke-miterlimit="10" x1="49.928" y1="74.602" x2="18.982" y2="74.602"/>
</g>
<polygon fill="#848383" points="162.306,200.208 175.646,207.421 192.703,204.34 205.554,196.688 220.999,187.002 233.806,179.857 
	243.295,176.457 252.674,173.236 253.945,163.114 229.056,160.965 209.877,170.338 191.491,179.857 168.854,192.411 "/>
<polygon fill="#848383" points="274.695,53.268 260.703,55.148 252.674,62.632 254.007,87.706 259.974,95.754 267.491,95.765 
	297.072,100.51 307.893,96.275 318.433,91.684 320.482,81.243 312.467,70.972 304.312,65.446 296,59.657 287.1,55.148 "/>
<path fill="#848383" d="M306.933,148.323c0,0,11.264-1.354,10.042-3.657s0-5.727,0-5.727l10.328-4.504l0.383-5.557l-5.957-10.328
	l-8.414-2.55l-5.714,2.417l-17.091,3.521l-14.585-5.394l-6.206,10.26l-2.228,9.942l-1.167,19.209l7.549,1.948l8.812,5.207
	l20.052-3.253l1.864-5.803L306.933,148.323z"/>
<polygon fill="#848383" points="131.267,159.512 133.568,153.304 133.251,145.064 136.29,131.082 133.172,112.97 135.43,108.38 
	130.405,102.482 135.029,87.392 132.268,79.632 136.106,69.241 134.612,57.668 124.779,59.858 113.726,70.417 111.061,77.307 
	108.716,74.135 97.576,77.583 86.465,93.107 82.925,99.344 73.115,108.38 68.603,118.419 68.455,131.697 71.65,146.719 
	73.408,155.959 86.62,161.427 93.033,164.024 100.928,163.871 110,168.654 121.495,164.131 "/>
<polygon fill="#848383" points="201.138,40.02 198.301,46.963 186.032,53.323 174.901,56.006 168.398,73.301 160.263,96.762 
	156.38,106.314 160.902,118.419 169.986,130.356 181.092,121.538 181.663,114.187 173.514,106.135 185.434,92.344 193.92,81.828 
	191.668,68.98 199.78,63.675 212.892,56.125 218.515,53.387 218.59,44.095 217.547,40.177 209.186,35.682 "/>
<g>
	<path stroke="#000000" stroke-miterlimit="10" d="M203.686,38.24c1.831-0.896,3.632-2.473,5.5-2.559
		c5.095-0.234,10.225,0.056,15.325,0.375c1.448,0.09,3.252,0.602,4.195,1.588c3.951,4.133,9.296,2.303,13.885,3.578
		c0.347,0.097,0.935-0.169,1.225-0.455c3.635-3.582,7.812-2.976,11.948-1.374c5.91,2.287,11.834,4.599,17.533,7.351
		c2.397,1.158,4.24,3.47,6.649,5.523c7.285-2.638,18.423,4.66,21.227,12.354c8.201-1.2,13.305,2.32,15.446,10.521
		c0.247,0.941,0.931,2.229,1.708,2.498c4.792,1.652,7.024,5.272,8.047,9.885c0.417,1.883,1.033,3.216,2.976,4.29
		c3.42,1.89,4.97,5.271,5.596,9.146c0.415,2.569,1.38,5.046,1.891,7.605c0.741,3.725,2.285,6.623,5.515,9.061
		c2.622,1.979,2.722,5.625,2.729,8.967c0.003,1.646,0.346,3.66,1.326,4.86c3.106,3.803,3.554,7.948,2.938,12.592
		c-0.502,3.801-0.072,7.746-0.78,11.489c-1.021,5.388-1.854,11.089-4.33,15.845c-2.534,4.874-6.642,9.096-10.691,12.936
		c-1.626,1.542-4.938,1.31-7.522,1.894c4.538,10.065,1.313,18.918-5.603,26.754c-3.948,4.476-8.116,8.979-12.948,12.39
		c-4.935,3.482-9.97,6.659-14.392,10.896c-3.511,3.36-8.367,4.229-13.278,4.291c-1.406,0.019-3.136,0.39-4.15,1.26
		c-5.661,4.853-12.166,5.73-19.024,3.968c-16.265-4.183-27.456-23.332-23.27-39.597c0.606-2.357,1.729-4.583,3.008-7.889
		c-2.332,0.78-4.118,1.142-5.678,1.942c-4.378,2.255-12.153,1.056-16.305-2.733c-0.619-0.565-1.062-1.322-1.274-1.593
		c-3.049,1.182-5.611,2.12-8.132,3.165c-4.113,1.706-8.319,3.245-12.269,5.278c-8.262,4.258-16.557,4.217-25.092,1.062
		c-3.365-1.242-6.793-2.362-10.27-3.241c-2.331-0.59-4.872-0.375-7.182-1.017c-4.477-1.242-7.544-4.208-9.325-8.55
		c-0.607-1.479-1.362-2.979-2.383-4.191c-4.415-5.241-5.198-11.208-4.054-17.717c0.169-0.951-0.44-2.109-0.887-3.082
		c-0.734-1.608-1.631-3.145-2.565-4.911c-5.576,2.357-11.504,4.79-17.364,7.376c-2.973,1.312-5.617,0.741-8.025-1.064
		c-3.344-2.507-6.805-3.59-10.928-2.09c-0.795,0.289-1.973-0.273-2.91-0.618c-3.468-1.27-6.848-2.817-10.377-3.874
		c-4.271-1.277-7.133-3.788-8.556-8.006c-1.972-5.842-4.033-11.651-5.967-17.507c-1.45-4.387-1.306-8.666,0.398-13.089
		c1.135-2.944,1.573-6.228,1.887-9.401c0.48-4.857,1.75-9.605,5.999-12.045c3.532-2.026,5.14-4.567,6.45-8.165
		c1.658-4.548,5.223-7.832,9.13-10.704c2.439-1.792,4.94-3.647,6.892-5.923c2.981-3.479,6.636-5.221,11.026-5.91
		c0.855-0.134,1.957-0.779,2.339-1.509c2.253-4.291,5.84-6.919,10.186-8.71c1.229-0.507,2.556-0.879,3.652-1.596
		c6.069-3.964,12.54-6.115,19.93-5.41c2.573,0.245,4.748-0.913,6.404-3.419c1.16-1.757,3.318-3.179,5.337-3.99
		c7.915-3.18,16.134-4.229,24.61-2.657c0.815,0.151,2.041,0.179,2.527-0.299c5.417-5.311,11.95-6.173,19.039-5.058
		c0.371,0.058,0.752,0.059,1.128,0.086C203.732,38.821,203.709,38.531,203.686,38.24z M266.324,174.561
		c-1.896-1.727-3.606-0.592-5.329,0.348c-0.315-0.238-0.708-0.742-0.937-0.676c-4.021,1.173-8.034,2.383-12.02,3.678
		c-0.567,0.187-1.159,0.771-1.432,1.32c-2.099,4.24-4.152,8.503-6.129,12.802c-0.271,0.592-0.037,1.415-0.037,2.794
		c2.34-2.681,4.137-4.736,5.933-6.794c0.767-0.175,1.534-0.351,2.302-0.525c0.827-0.392,1.68-0.74,2.479-1.183
		c6.068-3.337,12.108-6.727,18.201-10.018c1.338-0.724,2.855-1.116,5.02-1.938C271.092,173.574,268.666,172.655,266.324,174.561z
		 M286.338,236.608c0.755,0,1.511,0,2.677,0c-0.484-0.815-0.638-1.147-0.855-1.427c-7.074-9.028-16.062-15.832-25.622-21.959
		c-0.485-0.312-1.217-0.24-1.833-0.349c-2.677-1.71-5.354-3.421-8.029-5.131c-3.009-1.943-6.02-3.887-9.027-5.83
		c-0.252,0.288-0.505,0.577-0.757,0.866c1.621,2.28,3.038,4.748,4.905,6.807c5.688,6.27,11.55,12.379,17.344,18.552
		c0.053,0.275,0.005,0.662,0.171,0.812c3.419,3.088,6.847,6.169,10.34,9.171c0.226,0.193,1.004-0.261,1.525-0.413
		c1.033,0.576,1.832,0.522,2.157-0.804l-0.021,0.032c1.055,0.419,2.109,0.838,3.163,1.257c0.007-0.441,0.013-0.883,0.019-1.323
		C283.833,237.63,285.195,238.725,286.338,236.608z M310.447,196.282c0.337,0.658,0.515,1.5,1.032,1.946
		c3.396,2.923,6.864,5.76,10.521,8.801c0.51-0.776,0.996-1.516,1.502-2.287c-0.704-0.746-1.271-1.348-1.837-1.948
		c0.674,0.312,1.348,0.621,2.33,1.076c0.549-2.085,1.329-3.995,1.507-5.958c0.341-3.763-0.154-4.33-4.039-6.022
		c-1.032-0.45-2.113-0.897-3.215-1.065c-5.61-0.854-11.236-1.616-17.595-2.515C304.435,191.386,307.44,193.834,310.447,196.282z
		 M283.478,185.869c0.985,0.19,1.973,0.548,2.958,0.545c6.822-0.021,13.628,0.138,20.39,1.178c2.704,0.416,5.436,0.667,8.131,1.127
		c3.339,0.569,6.652,1.279,10.19,1.971c-0.194-0.501-0.259-0.976-0.524-1.263c-0.253-0.271-1.005-0.294-1.044-0.514
		c-0.753-4.221-0.772-4.229-4.589-4.821c-0.807-0.124-1.557-0.565-2.356-0.76c-3.617-0.876-7.243-1.715-10.867-2.566
		c-0.338-0.395-0.601-0.994-1.024-1.146c-2.522-0.896-5.031-1.32-7.752-0.487c-3.64,1.113-7.379,1.895-11.075,2.816
		c-0.045-0.188-0.091-0.377-0.136-0.565c3.779-0.99,7.561-1.981,11.34-2.974c-0.027-0.146-0.057-0.292-0.084-0.438
		c-6.394-0.521-12.784-1.043-18.779-1.532c-0.419-0.547-0.746-1.312-1.047-1.301c-0.916,0.028-1.871,0.237-2.723,0.59
		c-10.063,4.171-20.532,7.688-26.993,16.405c3.773-0.991,8.216-2.237,12.698-3.312c3.402-0.816,6.831-1.639,10.297-2.055
		C274.79,186.251,279.145,186.149,283.478,185.869z M240.713,209.061c-0.199,0.395-0.602,0.808-0.567,1.183
		c0.521,5.879,2.592,11.186,6.138,15.931c-0.755-2.167-1.509-4.335-2.263-6.503c0.604,1.17,1.344,2.29,1.789,3.518
		c3.378,9.33,10.467,14.771,19.233,18.456c4.915,2.065,5.832,1.788,9.333-2.454c-12.567-10.074-22.932-22.224-33.036-34.736
		c0.243,0.854,0.485,1.708,0.86,3.024c-0.81-0.913-1.305-1.474-2.295-2.592C240.264,206.738,240.488,207.899,240.713,209.061z
		 M303.455,225.155c2.618-1.997,5.188-4.063,7.875-5.963c1.348-0.952,1.48-1.915,0.482-3.038c-2.578-2.9-4.949-6.063-7.889-8.543
		c-6.466-5.452-14.305-8.188-22.421-10.072c-9.518-2.208-19.122-3.394-27.942-1.962c5.646,1.634,12.549,2.566,18.334,5.618
		c5.368,2.832,11.403,5.15,15.467,10.336c1.807,2.304,4.558,3.866,6.88,5.766c1.945,2.652,3.896,5.306,5.84,7.959
		C301.258,226.861,302.372,226.547,303.455,225.155z M265.379,168.633c0.862,1.025,1.511,1.799,2.649,3.152
		c-0.198-1.422-0.271-1.938-0.384-2.75c0.779,0.854,1.335,1.463,2.112,2.313c0.189-0.756,0.301-1.192,0.425-1.681
		c1.076,1.048,1.949,3.029,3.267,1.1c3.62,1.057,7.227,2.547,10.967,3.078c3.765,0.534,7.666,0.117,12.177,0.117
		c0.411,0.222,1.525,2.706,2.367,0.245c2.574,0.81,5.134,1.612,7.833,2.461c0-0.507,0-0.998,0-1.637
		c0.671,0.953,1.237,1.762,1.928,2.742c0.346-0.67,0.539-1.045,0.733-1.423c1.156,0.558,1.601,3.582,3.242,1.507
		c2.183,0.97,4.266,1.911,6.379,2.772c0.074,0.031,0.465-0.713,0.257-0.385c2.651,0.856,5.08,1.642,7.508,2.425
		c0.067-0.208,0.135-0.417,0.203-0.626c-0.443-0.693-0.889-1.39-1.636-2.56c1.805,1.357,3.067,2.311,4.331,3.262
		c0.189-0.21,0.38-0.42,0.568-0.631c-0.341-0.669-0.683-1.339-0.755-1.481c1.225,0.181,2.793,0.888,3.978,0.479
		c2.174-0.748,1.855-2.61,1.147-3.942c-1.616-0.26-2.963-0.477-4.708-0.758c1.664-1.095,2.89-1.899,4.22-2.773
		c-0.232-0.672-0.526-1.521-0.929-2.681c1.361,1.31,2.402,2.312,3.445,3.315c0.133-0.173,0.265-0.346,0.396-0.52
		c0.133,0.589,0.265,1.177,0.415,1.837c3.36-2.142,5.507-5.798,5.853-9.777c0.112-1.305,0.715-2.871,0.208-3.865
		c-1.241-2.426-2.212-4.789-1.754-7.547c0.196-1.188-1.156-2.16,0.087-3.742c0.581-0.74-0.844-3.453-1.848-4.944
		c-1.204-1.789-2.915-3.242-4.432-4.817c-4.518-4.693-7.38-5.281-13.058-2.721c-0.691,0.312-1.388,0.624-2.103,0.877
		c-1.666,0.591-3.32,1.168-3.024,2.958c7.104,0.681,11.935,4.235,14.8,10.726c0.188,0.556-3.094,0.847-0.242,2.002
		c-0.446,0.378-0.907,0.771-1.369,1.161c0.082,0.121,0.165,0.243,0.249,0.365c0.879-0.343,1.759-0.685,2.369-0.921
		c0.191,1.084,0.02,2.423,0.584,2.913c3.73,3.249,3.26,8.045,4.66,12.132c0.068,0.204-0.703,0.696-1.554,1.499
		c-0.352-2.312-0.715-4.055-0.86-5.814c-0.281-3.387-1.907-5.878-4.693-7.729c-2.331-1.549-4.271,0.641-6.438,0.75
		c-0.197,0.011-0.323,2.432-0.394,3.736c-0.098,1.823,0.513,3.901-1.414,4.808c-0.555-2.519-0.603-5.106-1.709-7.109
		c-1.191-2.16-1.136-3.879-0.222-6.399c0.602,1.563,1.016,2.642,1.438,3.739c1.037-0.132,1.889-0.216,2.729-0.349
		c3.572-0.566,4.319-1.55,4.038-5.156c-0.292-3.746-2.713-5.751-5.884-6.989c-5.961-2.326-12.646,0.132-15.993,5.854
		c-1.12,1.914-1.997,3.968-2.985,5.957c-0.256-0.09-0.512-0.178-0.769-0.269c0.668-2.359,1.336-4.721,1.862-6.587
		c-0.515-0.752-0.837-1.341-1.269-1.833c-1.929-2.193-3.551-4.867-5.902-6.44c-6.336-4.238-13.578-6.154-21.146-5.422
		c-6.583,0.637-13.093,2.098-19.607,3.339c-1.062,0.203-2.294,0.936-2.9,1.805c-1.387,1.979-2.432,4.194-3.624,6.332
		c0.673,0.448,1.529,1.02,2.389,1.592c-2.428,0.497-4.66,0.377-6.877,0.521c-5.7,0.37-10.539,2.989-15.188,6.053
		c-1.764,1.164-4.247,1.742-3.729,4.687c0.354,0,0.757,0,1.256,0c-2.591,2.77-2.519,2.934,0.681,4.615
		c1.109,0.583,2.013,1.561,3.272,2.567c-5.579-0.104-7.513-1.949-6.957-6.697c0.32-2.727-0.375-4.631-2.878-5.807
		c-1.977-0.929-3.935-1.895-5.929-2.782c-0.943-0.421-1.951-0.697-2.932-1.04c0.151-0.403,0.305-0.808,0.456-1.212
		c3.294,1.154,6.587,2.31,9.866,3.458c-0.298,2.728,1.344,1.494,2.804,0.604c-0.301,0.814-0.534,1.445-0.945,2.561
		c0.795-0.403,1.143-0.505,1.396-0.72c3.821-3.235,8.127-5.657,12.791-7.404c1.301-0.486,2.814-0.37,4.184-0.713
		c2.379-0.597,5.258-0.188,6.538-3.14c0.813-1.873,1.718-3.707,2.591-5.582c-7.241-2.693-8.48-3.628-8.402-6.173
		c8.416,4.288,9.047,3.353,13.423,3.466c4.74,0.123,8.361-1.504,12.167-3.002c1.813,0,3.626,0,5.601,0
		c0.024-0.287,0.072-0.842,0.135-1.559c0.519,0.812,0.901,1.413,1.469,2.3c0.368-0.703,0.568-1.086,0.655-1.253
		c0.654,0.309,1.291,0.606,1.928,0.906c0.199-0.543,0.398-1.085,0.39-1.061c1.545,0.573,3.095,1.146,5.065,1.877
		c-0.279-1.47-0.434-2.282-0.648-3.418c0.58,0.542,0.934,0.87,1.567,1.465c0.422-2.449,0.778-4.643,1.18-6.826
		c0.489-2.663-0.325-4.583-2.934-5.683c-4.375-1.841-8.716-3.761-12.729-5.5c0.133-0.035,0.924-0.253,2.701-0.739
		c-2.495-2.271-4.496-4.094-6.396-5.823c2.583-0.723,4.488,0.13,5.854,2.877c0.455-0.48,0.872-0.922,1.633-1.728
		c-0.456,1.516-0.747,2.481-1.038,3.448c0.175,0.076,0.35,0.153,0.523,0.229c0.959-0.805,1.918-1.607,2.876-2.412
		c0.049,0.103,0.099,0.205,0.148,0.307c-0.922,1.201-1.841,2.402-3.199,4.177c2.232,0,3.63,0,4.884,0
		c0.387,0.317,0.846,0.772,1.376,1.117c2.745,1.784,5.496,3.564,8.289,5.273c0.316,0.192,0.92-0.038,1.38-0.129
		c4.281-0.848,8.545-1.793,12.847-2.52c1.759-0.297,3.624-0.342,5.39-0.107c2.288,0.304,2.889,1.508,2.404,3.056
		c-1.782-0.56-3.648-1.771-5.337-1.558c-5.708,0.718-11.353,1.939-16.435,2.863c-0.116,1.371-0.19,2.231-0.271,3.18
		c0.634-0.31,1.225-0.598,1.719-0.838c-0.83,1.424-1.632,2.8-2.435,4.175c0.204,0.112,0.407,0.228,0.609,0.341
		c0.661-0.346,1.321-0.691,2.574-1.348c-1.578,1.736-2.657,2.926-3.737,4.113c0.121,0.113,0.24,0.227,0.36,0.339
		c1.047-0.659,2.093-1.319,3.139-1.98c0.075,0.113,0.149,0.226,0.225,0.338c-1.263,1.104-2.524,2.208-3.788,3.312
		c0.163,0.229,0.324,0.46,0.487,0.688c1.244-0.799,2.487-1.597,3.73-2.395c0.149,0.192,0.299,0.389,0.448,0.581
		c-0.847,0.578-1.693,1.157-2.541,1.735c0.175,0.309,0.349,0.615,0.521,0.924c1.132-0.451,2.266-0.901,3.483-1.387
		c-0.468,0.607-0.865,1.127-1.209,1.574c4.3,2.943,9.858,4.193,12.132,9.68c0.288-0.489,0.63-1.065,1.234-2.092
		c-0.218,1.644-0.362,2.739-0.51,3.835c0.147,0.04,0.295,0.081,0.441,0.121c0.316-0.843,0.634-1.686,0.939-2.503
		c0.247,0.221,0.539,0.482,0.831,0.746c1.34-1.778,3.296-2.472,5.295-3.223c2.041-0.768,2.108-3.294,0.271-4.77
		c-0.838-0.673-1.67-1.354-2.599-2.108c2.707,0.388,5.194,1.262,7.513,0.934c2.44-0.347,4.722-1.838,7.678-3.085
		c-1.655-4.226-3.152-8.49-4.991-12.604c-1.587-3.552-3.729-4.452-7.653-3.841c-0.943,0.146-1.887,0.298-2.828,0.447
		c-0.158-0.22-0.316-0.439-0.477-0.659c3.767-3.023,6.078-6.752,6.349-11.649c0.444,1.024,0.89,2.049,1.334,3.073
		c-0.16-0.036-0.322-0.072-0.484-0.108c-0.356,2.341-0.715,4.68-1.072,7.019c0.191,0.188,0.384,0.375,0.575,0.562
		c1.463-1.104,2.927-2.206,4.39-3.31c0.073,0.08,0.146,0.161,0.219,0.241c-0.896,0.992-1.793,1.982-2.689,2.975
		c0.104,0.211,0.205,0.422,0.311,0.633c1.019-0.336,2.035-0.672,3.157-1.042c-0.537,0.748-0.986,1.372-1.711,2.378
		c1.079-0.121,1.663-0.187,2.266-0.254c-1.167,1.812-0.652,2.491,0.953,2.199c0,0.751-0.26,1.695,0.084,2.296
		c0.263,0.461,1.284,0.491,1.863,0.679c-0.432,0.48-0.273,0.921,0.22,2.185c0.389,0.997,0.249,2.188,0.571,3.225
		c0.369,1.185,0.99,2.289,1.503,3.43c0.255-0.11,0.511-0.222,0.766-0.33c-0.455,0.636-0.909,1.272-1.364,1.908
		c0.095,0.092,0.188,0.182,0.285,0.271c0.657-0.473,1.314-0.945,1.974-1.419c0.077,0.096,0.152,0.189,0.229,0.285
		c-0.439,0.558-0.878,1.115-1.516,1.924c1.712,0.262,3.081,0.473,4.338,0.665c-0.05,0.091-0.297,0.543-0.902,1.655
		c1.385-0.604,2.105-0.917,2.942-1.282c-0.344,0.706-0.601,1.234-0.909,1.873c1.481,0.55,2.711,1.006,3.32,1.231
		c1.165,1.467,2.171,2.602,3.023,3.841c0.967,1.401,1.797,2.897,2.686,4.354c0.383,0.346,0.768,0.691,1.149,1.037
		c0.546-1.076,1.445-2.113,1.568-3.235c0.265-2.405,0.19-4.858,0.078-7.286c-0.014-0.307-1.088-0.564-1.445-0.737
		c0.163-0.517,0.659-1.518,0.49-1.646c-0.997-0.76-2.148-1.316-3.179-1.902c0.097-0.239,0.687-1.247,0.531-1.38
		c-0.738-0.628-1.68-1.018-2.438-1.432c0.309-0.191,0.866-0.54,1.427-0.89c-0.734-0.405-1.35-0.314-1.958-0.343
		c-0.6-0.025-1.193-0.173-2.413-0.364c4.177-0.447,4.177-0.447,4.146-2.284c-1.308,0.2-2.609,0.4-3.912,0.6
		c-0.028-0.176-0.059-0.351-0.088-0.524c1.424-0.411,2.847-0.822,4.269-1.233c-0.043-0.185-0.087-0.37-0.132-0.555
		c-0.644-0.156-1.286-0.313-1.952-0.477c0.749-0.425,1.348-0.764,1.946-1.103c-0.082-0.207-0.163-0.412-0.244-0.619
		c-0.664,0-1.329,0-2.125,0c0.717-0.64,1.265-1.13,2.305-2.06c-1.391-0.093-2.043-0.137-1.967-0.132
		c-0.16-0.967-0.06-1.845-0.389-2.058c-0.919-0.596-1.982-1.038-3.05-1.321c-2.646-0.704-5.326-1.286-7.993-1.917
		c0.019-0.312,0.033-0.624,0.05-0.937c2.279-0.25,4.561-0.499,7.002-0.768c-0.837-1.918-1.767-3.463-2.183-5.135
		c-0.643-2.579-0.998-5.236-1.358-7.878c-0.501-3.671-1.478-4.677-5.218-5.101c-0.147-0.018-0.285-0.143-0.62-0.316
		c0.732-0.19,1.307-0.341,2.347-0.611c-1.724-0.547-2.967-1-4.241-1.329c-1.202-0.312-2.438-0.494-3.66-0.733
		c-0.02-0.183-0.04-0.365-0.061-0.549c1.272-0.4,2.546-0.802,3.809-1.199c-1.948-6.988-3.467-9.313-6.858-10.223
		c-3.759-1.009-6.337,0.693-8.32,4.657c-1.182-1.978-2.021-3.385-3.106-5.205c1.068,0.35,1.536,0.503,2.382,0.779
		c-1.844-2.608-3.489-4.851-5.041-7.157c-2.426-3.607-6.364-3.799-10.056-4.393c-0.854-0.138-1.877,0.771-2.788,1.182
		c-0.014-0.082-0.077-0.452-0.14-0.824c-0.155-0.002-0.312-0.003-0.466-0.007c-0.318,1.011-0.638,2.02-1.015,3.221
		c-0.341-0.604-0.551-0.975-0.67-1.188c-1.688,1.978-3.378,3.954-5.066,5.933c-0.161-0.112-0.323-0.226-0.483-0.337
		c1.547-2.642,3.093-5.281,4.694-8.016c-0.644-0.123-1.128-0.216-1.61-0.309c0.001-0.12,0.002-0.24,0.004-0.361
		c1.02-0.105,2.04-0.212,3.167-0.33c-1.536-1.651-2.871-3.089-4.205-4.524c0.1-0.167,0.2-0.332,0.3-0.498
		c-0.765-0.568-1.529-1.138-2.078-1.543c0.104-0.408,0.392-1.07,0.273-1.151c-2.417-1.683-4.683-3.874-7.379-4.798
		c-4.353-1.491-8.94-0.794-13.355,0.449c-2.333,0.655-4.673-0.499-5.169-2.188c1.813,0,3.791,0.102,5.753-0.024
		c2.316-0.148,4.615-0.546,6.932-0.729c1.389-0.11,2.793-0.021,4.448-0.021c-0.482-0.564-0.791-0.926-1.602-1.873
		c1.562,0.792,2.473,1.254,3.383,1.716c-3.194-4.369-7.763-5.036-12.582-5.194c0.094-0.12,0.281-0.361,0.588-0.757
		c-1.315,0-2.516,0-3.963,0c0.377-0.492,0.846-0.956,0.784-1.042c-2.97-4.16-10.934-5.944-15.511-3.597
		c-0.899,0.461-1.967,0.758-2.975,0.813c-2.694,0.148-5.428-0.095-8.092,0.239c-2.204,0.274-4.809,0.054-6.145,2.579
		c-0.301-0.251-0.604-0.501-1.142-0.949c-0.364,0.652-0.74,1.327-1.116,2.001c-0.275-0.237-0.552-0.475-0.826-0.713
		c1.285-1.73,2.567-3.461,3.988-5.377c-1.391-0.743-2.437-1.74-3.555-1.825c-5.556-0.426-11.13-0.632-16.7-0.849
		c-0.501-0.021-1.307,0.307-1.486,0.696c-1.513,3.268-4.342,2.379-6.868,2.206c-5.705-0.391-11.022,0.328-15.312,4.618
		c-0.438,0.438-1.119,0.704-1.735,0.879c-3.601,1.019-7.235,1.917-10.819,2.989c-3.351,1.001-6.596,2.434-9.998,3.15
		c-1.786,0.376-3.811-0.374-5.728-0.616c0.043-0.248,0.086-0.496,0.129-0.743c8.317-0.374,10.585-0.933,10.794-2.04
		c2.463-0.903,4.608-1.689,7.47-2.738c-8.044-1.326-17.233,1.123-22.618,5.826c-3.227,2.818-6.771,4.352-11.152,4.171
		c-2.434-0.101-5.132-0.098-7.295,0.829c-5.651,2.421-11.075,5.375-16.582,8.134c-0.104,0.053-0.105,0.309-0.17,0.512
		c0.423,0.143,0.832,0.28,1.242,0.42c-2.969-0.479-4.333,1.56-5.377,3.685c-1.082,2.2-1.765,4.596-2.665,6.89
		c-0.339,0.863-0.8,1.682-1.204,2.52c-0.381-0.065-0.761-0.13-1.141-0.196c0-1.884,0-3.768,0-5.493
		c-6.141,0.07-9.05,5.018-12.774,8.682c-0.503,0.494-0.068,1.94-0.068,3.057c0.481-0.376,0.789-0.613,1.096-0.853
		c0.088,0.085,0.177,0.169,0.266,0.254c-0.48,0.848-0.964,1.695-1.734,3.054c-0.784-1.608-1.331-2.728-2.032-4.165
		c-2.918,2.966-5.722,5.814-8.801,8.944c0.926,0,1.417,0,1.8,0c-0.663,2.698-1.328,5.401-2.115,8.606
		c0.865-0.788,1.364-1.243,2.278-2.075c-0.783,1.746-2.029,3.185-1.72,4.089c0.878,2.557-0.655,4.088-1.723,5.857
		c-3.348,5.558-2.947,9.871,0.966,14.188c2.867-0.639,5.391-1.584,7.939-1.663c2.971-0.091,3.911-0.922,2.861-3.656
		c-0.024-0.063,0.147-0.206,0.251-0.339c0.232,0.28,0.462,0.556,0.821,0.988c0.29-1.433,0.543-2.678,0.817-4.03
		c0.474,0.7,0.874,1.293,1.257,1.86c0.538-0.868,0.995-1.606,1.447-2.338c-3.17-3.157-4.271-6.082-3.29-9.476
		c0.486,1.641,0.802,2.982,1.281,4.264c0.848,2.268,3.026,3.172,4.979,3.248c3.265,0.127,6.555-0.545,9.84-0.8
		c1.405-0.108,2.827-0.019,4.242-0.019c0.029,0.347,0.06,0.691,0.088,1.038c-2.826,0.315-5.67,1.002-8.473,0.865
		c-5.271-0.255-8.411,2.472-10.552,6.755c-0.67,1.34-1.284,3.129-0.943,4.462c0.688,2.692,2.046,5.216,3.116,7.778
		c0.011-0.006,0.349-0.188,0.849-0.456c-0.646,1.541-1.187,2.823-1.726,4.104c0.295,0.203,0.591,0.406,0.886,0.609
		c0.258-0.689,0.516-1.382,0.872-2.338c0.417,1.328,0.437,2.084,0.823,2.485c1.083,1.123,2.566,1.923,3.445,3.166
		c2.716,3.838,5.164,7.868,10.524,8.393c0.469,0.045,0.871,0.781,1.304,1.197c-0.143,0.18-0.285,0.36-0.429,0.54
		c-0.93-0.354-1.858-0.709-2.788-1.062c-0.062,0.114-0.128,0.229-0.191,0.346c0.569,0.532,1.14,1.063,1.709,1.597
		c-0.098,0.141-0.194,0.28-0.293,0.422c-1.584-1.092-3.167-2.183-4.75-3.273c-0.104,0.153-0.208,0.309-0.312,0.463
		c1.134,0.989,2.267,1.979,3.4,2.967c-0.068,0.082-0.138,0.163-0.205,0.244c-1.366-0.604-2.733-1.21-4.425-1.958
		c-2.782-7.775-5.451-10.994-10.187-12.178c-1.293,1.147-2.518,2.234-3.743,3.321c3.219-6.433,3.552-8.308,1.713-12.729
		c-2.476-5.953-6.794-6.66-11.062-1.822c-0.758,0.859-1.563,1.68-2.348,2.517c-0.277-0.038-0.557-0.077-0.835-0.115
		c1.875-3.383,0.794-5.622-2.114-7.246c-2.584-1.442-5.243-1.577-7.97-0.613c-0.543,0.191-1.136,0.69-1.38,1.203
		c-2.34,4.912-3.006,9.854-0.884,15.138c1.939,4.832,3.48,9.832,5.031,14.81c1.27,4.075,3.714,6.557,7.949,7.681
		c3.536,0.939,6.885,2.592,10.326,3.899c0.579,0.22,1.33,0.586,1.804,0.395c4.52-1.833,8.229-0.269,12.016,2.231
		c1.448,0.957,3.875,1.438,5.49,0.942c4.503-1.379,8.83-3.345,13.188-5.175c0.771-0.324,1.352-1.104,2.501-2.086
		c-3.028,0-5.194-0.021-7.359,0.007c-1.607,0.021-3.227,0.007-4.816,0.199c-0.887,0.107-1.782,0.504-2.574,0.947
		c-1.354,0.757-2.631,1.652-3.938,2.491c-0.155-0.237-0.312-0.476-0.466-0.714c1.355-1.048,2.714-2.097,4.101-3.168
		c-0.938-1.038-1.59-1.762-2.54-2.812c7.324,2.507,7.457,2.824,15.431-0.771c-1.084-2.563-2.054-5.21-3.296-7.719
		c-2.496-5.043-4.881-10.087-5.377-15.818c-0.067-0.786-0.82-1.61-1.439-2.237c-3.371-3.406-5.604-7.332-5.938-12.188
		c2.423,3.966,4.847,7.931,7.476,12.232c0.89-1.292,1.403-2.04,2.36-3.429c-0.4,1.218-0.538,1.662-0.692,2.099
		c-0.935,2.625-0.656,3.462,0.944,3.11c-0.135,0.897-0.592,1.918-0.357,2.74c0.974,3.446,2.038,6.877,3.293,10.23
		c1.326,3.546,2.875,7.01,4.387,10.483c0.752,1.726,1.479,3.575,4.043,3.492c0.755-2.035,1.503-4.055,2.302-6.208
		c-4.287-1.701-2.137-5.516-2.947-8.01c1.134-0.099,2.149-0.188,2.631-0.229c0.153,2.315,0.292,4.389,0.43,6.46
		c2.323-1.647,3.675-3.371,5.287-4.803c1.395-1.238,3.608-1.81,4.545-3.265c2.696-4.188,6.121-7.425,10.486-9.556
		c-0.845-1.606-1.336-3.23-2.374-4.351c-1.312-1.413-2.961-3.191-4.653-3.423c-3.044-0.412-6.237,0.137-9.348,0.474
		c-0.548,0.059-1.271,0.971-1.426,1.605c-0.213,0.882,0.036,1.876,0.092,2.873c1.61,0.387,3.207,0.771,4.921,1.183
		c-4.062,0.208-5.063,3.35-6.206,6.467c-0.421,1.147-1.307,2.128-1.979,3.184c-0.229-0.167-0.457-0.335-0.687-0.503
		c0.234-0.479,0.512-0.942,0.7-1.439c0.872-2.301,2.831-4.918,2.298-6.841c-0.673-2.431-0.775-5-1.568-7.235
		c-1.551-4.369-1.438-8.787-0.598-12.926c0.876-4.31,0.201-7.349-2.768-10.486c-1.313-1.392-2.154-1.707-3.96-1.503
		c-4.141,0.466-8.337,0.739-12.495,0.614c-1.864-0.056-3.695-1.255-5.543-1.935c0.114-0.353,0.229-0.703,0.343-1.054
		c0.899,0.197,1.803,0.386,2.698,0.6c1.926,0.46,3.853,1.336,5.77,1.313c3.601-0.042,7.199-0.566,10.788-0.98
		c0.537-0.062,1.248-0.499,1.485-0.963c1.938-3.779,3.78-7.605,5.538-11.186c-2.615-4.459-4.678-9.14-10.643-9.912
		c0.222-0.372,0.443-0.744,0.665-1.116c2.139,0.613,4.277,1.229,6.403,1.838c0.731-1.04,1.607-2.287,2.484-3.533
		c0.146,0.092,0.291,0.183,0.437,0.275c-0.869,1.455-1.739,2.911-2.608,4.365c0.167,0.107,0.333,0.216,0.5,0.323
		c0.591-0.671,1.181-1.343,1.771-2.014c-2.066,3.023-0.308,5.154,1.55,7.112c0.601,0.633,1.727,1.052,2.619,1.063
		c1.692,0.026,3.392-0.469,5.087-0.467c3.523,0.007,6.784-0.573,9.571-2.968c0.622-0.534,1.637-0.612,2.53-0.921
		c0.093,3.107-1.228,4.454-4.687,4.812c-3.309,0.343-6.625,0.609-9.942,0.84c-2.41,0.168-4.143,0.898-5.264,3.404
		c-1.356,3.033-1.568,6.592-4.062,9.136c-0.221,0.227-0.097,1.109,0.172,1.443c1.735,2.162,2.63,5.285,6.03,5.268
		c-4.131,6.093-3.094,12.411-2.003,18.681c3.606,0,6.886,0,9.912,0c0.661-1.721,1.212-3.153,1.764-4.588
		c0.297,0.041,0.595,0.082,0.893,0.123c-1.431,2.804-0.242,4.283,1.946,5.924c2.252,1.686,3.904,4.173,5.935,6.438
		c2.735-0.227,6.058-0.36,9.33-0.832c1.588-0.229,3.394-0.729,4.564-1.73c4.07-3.482,7.906-7.238,12.164-11.2
		c-2.572-5.366-6.428-10.511-12.59-13.854c1.323,0.279,2.646,0.56,3.953,0.834c0.276-0.99,0.51-1.828,0.651-2.336
		c1.363,2.317,2.3,5.197,4.272,6.8c1.301,1.058,2.038,2.514,3.226,3.588c1.258,1.139,1.345,3.567,2.182,6.178
		c2.142-1.37,3.852-2.464,5.386-3.445c-0.043-0.163,0.094,0.359,0.342,1.309c1.838-1.492,3.447-2.801,4.915-3.992
		c-0.009-0.012,0.348,0.417,0.701,0.845c0.498-0.498,1.284-0.924,1.434-1.511c0.274-1.086,0.178-2.267,0.234-3.407
		c0.112,0.003,0.226,0.005,0.338,0.007c0.057,1.118,0.111,2.235,0.167,3.354c0.205,0.09,0.412,0.18,0.617,0.27
		c0.494-0.891,0.987-1.781,1.146-2.068c1.014-0.167,2.052-0.052,2.298-0.438c0.482-0.762,0.525-1.804,0.778-2.842
		c0.217,0.703,0.394,1.271,0.578,1.868c3.03-1.032,2.728-3.19,2.436-5.472c0.294,1.091,0.589,2.182,0.899,3.336
		c2.113-1.796,4.055-3.444,5.857-4.977c0.293,0.05,0.86,0.323,1.071,0.154c1.348-1.086,2.633-2.251,3.905-3.426
		c1.81-1.665,2.465-3.117,1.01-5.799c-1.478-2.724-2.006-6.136-2.262-9.301c-0.296-3.67-0.464-7.069-4.449-8.766
		c-0.311-0.132-0.355-0.885-0.523-1.348c0.403,0.031,0.834,0.17,1.206,0.078c2.626-0.649,3.386,1.418,4.47,3.298
		c0.388-0.749,0.658-1.271,0.929-1.792c-0.722,5.67,0.746,10.79,2.406,15.871c0.267-0.057,0.531-0.114,0.797-0.172
		c-0.211,0.646-0.421,1.289-0.856,2.625c1.01-0.85,1.438-1.212,1.923-1.619c-0.25,1.163-0.457,2.131-0.665,3.1
		c0.196,0.047,0.392,0.095,0.587,0.143c0.338-0.492,0.676-0.983,0.566-0.825c1.103,0.262,1.569,0.49,2.006,0.438
		c0.335-0.041,0.832-0.693,0.911-0.632c1.555,1.221,3.002,1.661,4.986,0.596c0.825-0.444,2.305,0.321,3.483,0.537
		c0.007,0.295,0.014,0.591,0.019,0.887c-0.929,0.255-1.85,0.688-2.788,0.729c-1.897,0.081-3.814,0.062-5.704-0.118
		c-2.65-0.256-4.777,0.109-6.005,2.929c-0.504,1.155-1.611,2.14-2.641,2.958c-8.799,7.006-17.873,13.584-28.551,17.532
		c-3.252,1.202-6.74,1.746-8.865,5.162c-1.081,1.738-3.102,2.902-4.731,4.287c-1.011,0.855-2.085,1.637-3.094,2.421
		c1.233,2.089,2.629,4.447,4.023,6.81c-0.292,0.164-0.583,0.329-0.875,0.494c-0.464-0.778-0.938-1.55-1.39-2.334
		c-2.351-4.08-2.451-4.118-7.089-3.461c-1.222,0.174-2.46,0.306-3.691,0.321c-6.885,0.09-11.883,3.38-15.613,8.977
		c-0.585,0.877-1.48,1.63-2.387,2.194c-4.35,2.709-7.752,6.261-9.161,11.229c-0.592,2.086-1.137,5.107-0.101,6.553
		c2.604,3.633,2.012,7.379,1.804,11.198c-0.241,4.402,0.896,8.238,3.896,11.541c0.943,1.038,1.873,2.263,2.297,3.568
		c2.3,7.086,8.194,8.771,14.489,9.584c1.539,0.199,3.492-0.658,4.842-1.613c2.398-1.697,4.481-3.841,6.695-5.798
		c0.104,0.083,0.208,0.166,0.312,0.248c-2.274,2.504-4.551,5.008-6.859,7.549c2.497-0.729,4.318,3.965,7.674,0.396
		c-0.516,1.098-0.759,1.614-1.137,2.419c1.364,0,2.443,0,3.462,0c0.082,0.085,0.319,0.549,0.588,0.566
		c0.868,0.062,1.887-0.354,2.6-0.034c4.766,2.144,9.335,0.723,13.688-0.979c4.748-1.857,9.035-4.8,14.117-5.971
		c1.979-0.456,3.924-1.318,5.702-2.319c3.382-1.904,6.608-4.078,9.939-6.072c2.975-1.777,5.979-3.507,9.011-5.181
		c2.935-1.617,5.854-3.285,8.908-4.646c2.03-0.902,4.283-1.305,6.438-1.93c4.038-1.171,7.38-4.195,11.776-4.473
		c0.118-0.008,0.174-1.025,0.151-0.89c1.819-0.188,3.468-0.356,5.116-0.527c-0.034-0.103-0.069-0.202-0.104-0.305
		c1.743,0.086,3.487,0.172,5.321,0.263C265.492,169.837,265.442,169.309,265.379,168.633z M290.356,235.552
		c1.953-1.819,3.79-3.507,5.599-5.223c1.573-1.492,1.957-2.95,0.871-5.163c-3.68-7.498-9.957-12.422-16.492-17.027
		c-11.338-7.993-23.729-12.105-38.337-9.507C259.172,209.987,277.562,218.727,290.356,235.552z M274.938,188.862
		c-9.442,0.084-18.479,1.443-26.583,4.941c6.805,0.155,13.972,0.138,21.114,0.537c6.722,0.376,13.276,1.69,19.677,4.016
		c10.027,3.641,18.879,8.702,24.774,18.426c1.553-1.672,2.938-3.261,4.43-4.747c2.726-2.72,2.883-3.025,0.217-5.659
		c-4.768-4.711-9.695-9.259-14.575-13.855c-0.405-0.385-0.938-0.639-1.425-0.933c-4.35-2.638-8.748-4.706-14.164-3.644
		c-2.582,0.506-5.356,0.004-8.047-0.015c-2.802-0.02-5.604-0.005-8.407-0.005c-0.005,0.217-0.009,0.433-0.014,0.647
		C272.936,188.67,273.936,188.766,274.938,188.862z M264.57,244.029c-17.571-8.63-26.844-22.255-26.303-42.639
		c-6.196,13.9-3.034,25.047,7.076,35.032C250.856,241.868,257.635,242.957,264.57,244.029z M82.925,99.344
		c-1.318,1.042-2.504,2.271-3.932,3.059c-5.825,3.208-7.679,8.378-7.296,14.59c0.053,0.838,1.108,2.062,1.933,2.296
		c1.157,0.331,2.531-0.094,3.754-0.189c-0.694-1.122-1.482-2.396-2.271-3.672c0.121-0.068,0.242-0.14,0.363-0.209
		c1.247,1.441,2.494,2.885,4.299,4.972c-0.539-3.136-0.922-5.363-1.254-7.292c0.134,0.106,0.573,0.456,1.14,0.907
		c0.229-1.933,0.423-3.554,0.599-5.031c0.073,0.036,0.476,0.232,0.878,0.432c0-0.805,0-1.609,0-2.377
		c0.336,0.157,0.781,0.365,1.594,0.745c-0.195-1.06-0.327-1.764-0.469-2.521c0.421,0.276,0.751,0.493,1.265,0.83
		C83.298,103.395,83.1,101.244,82.925,99.344z M237.681,196.429c2.281-5.762,4.443-11.223,6.562-16.571
		c-1.853,0.327-3.877,0.605-5.864,1.053c-4.804,1.079-5.085,1.424-5.028,6.486c0.021,1.793,0.244,3.595,0.518,5.37
		C234.229,195.133,234.724,197.482,237.681,196.429z M280.237,55.764c1.529,1.198,2.841,1.981,3.832,3.058
		c1.987,2.154,4.105,4.288,5.586,6.778c1.062,1.789,2.288,1.896,3.929,1.898c1.525,0.003,3.053,0.142,4.818,0.231
		c1.129-2.82-0.857-4.87-2.7-6.597C291.501,57.199,286.991,53.69,280.237,55.764z M232.918,195.979
		c-0.317-4.318-0.603-8.183-0.892-12.1c-3.725,2.502-7.478,5.025-11.204,7.529c2.354,5.257,6.083,7.65,8.829,5.791
		c-4.311-4.095-4.311-4.095-3.682-6.693C228.269,192.316,230.539,194.105,232.918,195.979z M301.009,68.907
		c2.331,2.839,4.649,5.66,6.629,8.072c1.349,0.503,2.57,1.401,3.605,1.223c1.06-0.185,1.936-1.427,2.948-2.254
		C311.076,67.531,305.417,64.565,301.009,68.907z M215.674,193.694c1.655,3.95,5.656,5.961,8.354,4.556
		c-1.518-2.039-3.063-4.119-4.732-6.361C218.226,192.42,216.949,193.058,215.674,193.694z M343.988,151.341
		c0.21,0.214,0.42,0.428,0.629,0.641c-2.091,1.412-1.998,5.686,0.565,8.893c0.415-3.929,0.784-7.42,1.153-10.911
		c-0.416-0.146-0.831-0.292-1.247-0.438C344.723,150.129,344.355,150.735,343.988,151.341z"/>
	<path fill="none" stroke="#000000" stroke-miterlimit="10" d="M265.379,168.633c0.062,0.677,0.113,1.204,0.179,1.894
		c-1.834-0.091-3.578-0.176-5.321-0.262c0.034,0.102,0.069,0.201,0.104,0.304c-1.648,0.171-3.297,0.341-5.116,0.528
		c0.021-0.138-0.033,0.881-0.151,0.889c-4.396,0.277-7.738,3.302-11.776,4.473c-2.154,0.625-4.407,1.026-6.438,1.931
		c-3.054,1.359-5.975,3.027-8.907,4.646c-3.033,1.674-6.037,3.402-9.012,5.181c-3.331,1.994-6.559,4.168-9.939,6.072
		c-1.778,1.001-3.725,1.863-5.702,2.319c-5.082,1.171-9.369,4.113-14.117,5.971c-4.353,1.702-8.922,3.123-13.687,0.98
		c-0.714-0.32-1.731,0.095-2.601,0.033c-0.269-0.019-0.506-0.481-0.588-0.566c-1.019,0-2.098,0-3.462,0
		c0.378-0.804,0.621-1.321,1.137-2.419c-3.354,3.568-5.177-1.124-7.674-0.396c2.31-2.541,4.585-5.045,6.859-7.549
		c-0.104-0.082-0.207-0.165-0.312-0.248c-2.214,1.957-4.297,4.102-6.695,5.798c-1.35,0.955-3.303,1.812-4.842,1.613
		c-6.295-0.813-12.189-2.498-14.488-9.584c-0.425-1.306-1.354-2.53-2.298-3.568c-3.001-3.303-4.138-7.139-3.896-11.541
		c0.208-3.819,0.801-7.565-1.804-11.197c-1.036-1.445-0.491-4.468,0.101-6.554c1.409-4.97,4.812-8.521,9.161-11.229
		c0.905-0.564,1.802-1.317,2.387-2.194c3.73-5.597,8.729-8.887,15.613-8.977c1.231-0.017,2.471-0.147,3.692-0.321
		c4.637-0.657,4.737-0.619,7.088,3.461c0.45,0.784,0.926,1.556,1.39,2.334c0.292-0.165,0.583-0.33,0.875-0.494
		c-1.395-2.36-2.79-4.721-4.023-6.81c1.009-0.784,2.083-1.564,3.094-2.421c1.631-1.385,3.65-2.548,4.731-4.287
		c2.125-3.416,5.613-3.96,8.865-5.162c10.678-3.948,19.752-10.526,28.551-17.532c1.028-0.817,2.138-1.803,2.641-2.958
		c1.228-2.817,3.354-3.185,6.005-2.929c1.89,0.182,3.807,0.2,5.704,0.118c0.938-0.041,1.859-0.476,2.789-0.729
		c-0.006-0.296-0.013-0.592-0.02-0.887c-1.18-0.216-2.658-0.981-3.483-0.537c-1.984,1.066-3.433,0.625-4.986-0.596
		c-0.079-0.062-0.576,0.591-0.911,0.632c-0.437,0.053-0.903-0.176-2.006-0.438c0.108-0.157-0.229,0.333-0.566,0.825
		c-0.194-0.048-0.391-0.096-0.587-0.143c0.208-0.968,0.415-1.937,0.665-3.1c-0.483,0.407-0.913,0.771-1.923,1.619
		c0.437-1.336,0.646-1.979,0.856-2.625c-0.266,0.059-0.53,0.115-0.797,0.172c-1.659-5.081-3.128-10.2-2.406-15.871
		c-0.271,0.521-0.541,1.043-0.929,1.792c-1.084-1.88-1.844-3.947-4.47-3.298c-0.372,0.093-0.803-0.047-1.206-0.078
		c0.168,0.464,0.214,1.217,0.523,1.348c3.985,1.695,4.153,5.096,4.449,8.766c0.256,3.165,0.784,6.577,2.262,9.301
		c1.455,2.682,0.8,4.135-1.009,5.8c-1.273,1.174-2.56,2.339-3.906,3.425c-0.211,0.169-0.778-0.104-1.071-0.154
		c-1.804,1.531-3.744,3.181-5.857,4.977c-0.312-1.154-0.605-2.244-0.899-3.336c0.292,2.28,0.596,4.438-2.436,5.472
		c-0.186-0.597-0.361-1.165-0.578-1.868c-0.252,1.038-0.296,2.08-0.778,2.842c-0.246,0.388-1.284,0.272-2.298,0.439
		c-0.159,0.287-0.652,1.178-1.146,2.067c-0.205-0.09-0.412-0.18-0.617-0.27c-0.056-1.118-0.11-2.235-0.167-3.354
		c-0.112-0.002-0.226-0.004-0.338-0.007c-0.058,1.143,0.04,2.321-0.234,3.407c-0.148,0.587-0.936,1.013-1.434,1.511
		c-0.354-0.428-0.71-0.854-0.701-0.845c-1.468,1.191-3.077,2.5-4.915,3.992c-0.247-0.948-0.385-1.472-0.342-1.309
		c-1.534,0.981-3.244,2.075-5.386,3.445c-0.837-2.609-0.924-5.039-2.182-6.178c-1.188-1.074-1.925-2.53-3.226-3.587
		c-1.974-1.604-2.909-4.482-4.272-6.801c-0.143,0.509-0.375,1.346-0.651,2.336c-1.307-0.274-2.63-0.555-3.953-0.834
		c6.162,3.345,10.018,8.488,12.59,13.854c-4.258,3.962-8.094,7.718-12.164,11.2c-1.172,1.003-2.978,1.503-4.564,1.73
		c-3.272,0.473-6.595,0.605-9.33,0.832c-2.029-2.265-3.682-4.752-5.934-6.438c-2.189-1.641-3.378-3.12-1.947-5.923
		c-0.298-0.041-0.596-0.082-0.893-0.123c-0.552,1.434-1.103,2.866-1.764,4.587c-3.026,0-6.306,0-9.912,0
		c-1.091-6.27-2.128-12.587,2.003-18.681c-3.4,0.019-4.295-3.104-6.03-5.268c-0.269-0.334-0.393-1.218-0.172-1.443
		c2.492-2.544,2.704-6.103,4.062-9.136c1.121-2.506,2.854-3.236,5.264-3.404c3.317-0.229,6.635-0.497,9.942-0.84
		c3.459-0.357,4.778-1.705,4.687-4.812c-0.895,0.309-1.908,0.387-2.529,0.921c-2.788,2.395-6.049,2.975-9.572,2.968
		c-1.695-0.002-3.395,0.493-5.087,0.467c-0.894-0.013-2.02-0.432-2.619-1.063c-1.856-1.958-3.616-4.088-1.55-7.112
		c-0.59,0.671-1.181,1.343-1.771,2.014c-0.167-0.107-0.333-0.216-0.5-0.322c0.869-1.455,1.739-2.911,2.608-4.366
		c-0.146-0.093-0.29-0.185-0.437-0.275c-0.877,1.246-1.753,2.493-2.484,3.533c-2.126-0.609-4.266-1.224-6.403-1.838
		c-0.222,0.372-0.443,0.744-0.665,1.116c5.965,0.772,8.026,5.454,10.643,9.913c-1.758,3.579-3.602,7.404-5.537,11.185
		c-0.238,0.464-0.949,0.901-1.486,0.963c-3.589,0.414-7.188,0.938-10.788,0.98c-1.917,0.021-3.844-0.854-5.769-1.313
		c-0.896-0.214-1.8-0.4-2.699-0.6c-0.113,0.351-0.229,0.702-0.342,1.054c1.847,0.68,3.678,1.879,5.543,1.936
		c4.157,0.125,8.354-0.149,12.494-0.615c1.806-0.204,2.646,0.111,3.96,1.503c2.969,3.139,3.644,6.178,2.768,10.487
		c-0.842,4.138-0.953,8.556,0.598,12.925c0.793,2.235,0.896,4.806,1.568,7.235c0.533,1.924-1.426,4.54-2.298,6.842
		c-0.188,0.497-0.465,0.961-0.7,1.438c0.229,0.168,0.458,0.336,0.687,0.503c0.674-1.056,1.559-2.035,1.979-3.184
		c1.143-3.117,2.144-6.258,6.206-6.466c-1.714-0.412-3.311-0.797-4.921-1.184c-0.056-0.997-0.305-1.991-0.091-2.873
		c0.152-0.636,0.877-1.548,1.425-1.605c3.109-0.336,6.304-0.886,9.348-0.474c1.692,0.23,3.342,2.011,4.653,3.423
		c1.038,1.119,1.53,2.743,2.374,4.351c-4.365,2.131-7.79,5.367-10.486,9.556c-0.937,1.455-3.15,2.025-4.545,3.266
		c-1.612,1.431-2.964,3.153-5.287,4.802c-0.138-2.071-0.274-4.145-0.43-6.46c-0.48,0.041-1.497,0.131-2.631,0.229
		c0.812,2.494-1.339,6.309,2.947,8.011c-0.799,2.152-1.547,4.172-2.302,6.208c-2.564,0.083-3.291-1.769-4.043-3.493
		c-1.512-3.475-3.061-6.938-4.387-10.483c-1.255-3.354-2.319-6.784-3.293-10.229c-0.233-0.823,0.224-1.844,0.357-2.741
		c-1.602,0.352-1.879-0.485-0.944-3.11c0.154-0.437,0.292-0.881,0.692-2.099c-0.957,1.389-1.472,2.137-2.36,3.429
		c-2.629-4.303-5.053-8.268-7.476-12.231c0.335,4.854,2.566,8.779,5.938,12.187c0.619,0.627,1.372,1.451,1.439,2.237
		c0.496,5.731,2.882,10.775,5.377,15.818c1.242,2.51,2.213,5.154,3.297,7.72c-7.975,3.595-8.106,3.276-15.432,0.771
		c0.95,1.052,1.604,1.774,2.54,2.813c-1.387,1.07-2.744,2.119-4.101,3.168c0.154,0.237,0.311,0.476,0.466,0.713
		c1.309-0.838,2.585-1.734,3.938-2.491c0.792-0.443,1.688-0.84,2.574-0.947c1.591-0.191,3.209-0.179,4.816-0.199
		c2.165-0.026,4.331-0.007,7.359-0.007c-1.149,0.98-1.729,1.763-2.501,2.086c-4.356,1.83-8.685,3.796-13.188,5.176
		c-1.615,0.495-4.042,0.014-5.49-0.943c-3.786-2.5-7.496-4.064-12.016-2.231c-0.474,0.191-1.225-0.175-1.804-0.395
		c-3.441-1.308-6.789-2.96-10.326-3.899c-4.235-1.124-6.681-3.604-7.949-7.681c-1.551-4.977-3.092-9.977-5.031-14.809
		c-2.122-5.284-1.456-10.227,0.884-15.139c0.244-0.513,0.837-1.012,1.38-1.203c2.727-0.964,5.386-0.829,7.97,0.613
		c2.909,1.624,3.989,3.863,2.114,7.246c0.278,0.038,0.558,0.077,0.836,0.115c0.782-0.837,1.589-1.656,2.347-2.517
		c4.268-4.838,8.586-4.131,11.062,1.822c1.839,4.421,1.506,6.296-1.713,12.729c1.227-1.088,2.45-2.175,3.743-3.322
		c4.734,1.184,7.403,4.401,10.188,12.178c1.689,0.748,3.058,1.354,4.424,1.958c0.067-0.081,0.137-0.162,0.205-0.244
		c-1.135-0.987-2.268-1.978-3.4-2.967c0.104-0.154,0.207-0.309,0.312-0.463c1.583,1.092,3.165,2.183,4.75,3.274
		c0.098-0.143,0.194-0.282,0.293-0.423c-0.57-0.531-1.141-1.063-1.709-1.597c0.062-0.115,0.128-0.229,0.19-0.346
		c0.93,0.354,1.858,0.708,2.788,1.062c0.144-0.18,0.286-0.359,0.429-0.54c-0.433-0.416-0.835-1.151-1.304-1.196
		c-5.36-0.524-7.81-4.556-10.524-8.394c-0.879-1.243-2.362-2.043-3.445-3.166c-0.388-0.4-0.406-1.157-0.823-2.485
		c-0.356,0.956-0.614,1.647-0.872,2.339c-0.295-0.204-0.591-0.407-0.886-0.61c0.539-1.281,1.078-2.563,1.726-4.104
		c-0.5,0.27-0.838,0.45-0.849,0.456c-1.07-2.562-2.429-5.086-3.116-7.778c-0.341-1.333,0.273-3.122,0.943-4.461
		c2.141-4.284,5.279-7.011,10.552-6.755c2.803,0.136,5.646-0.551,8.473-0.866c-0.028-0.347-0.059-0.691-0.088-1.038
		c-1.415,0-2.837-0.091-4.242,0.019c-3.284,0.255-6.575,0.928-9.84,0.8c-1.952-0.075-4.132-0.98-4.979-3.247
		c-0.479-1.281-0.795-2.623-1.281-4.265c-0.98,3.395,0.12,6.317,3.29,9.477c-0.452,0.729-0.909,1.469-1.447,2.337
		c-0.383-0.567-0.783-1.16-1.257-1.86c-0.274,1.354-0.527,2.599-0.817,4.03c-0.359-0.434-0.589-0.708-0.821-0.988
		c-0.104,0.133-0.275,0.274-0.251,0.339c1.05,2.734,0.108,3.565-2.861,3.656c-2.55,0.079-5.072,1.025-7.939,1.663
		c-3.913-4.317-4.312-8.632-0.966-14.188c1.066-1.771,2.601-3.302,1.723-5.857c-0.311-0.904,0.937-2.342,1.72-4.088
		c-0.914,0.832-1.413,1.287-2.278,2.074c0.787-3.204,1.452-5.907,2.115-8.606c-0.383,0-0.874,0-1.8,0
		c3.079-3.13,5.883-5.979,8.801-8.944c0.701,1.438,1.248,2.558,2.032,4.165c0.771-1.356,1.254-2.206,1.734-3.054
		c-0.089-0.085-0.178-0.169-0.266-0.254c-0.307,0.239-0.613,0.477-1.096,0.853c0-1.115-0.435-2.562,0.068-3.057
		c3.726-3.664,6.635-8.61,12.774-8.681c0,1.726,0,3.608,0,5.492c0.38,0.066,0.76,0.132,1.141,0.196
		c0.404-0.838,0.865-1.655,1.204-2.519c0.9-2.294,1.583-4.689,2.665-6.891c1.044-2.125,2.408-4.163,5.377-3.685
		c-0.41-0.14-0.819-0.277-1.242-0.42c0.063-0.203,0.065-0.459,0.171-0.512c5.506-2.759,10.93-5.713,16.582-8.134
		c2.162-0.927,4.86-0.93,7.294-0.829c4.382,0.181,7.927-1.353,11.152-4.171c5.385-4.703,14.574-7.151,22.618-5.826
		c-2.86,1.05-5.007,1.835-7.47,2.738c-0.209,1.107-2.477,1.666-10.794,2.04c-0.043,0.247-0.086,0.495-0.129,0.743
		c1.917,0.242,3.94,0.992,5.728,0.616c3.402-0.717,6.647-2.149,9.998-3.15c3.584-1.072,7.22-1.972,10.819-2.989
		c0.617-0.175,1.299-0.44,1.735-0.879c4.289-4.29,9.606-5.009,15.312-4.618c2.526,0.175,5.355,1.062,6.868-2.205
		c0.181-0.391,0.985-0.718,1.486-0.697c5.57,0.216,11.146,0.422,16.7,0.849c1.118,0.085,2.164,1.083,3.555,1.825
		c-1.421,1.916-2.703,3.646-3.988,5.377c0.274,0.238,0.551,0.476,0.826,0.713c0.376-0.674,0.752-1.349,1.116-2.001
		c0.538,0.448,0.841,0.698,1.142,0.949c1.336-2.525,3.939-2.304,6.145-2.579c2.664-0.334,5.396-0.091,8.092-0.239
		c1.008-0.056,2.074-0.353,2.975-0.813c4.577-2.348,12.541-0.562,15.511,3.597c0.062,0.086-0.407,0.55-0.784,1.042
		c1.447,0,2.646,0,3.963,0c-0.307,0.396-0.493,0.637-0.588,0.757c4.819,0.158,9.388,0.825,12.582,5.194
		c-0.91-0.462-1.82-0.924-3.383-1.716c0.812,0.947,1.118,1.309,1.602,1.873c-1.655,0-3.061-0.091-4.448,0.021
		c-2.315,0.185-4.614,0.58-6.932,0.729c-1.962,0.126-3.938,0.024-5.753,0.024c0.496,1.688,2.836,2.843,5.169,2.188
		c4.415-1.243,9.004-1.94,13.355-0.449c2.696,0.924,4.962,3.115,7.379,4.798c0.117,0.081-0.17,0.743-0.273,1.151
		c0.549,0.405,1.313,0.975,2.078,1.543c-0.1,0.166-0.2,0.331-0.3,0.498c1.334,1.437,2.669,2.873,4.205,4.524
		c-1.127,0.118-2.147,0.225-3.167,0.33c-0.002,0.121-0.003,0.241-0.004,0.361c0.483,0.093,0.968,0.186,1.61,0.309
		c-1.603,2.733-3.147,5.374-4.694,8.016c0.16,0.111,0.322,0.225,0.484,0.337c1.688-1.979,3.378-3.955,5.065-5.933
		c0.119,0.214,0.329,0.582,0.67,1.188c0.377-1.201,0.695-2.21,1.015-3.22c0.153,0.003,0.311,0.004,0.466,0.006
		c0.062,0.372,0.126,0.743,0.14,0.825c0.911-0.412,1.935-1.319,2.788-1.183c3.69,0.594,7.63,0.784,10.056,4.394
		c1.552,2.307,3.197,4.548,5.041,7.156c-0.846-0.276-1.312-0.431-2.382-0.779c1.086,1.82,1.926,3.229,3.106,5.206
		c1.983-3.965,4.562-5.666,8.32-4.658c3.393,0.909,4.91,3.233,6.858,10.223c-1.263,0.397-2.535,0.799-3.809,1.199
		c0.021,0.184,0.041,0.366,0.061,0.549c1.222,0.239,2.458,0.422,3.66,0.733c1.275,0.33,2.519,0.782,4.241,1.33
		c-1.04,0.271-1.613,0.42-2.347,0.61c0.335,0.175,0.473,0.3,0.62,0.316c3.74,0.424,4.717,1.43,5.218,5.101
		c0.36,2.642,0.717,5.299,1.358,7.878c0.416,1.672,1.346,3.218,2.183,5.136c-2.441,0.268-4.723,0.517-7.002,0.767
		c-0.017,0.312-0.031,0.624-0.05,0.938c2.667,0.631,5.347,1.213,7.993,1.917c1.066,0.282,2.131,0.726,3.05,1.32
		c0.329,0.213,0.229,1.091,0.389,2.059c-0.076-0.006,0.576,0.039,1.967,0.131c-1.04,0.93-1.588,1.42-2.304,2.06
		c0.795,0,1.46,0,2.125,0c0.08,0.207,0.161,0.412,0.243,0.619c-0.6,0.339-1.197,0.678-1.946,1.104
		c0.666,0.161,1.31,0.318,1.953,0.476c0.044,0.185,0.088,0.37,0.131,0.555c-1.422,0.411-2.845,0.822-4.269,1.233
		c0.029,0.175,0.06,0.35,0.088,0.524c1.303-0.198,2.604-0.398,3.912-0.6c0.031,1.837,0.031,1.837-4.146,2.284
		c1.22,0.191,1.813,0.339,2.413,0.365c0.608,0.026,1.224-0.063,1.958,0.342c-0.561,0.35-1.118,0.698-1.427,0.89
		c0.76,0.414,1.7,0.805,2.438,1.433c0.154,0.132-0.436,1.14-0.531,1.379c1.029,0.586,2.183,1.144,3.179,1.902
		c0.17,0.129-0.327,1.13-0.49,1.646c0.357,0.173,1.433,0.432,1.445,0.738c0.112,2.427,0.187,4.88-0.077,7.285
		c-0.124,1.122-1.023,2.159-1.569,3.235c-0.383-0.346-0.768-0.691-1.149-1.037c-0.889-1.456-1.719-2.952-2.686-4.354
		c-0.854-1.239-1.858-2.374-3.023-3.84c-0.609-0.228-1.839-0.684-3.32-1.232c0.31-0.638,0.565-1.167,0.909-1.873
		c-0.837,0.365-1.559,0.68-2.942,1.282c0.605-1.112,0.854-1.564,0.902-1.655c-1.257-0.192-2.626-0.403-4.338-0.665
		c0.638-0.809,1.075-1.366,1.516-1.924c-0.077-0.095-0.152-0.189-0.229-0.285c-0.658,0.474-1.315,0.946-1.974,1.419
		c-0.096-0.091-0.19-0.181-0.285-0.271c0.455-0.637,0.909-1.273,1.364-1.909c-0.255,0.108-0.511,0.22-0.766,0.33
		c-0.513-1.141-1.134-2.245-1.503-3.43c-0.322-1.034-0.184-2.228-0.571-3.225c-0.493-1.264-0.65-1.703-0.22-2.184
		c-0.579-0.188-1.602-0.219-1.863-0.68c-0.344-0.601-0.084-1.545-0.084-2.296c-1.605,0.292-2.12-0.387-0.953-2.199
		c-0.603,0.067-1.187,0.134-2.266,0.255c0.725-1.007,1.174-1.631,1.711-2.379c-1.122,0.37-2.14,0.706-3.157,1.042
		c-0.104-0.211-0.207-0.422-0.311-0.633c0.896-0.99,1.793-1.981,2.689-2.975c-0.072-0.08-0.146-0.161-0.219-0.241
		c-1.463,1.104-2.927,2.206-4.39,3.311c-0.191-0.188-0.384-0.375-0.575-0.563c0.357-2.339,0.716-4.678,1.072-7.018
		c0.162,0.035,0.324,0.071,0.484,0.107c-0.444-1.023-0.89-2.049-1.334-3.073c-0.271,4.897-2.582,8.626-6.349,11.649
		c0.159,0.22,0.317,0.44,0.477,0.659c0.941-0.149,1.885-0.301,2.828-0.447c3.926-0.611,6.066,0.289,7.653,3.841
		c1.839,4.112,3.336,8.378,4.991,12.604c-2.956,1.247-5.236,2.739-7.678,3.085c-2.317,0.328-4.806-0.546-7.513-0.934
		c0.929,0.755,1.761,1.437,2.599,2.108c1.838,1.476,1.771,4.002-0.271,4.771c-1.999,0.751-3.955,1.442-5.295,3.222
		c-0.292-0.263-0.584-0.525-0.831-0.746c-0.307,0.818-0.623,1.66-0.939,2.503c-0.146-0.04-0.294-0.081-0.441-0.121
		c0.146-1.096,0.292-2.19,0.51-3.835c-0.604,1.025-0.946,1.604-1.234,2.092c-2.272-5.484-7.832-6.734-12.132-9.68
		c0.344-0.447,0.741-0.967,1.209-1.574c-1.219,0.484-2.353,0.937-3.483,1.387c-0.173-0.309-0.347-0.615-0.521-0.924
		c0.847-0.578,1.693-1.156,2.54-1.734c-0.149-0.193-0.299-0.39-0.448-0.582c-1.243,0.798-2.486,1.596-3.73,2.395
		c-0.163-0.229-0.324-0.459-0.487-0.688c1.264-1.104,2.525-2.208,3.788-3.312c-0.074-0.112-0.148-0.225-0.225-0.338
		c-1.046,0.661-2.092,1.321-3.139,1.981c-0.12-0.113-0.239-0.227-0.36-0.34c1.08-1.188,2.159-2.377,3.737-4.113
		c-1.253,0.655-1.913,1.002-2.574,1.348c-0.202-0.113-0.405-0.228-0.609-0.341c0.803-1.375,1.604-2.751,2.435-4.175
		c-0.494,0.24-1.085,0.528-1.719,0.838c0.08-0.947,0.154-1.809,0.271-3.179c5.082-0.925,10.727-2.146,16.435-2.864
		c1.688-0.213,3.555,0.998,5.338,1.558c0.482-1.548-0.117-2.752-2.405-3.056c-1.766-0.233-3.631-0.188-5.39,0.107
		c-4.302,0.727-8.564,1.673-12.847,2.52c-0.46,0.091-1.062,0.322-1.38,0.129c-2.793-1.709-5.544-3.489-8.289-5.273
		c-0.53-0.345-0.989-0.8-1.376-1.116c-1.254,0-2.65,0-4.884,0c1.358-1.774,2.277-2.977,3.199-4.178
		c-0.051-0.102-0.101-0.204-0.148-0.307c-0.958,0.805-1.917,1.608-2.876,2.412c-0.175-0.076-0.35-0.153-0.523-0.229
		c0.291-0.967,0.582-1.934,1.038-3.447c-0.761,0.805-1.178,1.246-1.633,1.727c-1.366-2.747-3.271-3.6-5.854-2.877
		c1.9,1.73,3.901,3.552,6.396,5.823c-1.777,0.486-2.567,0.704-2.701,0.74c4.014,1.738,8.354,3.658,12.729,5.5
		c2.607,1.099,3.423,3.019,2.934,5.682c-0.4,2.185-0.758,4.377-1.18,6.826c-0.635-0.595-0.987-0.922-1.567-1.464
		c0.217,1.135,0.369,1.947,0.648,3.418c-1.972-0.73-3.521-1.305-5.065-1.877c0.011-0.025-0.189,0.517-0.39,1.06
		c-0.637-0.3-1.272-0.599-1.928-0.906c-0.087,0.167-0.287,0.55-0.655,1.253c-0.566-0.887-0.95-1.487-1.469-2.3
		c-0.062,0.717-0.109,1.271-0.135,1.56c-1.975,0-3.786,0-5.601,0c-3.806,1.498-7.427,3.125-12.167,3.002
		c-4.376-0.114-5.007,0.821-13.423-3.467c-0.078,2.545,1.161,3.479,8.402,6.174c-0.873,1.875-1.776,3.709-2.591,5.582
		c-1.28,2.95-4.159,2.543-6.538,3.139c-1.368,0.343-2.883,0.227-4.184,0.713c-4.664,1.747-8.97,4.169-12.791,7.404
		c-0.254,0.215-0.602,0.315-1.396,0.72c0.411-1.114,0.646-1.745,0.945-2.56c-1.46,0.891-3.102,2.123-2.804-0.604
		c-3.279-1.148-6.572-2.304-9.866-3.458c-0.151,0.404-0.305,0.809-0.456,1.212c0.979,0.343,1.987,0.619,2.932,1.04
		c1.994,0.889,3.952,1.854,5.929,2.782c2.503,1.176,3.198,3.08,2.878,5.807c-0.556,4.748,1.378,6.596,6.957,6.697
		c-1.261-1.008-2.163-1.984-3.272-2.567c-3.198-1.683-3.271-1.847-0.681-4.614c-0.499,0-0.9,0-1.256,0
		c-0.518-2.944,1.966-3.522,3.729-4.688c4.647-3.062,9.486-5.683,15.188-6.053c2.217-0.145,4.449-0.023,6.877-0.521
		c-0.858-0.571-1.716-1.144-2.389-1.592c1.192-2.138,2.237-4.354,3.624-6.332c0.606-0.869,1.84-1.602,2.9-1.805
		c6.516-1.241,13.024-2.702,19.607-3.339c7.567-0.732,14.811,1.184,21.146,5.422c2.353,1.574,3.975,4.247,5.902,6.44
		c0.432,0.492,0.754,1.081,1.269,1.833c-0.526,1.866-1.194,4.228-1.862,6.587c0.257,0.091,0.513,0.179,0.769,0.269
		c0.988-1.989,1.865-4.043,2.985-5.957c3.349-5.723,10.032-8.181,15.993-5.854c3.171,1.238,5.592,3.243,5.884,6.989
		c0.281,3.606-0.466,4.59-4.038,5.156c-0.842,0.133-1.692,0.217-2.729,0.349c-0.424-1.099-0.838-2.176-1.438-3.738
		c-0.914,2.521-0.971,4.238,0.222,6.398c1.106,2.003,1.154,4.592,1.709,7.109c1.928-0.905,1.316-2.983,1.414-4.808
		c0.069-1.306,0.195-3.727,0.394-3.736c2.165-0.109,4.105-2.298,6.438-0.75c2.786,1.852,4.412,4.343,4.693,7.729
		c0.146,1.761,0.51,3.503,0.86,5.814c0.851-0.803,1.622-1.295,1.554-1.499c-1.4-4.087-0.93-8.882-4.66-12.131
		c-0.564-0.491-0.393-1.83-0.584-2.914c-0.61,0.236-1.49,0.579-2.369,0.921c-0.084-0.122-0.167-0.244-0.249-0.365
		c0.462-0.392,0.923-0.783,1.369-1.161c-2.852-1.155,0.431-1.446,0.242-2.002c-2.865-6.489-7.695-10.045-14.8-10.726
		c-0.296-1.79,1.358-2.367,3.024-2.958c0.715-0.253,1.41-0.564,2.104-0.877c5.677-2.562,8.539-1.974,13.057,2.721
		c1.517,1.575,3.228,3.028,4.432,4.818c1.004,1.49,2.43,4.203,1.848,4.943c-1.243,1.582,0.109,2.557-0.086,3.742
		c-0.458,2.758,0.512,5.121,1.753,7.547c0.507,0.994-0.096,2.562-0.208,3.865c-0.346,3.979-2.491,7.637-5.853,9.778
		c-0.149-0.661-0.282-1.249-0.415-1.837c-0.132,0.173-0.264,0.346-0.396,0.519c-1.043-1.003-2.084-2.007-3.445-3.315
		c0.401,1.16,0.695,2.01,0.929,2.681c-1.33,0.874-2.556,1.68-4.22,2.773c1.745,0.281,3.092,0.498,4.708,0.759
		c0.708,1.331,1.025,3.193-1.147,3.941c-1.185,0.408-2.753-0.299-3.978-0.479c0.072,0.143,0.414,0.812,0.755,1.48
		c-0.188,0.211-0.379,0.421-0.568,0.631c-1.264-0.951-2.526-1.902-4.33-3.262c0.746,1.17,1.19,1.865,1.635,2.56
		c-0.068,0.209-0.135,0.418-0.203,0.626c-2.428-0.783-4.855-1.567-7.508-2.425c0.208-0.328-0.183,0.416-0.257,0.386
		c-2.113-0.862-4.196-1.805-6.378-2.773c-1.644,2.075-2.087-0.949-3.243-1.507c-0.194,0.378-0.389,0.753-0.733,1.423
		c-0.688-0.98-1.257-1.789-1.928-2.742c0,0.639,0,1.13,0,1.637c-2.699-0.849-5.259-1.651-7.833-2.461
		c-0.842,2.461-1.956-0.023-2.367-0.245c-4.511,0-8.412,0.418-12.177-0.117c-3.74-0.531-7.347-2.021-10.966-3.078
		c-1.317,1.931-2.19-0.051-3.268-1.1c-0.124,0.487-0.233,0.926-0.425,1.681c-0.777-0.852-1.333-1.46-2.112-2.313
		c0.113,0.812,0.186,1.328,0.384,2.75C266.89,170.431,266.241,169.658,265.379,168.633z M259.974,95.754
		c-0.48-1.141-0.936-2.216-1.398-3.313c-0.125,0.038-0.682,0.206-1.235,0.373c0.103-1.085,0.205-2.17,0.308-3.255
		c-0.056-0.141-0.11-0.279-0.168-0.419c-0.304,0.762-0.606,1.523-1.093,2.741c-1.108-1.943-1.721-3.021-2.379-4.175
		c0.957-1.042,1.85-2.014,3.118-3.396c-0.983,0.327-1.488,0.495-2.493,0.831c0.519-1.445,0.879-2.448,1.239-3.452
		c-0.18,0.019-0.357,0.037-0.535,0.056c0-1.165,0-2.33,0-3.425c-2.846,1.176-0.091-2.569-1.705-2.729
		c0.376-1.269,0.752-2.535,1.111-3.745c-0.472,0.325-1.152,0.797-1.833,1.269c-0.14-0.11-0.278-0.221-0.418-0.331
		c0.638-1.237,1.276-2.476,2.2-4.269c-1.095,1.029-1.72,1.616-2.396,2.253c-0.964-3.714,1.07-5.804,3.906-7.865
		c-3.472,0.367-5.888-0.957-8.021-3.246c0.392,1.416,1.157,2.422,1.761,3.52c0.417,0.759,0.795,1.625,0.865,2.471
		c0.227,2.698,0.086,5.439,0.492,8.104c0.426,2.797,1.679,5.497,1.885,8.29c0.141,1.891-0.31,4.52-1.556,5.656
		c-1.928,1.761-4.466,0.694-6.481-0.892c-0.046-0.035-0.261,0.144-0.535,0.306c2.221,3.163,5.221,2.843,8.187,1.949
		c1.657,2.162,3.255,4.162,4.743,6.239c0.451,0.631,1.044,1.676,0.813,2.192c-1.918,4.314-3.688,8.753-6.179,12.731
		c-1.447,2.309-3.538,4.854-7.091,4.344c-0.094-0.013-0.215,0.167-0.336,0.267c0.539,0.313,1.05,0.608,2.264,1.312
		c-2.02,0.248-3.258,0.399-5.245,0.645c1.528,0.375,2.348,0.576,3.181,0.78c-0.077,0.134-0.111,0.275-0.173,0.287
		c-0.454,0.09-0.914,0.152-1.396,0.229c0.706,0.722,0.706,0.722-1.921,2.322c0.264,0.369,0.524,0.738,0.788,1.107
		c-0.113,0.187-0.228,0.373-0.341,0.56c-1.281-0.626-2.563-1.252-4.08-1.992c0.669,0.88,1.153,1.521,1.64,2.16
		c-0.134,0.191-0.268,0.383-0.401,0.574c-1.238-0.683-2.478-1.364-3.736-2.059c-0.016,0.309-0.033,0.694-0.057,1.14
		c-1.578-0.658-3.069-1.282-4.562-1.904c-0.257,0.336-0.517,0.672-0.773,1.009c1.138,0.702,2.273,1.405,3.409,2.108
		c-0.159,0.354-0.318,0.71-0.479,1.066c-1.382-0.13-2.762-0.259-4.091-0.384c0.215,0.293,0.591,0.808,0.967,1.32
		c-0.184,0.184-0.364,0.367-0.548,0.551c-0.847-0.719-1.692-1.438-2.75-2.334c0.422,1.031,0.746,1.832,1.175,2.882
		c-5.13-0.059-7.563-3.555-10.62-6.631c0.404,1.806,0.812,3.61,1.131,5.021c1.669,0.94,3.198,1.804,4.949,2.791
		c-1.068,0.432-1.921,0.774-2.774,1.12c0.035,0.087,0.071,0.174,0.107,0.261c0.82-0.069,1.645-0.142,1.947-0.167
		c-0.18,3.387-0.36,6.828-0.543,10.269c0.309,0.021,0.615,0.041,0.924,0.062c0.462-2.562,0.924-5.126,1.4-7.777
		c0.873,0.284,1.65,0.536,2.278,0.74c-0.629-0.789-1.263-1.582-1.896-2.375c0.951-0.055,1.899-0.101,2.849-0.173
		c0.194-0.016,0.382-0.137,0.651-0.238c-0.938-0.338-1.73-0.624-2.491-0.898c2.422-0.958,4.599-1.843,6.794-2.678
		c1.313-0.501,2.665-1.326,3.985-1.303c3.632,0.064,6.918-0.575,9.515-3.304c2.757,3.695,4.301,4.471,6.702,3.254
		c-1.141-0.615-2.224-1.13-3.236-1.757c-2.532-1.565-2.823-3.981-0.639-4.95c-0.327-0.173-0.654-0.348-1.255-0.666
		c1.562-0.849,2.599-1.96,3.596-2.647c2.966-2.047,3.752-5.349,5.751-7.872c1.953-2.464,1.166-6.588,4.902-7.879
		c-0.194-0.347-0.389-0.691-0.94-1.677c3.731,0,7.117,0,10.503,0C267.673,95.159,264.223,92.998,259.974,95.754z M201.114,42.518
		c-0.331-0.035-0.663-0.069-0.995-0.104c-0.306,0.797-0.609,1.595-0.918,2.393c-0.287,0.743-0.396,1.961-0.899,2.156
		c-4.121,1.604-8.218,3.572-12.517,4.327c-4.153,0.729-8.387,1.191-10.884,4.716c-2.364,3.337-3.84,7.312-5.624,11.045
		c-0.261,0.548-0.001,1.321-0.097,1.975c-0.209,1.436-0.354,2.9-0.782,4.275c-0.419,1.35-1.418,2.547-1.693,3.905
		c-0.574,2.817-0.453,5.824-1.335,8.52c-0.914,2.795-2.723,5.289-4.043,7.963c-0.48,0.973-0.363,2.43-1.063,3.074
		c-5.063,4.664-5.027,13.033-0.845,18.52c0.656,0.86,0.956,1.994,1.483,3.138c1.273-0.514,2.719-1.096,3.846-1.551
		c-1.46-1.147-3.125-1.994-4.134-3.333c-3.478-4.622-2.987-10.926,0.785-15.247c0.811-0.926,1.298-2.188,1.741-3.367
		c1.396-3.718,2.213-7.904,7.459-8.089c0.298-0.011,0.575-0.596,1.095-1.173c-1.236-0.281-2.149-0.489-2.941-0.669
		c-0.171-0.519-0.342-1.039-0.514-1.56c-0.325,0.021-0.651,0.045-0.979,0.066c1.27-4.08,2.554-8.155,3.796-12.244
		c0.188-0.619,0.276-1.299,0.257-1.945c-0.264-8.639,6.115-15.482,14.72-15.984c1.938-0.113,3.879-0.758,5.75-1.369
		c3.681-1.2,7.313-2.543,10.961-3.842c0.666-0.236,1.306-0.546,1.957-0.822c0.164-0.236,0.328-0.475,0.493-0.712
		C202.409,46.428,200.223,45.771,201.114,42.518z M204.171,64.056c0.25-0.651,0.334-1.807,0.942-2.27
		c1.437-1.092,3.074-1.953,4.717-2.729c4.185-1.984,8.415-3.871,12.628-5.798c-0.073-0.222-0.146-0.442-0.218-0.666
		c-0.557,0.044-1.111,0.086-2.021,0.155c0.609-0.826,1.01-1.368,1.564-2.119c-0.849,0.307-1.45,0.522-2.053,0.739
		c-0.12-0.169-0.238-0.338-0.358-0.507c0.613-0.733,1.228-1.467,2.114-2.528c-0.99,0.375-1.676,0.633-3.102,1.171
		c1.069-1.373,1.6-2.053,2.166-2.779c-0.728,0.047-1.361,0.088-1.994,0.13c-0.082-0.206-0.163-0.412-0.246-0.618
		c0.784-0.503,1.568-1.006,2.737-1.757c-1.022,0.047-1.671,0.077-2.317,0.105c-0.048-0.163-0.095-0.327-0.142-0.49
		c1.869-1.093,3.739-2.186,5.597-3.271c-0.832-1.314-3.208-1.058-6.066,1.058c-0.182-0.54-0.354-1.056-0.572-1.705
		c-0.178,0.675-0.317,1.207-0.281,1.07c-2.685-0.271-5.188-0.523-7.688-0.776c-0.02,0.245-0.036,0.492-0.056,0.738
		c2.084,0.591,4.203,1.086,6.229,1.833c0.605,0.225,1.241,1.092,1.375,1.763c0.553,2.763,0.918,5.562,1.389,8.584
		c-0.299,0.151-0.867,0.469-1.456,0.739c-3.191,1.472-6.303,3.18-9.609,4.319c-3.082,1.062-5.314,3.387-7.668,5.229
		c-1.863,1.458-4.759,1.111-5.687,4.15c-0.298-1.01-0.438-1.486-0.497-1.682c-0.379,0.917-0.822,1.989-1.266,3.062
		c-0.222-0.075-0.443-0.149-0.664-0.227c-0.2-1.479-0.399-2.958-0.601-4.438c-0.162,0.023-0.325,0.047-0.488,0.07
		c0.061,1.245,0.12,2.491,0.18,3.735c-0.206,0.064-0.413,0.131-0.619,0.195c-0.627-1.392-1.254-2.78-1.854-4.111
		c-0.102,0.385-0.249,0.948-0.501,1.909c-0.74-0.886-1.268-1.514-1.793-2.143c-0.196,0.122-0.395,0.245-0.592,0.367
		c0.392,0.77,0.661,1.639,1.2,2.285c0.655,0.787,1.604,1.323,2.306,2.079c2.612,2.812,2.698,6.336,2.706,9.882
		c0.007,2.35,0.292,4.336,3.115,5.305c2.303,0.79,3.885,2.612,3.788,5.456c-0.024,0.78,0.707,1.586,1.092,2.38
		c0.379-0.924,1.197-1.921,1.061-2.759c-0.628-3.812-3.23-6.034-6.748-7.367c0.349-0.876,1.002-1.7,0.895-2.407
		c-0.285-1.855-0.647-3.782-1.447-5.459c-1.139-2.387-0.129-4.017,1.631-5.091C197.955,67.064,201.135,65.623,204.171,64.056z
		 M270.131,71.632c-1.141-1.49-1.89-2.47-2.64-3.447c0.252,2.976,0.873,5.731,1.981,8.277c1.136,2.616,2.745,5.024,4.203,7.622
		c0.504-0.13,1.042-0.271,1.579-0.405c6.751-1.687,10.447-0.346,14.494,5.396c1.75,2.483,3.365,5.063,5.013,7.619
		c0.805,1.25,1.542,2.544,2.31,3.818c0.429-0.381,0.857-0.762,1.286-1.142c-0.174-0.527-0.311-1.07-0.525-1.58
		c-2.069-4.877-5.737-8.683-8.71-12.954c-0.935-1.341-1.963-2.613-2.909-3.865c-0.104,0.046-0.771,0.348-1.441,0.648
		c-0.118-0.575-0.237-1.15-0.249-1.204c-3.327,0-6.59,0-10.075,0c0.17-0.849,0.307-1.539,0.446-2.249
		c-0.906-0.152-1.744-0.296-2.758-0.468c0.315-0.809,0.604-1.55,0.953-2.441c-0.562,0.295-0.951,0.499-1.344,0.706
		c-0.668-2.079,0.175-3.512,1.879-4.545c1.758-1.065,3.549-2.08,5.098-2.983c-0.323-1.384-0.714-3.057-1.104-4.729
		C277.984,69.239,272.448,68.612,270.131,71.632z M169.011,164.999c0.156-1.435,0.318-2.912,0.553-5.057
		c1.566,1.246,2.324,1.85,3.083,2.454c0.074-0.078,0.148-0.155,0.225-0.232c-0.437-0.601-0.87-1.201-1.4-1.934
		c3.7-0.282,7.098-0.526,10.075-3.486c-3.452-0.036-6.351,2.253-9.269,0.189c-0.165,3.113-1.628,0.853-2.365,0.607
		c-0.176,0.591-0.343,1.16-0.511,1.729c-0.489-0.253-0.968-0.536-1.476-0.746c-0.352-0.146-0.746-0.192-1.761-0.438
		c-0.496-0.602-1.454-1.921-2.603-3.046c-0.292-0.286-1.221,0.191-1.8,0.062c-1.342-0.303-2.646-0.763-3.972-1.148
		c-0.132-0.038-0.284-0.005-0.432-0.005c0.137,0.559,0.27,1.105,0.417,1.714c-2.469-0.817-4.699-1.557-6.932-2.297
		c3.267,3.169,5.086,3.857,8.706,3.824c4.257-0.039,7.338,3.567,7.181,7.728c-0.094,2.485,0.607,5.027,1.171,7.493
		c0.142,0.616,1.132,1.037,2.22,1.962c-0.814-3.774-1.428-6.615-2.082-9.657C168.8,164.938,169.192,165.053,169.011,164.999z
		 M191.699,182.545c-3.073,8.28-10.515,8.804-17.8,9.708c6.197,2.354,11.537,0.033,16.894-3.077c0.098-0.318,0.398-1.309,0.8-2.62
		c0.671,0.868,1.035,1.342,1.627,2.107c0-1.672,0-2.977,0-4.282c0.187-0.008,0.371-0.016,0.556-0.023
		c0.473,1.312,0.942,2.626,1.414,3.938c0.15-0.038,0.302-0.076,0.451-0.113c-0.313-1.507-0.628-3.013-0.941-4.52
		c0.185-0.157,0.369-0.313,0.556-0.473c0.931,1.102,1.862,2.202,2.969,3.511c-0.202-0.97-0.356-1.711-0.554-2.652
		c2.879,0.388,5.496,0.732,7.859-0.845c-4.099-0.537-8.264-0.228-11.575-1.761c-3.228-1.493-5.58-4.872-8.316-7.423
		c-0.176,0.156-0.352,0.314-0.526,0.474C187.29,177.156,189.47,179.82,191.699,182.545z M264.437,154.563
		c-0.282,0.67-0.375,1.648-0.854,1.903c-2.741,1.456-5.6,2.692-8.368,4.101c-1.537,0.781-2.979,1.751-4.463,2.637
		c0.176,0.31,0.351,0.617,0.525,0.927c1.516-0.647,3.211-1.045,4.518-1.985c6.901-4.981,13.907-5.254,21.27-1.045
		c1.701,0.973,3.738,1.357,5.622,2.015c0.133-0.352,0.268-0.703,0.4-1.055c-4.73-2.576-9.742-4.524-15.093-6.083
		c0.526-0.561,1.424-1.136,1.343-1.481c-0.854-3.65,2.604-4.138,4.225-5.949c0.361-0.404,0.723-0.812,1.083-1.218
		c-4.682,1.406-7.233,4.977-9.689,8.876C264.761,155.596,264.602,155.09,264.437,154.563z M224.983,53.367
		c1.279,0,2.57-0.106,3.835,0.023c2.186,0.226,4.401,0.901,4.582,3.438c0.235,3.312,1.747,5.153,4.752,6.444
		c1.64,0.704,2.84,2.428,4.236,3.69c0.229-0.203,0.456-0.406,0.684-0.61c-1.604-2.029-3.208-4.059-4.823-6.103
		c-0.205,0.108-0.766,0.405-1.85,0.98c0.473-1.244,0.717-1.887,1.186-3.12c-0.913,0.969-1.411,1.496-2.056,2.18
		c-0.648-5.744,0.55-7.66,5.819-7.858c3.721-0.142,7.484,0.792,11.228,1.266c0.732,0.093,1.453,0.284,2.18,0.431
		c-4.274-3.724-16.197-5.238-21.27-0.122C230.89,51.522,227.991,51.801,224.983,53.367z M190.122,142.467
		c-0.319,0.006-0.639,0.011-0.957,0.017c0.865,5.18,0.134,9.84-4.614,13.477c4.21-0.244,7.636-0.441,11.061-0.642
		c0.094-0.18,0.187-0.36,0.277-0.54c-1.066-0.544-2.133-1.089-3.252-1.66c0.44-0.543,1.097-1.352,1.754-2.16
		c-0.098-0.083-0.196-0.166-0.294-0.249c-1.082,0.923-2.162,1.846-3.244,2.769c-0.102-0.112-0.204-0.225-0.307-0.337
		c1.17-1.295,2.339-2.591,3.509-3.886c-0.132-0.116-0.263-0.232-0.395-0.35c-0.969,0.805-1.937,1.608-2.903,2.413
		c2.084-4.381,5.054-7.759,10.381-8.541c-0.3-0.455-0.6-0.912-0.899-1.368c-3.062,1.408-6.125,2.816-9.096,4.183
		C190.879,144.786,190.501,143.627,190.122,142.467z M119.912,87.773c-0.329-0.777-0.766-1.809-0.899-2.125
		c-6.688-1.088-12.934-0.244-18.265,3.854c-5.548,4.269-9.044,9.869-10.275,16.812c0.76-1.467,2.695-1.913,2.722-4.261
		c0.019-1.615,2.078-3.12,2.897-4.831c2.737-5.721,7.31-9.188,13.407-10.053C112.904,86.688,116.499,87.534,119.912,87.773z
		 M290.522,153.072c-0.188-0.037-0.375-0.075-0.562-0.113c0.036-0.676,0.074-1.353,0.135-2.464
		c-0.598,0.969-0.939,1.521-1.279,2.071c-0.172-0.075-0.343-0.149-0.514-0.226c0.274-1.209,0.548-2.417,0.851-3.753
		c-2.651,2.28-2.743,4.714-0.216,5.37c7.972,2.07,14.867,5.938,21.158,11.25c2.057,1.735,5.181,2.207,7.816,3.257
		c0.152-0.361,0.309-0.726,0.463-1.088c-0.808-0.384-1.634-0.729-2.417-1.158c-2.223-1.218-4.64-2.201-6.596-3.761
		c-5.143-4.096-10.666-7.347-17.022-9.145c-0.431-0.122-0.643-1.021-0.967-1.577C291.095,152.173,290.809,152.623,290.522,153.072z
		 M224.919,166.979c-1.092,0.179-1.72,0.244-2.327,0.389c-4.236,1.002-8.443,2.156-12.715,2.971c-1.85,0.353-4.06,1.439-5.655-0.649
		c-1.805-2.363-4.463-3.568-6.797-5.208c-0.481-0.338-1.24-0.281-1.871-0.406c1.64,1.69,3.504,2.824,5.125,4.236
		c1.681,1.464,3.126,3.197,4.783,4.927C221.683,170.886,222.658,170.595,224.919,166.979z M142.942,78.101
		c5.023-0.959,7.711-5.17,6.678-9.653c-0.372-1.613-0.061-3.386-0.061-5.035c-0.279,0.105-0.706,0.266-1.751,0.656
		c1.002-2.114,1.732-3.654,2.462-5.195c-0.104-0.053-0.209-0.104-0.312-0.157c-0.76,1.104-1.52,2.209-2.314,3.367
		c0-1.851,0-3.51,0-5.168c-0.259-0.055-0.519-0.107-0.775-0.163c-0.621,1.104-1.24,2.205-1.744,3.101
		c-2.098,0.411-4.045,0.793-5.992,1.175c0.052,0.293,0.104,0.586,0.156,0.879c0.947-0.159,1.919-0.239,2.842-0.491
		c2.423-0.662,3.697,0.492,4.574,2.6c2.049,4.917,1.06,9.284-2.979,12.88C143.425,77.158,143.269,77.584,142.942,78.101z
		 M205.701,135.875c-0.765-3.419-1.358-6.081-2.026-9.067c-1.778,1.831-1.256,3.917-0.94,5.959c0,0,0.688,6.868,0.753,7.525
		c4.673-4.407,9.852-0.144,14.755-0.88c0.044-0.397,0.089-0.797,0.132-1.195c-2.863-0.616-5.727-1.233-8.731-1.883
		c0.416-0.912,0.789-1.73,1.42-3.115c-1.47,1.487-2.473,2.504-3.476,3.519c-0.229-0.194-0.457-0.39-0.688-0.584
		c0.201-0.813,0.402-1.628,0.801-3.24C206.871,134.141,206.518,134.664,205.701,135.875z M143.184,176.375
		c1.146-7.693,6.26-9.028,12.646-8.74c-2.211-0.591-4.357-0.895-6.372-0.507c-2.059,0.396-3.264-0.401-4.406-1.786
		c-1.421-1.718-2.835-3.44-4.252-5.162c-0.238,0.117-0.478,0.236-0.715,0.355c0.624,1.475,1.248,2.949,1.851,4.373
		c0.864,0.725,1.886,1.58,2.908,2.438c-1.519,0.643-2.858,1.209-4.198,1.775c0.06,0.124,0.116,0.248,0.175,0.372
		c1.406-0.432,2.813-0.863,4.221-1.295c0.066,0.218,0.135,0.436,0.201,0.653c-1.123,0.471-2.247,0.939-3.37,1.411
		c0.05,0.12,0.1,0.241,0.148,0.362c0.624-0.15,1.247-0.305,2.729-0.668c-1.483,1.794-2.408,2.911-3.17,3.831
		C142.007,174.482,142.423,175.15,143.184,176.375z M79.578,135.923c1.408,1.191,3.11,2.632,4.812,4.069
		c-0.031,0.112-0.062,0.224-0.093,0.335c-2.043-0.701-4.085-1.401-6.128-2.103c-0.044,0.125-0.089,0.249-0.134,0.373
		c1.548,0.76,3.096,1.52,4.419,2.17c-2.026,2.192-3.96,4.286-5.894,6.379c3.035,0.636,3.322-2.162,4.936-3.264
		c1.748-1.193,3.351-2.603,4.822-3.766c-2.271-2.836-4.375-5.463-6.742-8.421C79.578,132.976,79.578,134.148,79.578,135.923z
		 M181.092,91.652c2.383,1.619,4.667,2.771,6.417,4.474c1.806,1.756,3.048,4.081,4.631,6.083c0.462,0.583,1.238,1.272,1.886,1.288
		c1.641,0.039,3.288-0.275,4.934-0.45c0.026-0.23,0.054-0.464,0.082-0.695c-1.203-0.188-2.411-0.353-3.608-0.569
		c-0.782-0.143-2.074-0.158-2.24-0.582c-1.176-3-3.691-4.93-5.505-7.403c-0.916-1.252-1.403-2.816-2.086-4.239
		c-0.129,0.041-0.258,0.081-0.387,0.121c0.072,0.882,0.146,1.765,0.22,2.667C183.931,92.104,182.629,91.896,181.092,91.652z
		 M307.893,96.275c0.438-0.211,0.878-0.422,1.316-0.632c-1.188-2.356-2.131-4.89-3.644-7.017c-1.249-1.758-3.682-2.705-3.383-5.696
		c-0.251,0.48-0.387,0.763-0.548,1.027c-0.024,0.041-0.161,0.015-0.133,0.013c-0.307-0.93-0.603-1.828-0.897-2.729
		c-0.204,0.046-0.408,0.092-0.611,0.139c0,1.989,0,3.979,0,6.127C304.761,88.336,306.629,92.02,307.893,96.275z M221.247,67.853
		c0.476,0,1.204,0.169,1.814-0.027c4.209-1.354,6.949,0.017,8.269,4.236c0.31,0.988,0.517,2.014,0.877,2.981
		c0.84,2.261,2.341,2.531,4.341,1.33c-2.265,0.037-2.942-1.21-3.562-3.197c-0.67-2.157-1.893-4.323-3.422-5.98
		c-1.455-1.578-3.642-2.09-5.896-0.987c-0.295,0.145-1.035-0.626-1.244-0.762C222.098,66.116,221.799,66.727,221.247,67.853z
		 M142.545,185.067c0.084,4.876,6.292,11.521,8.493,10.221C148.312,192.008,145.562,188.698,142.545,185.067z M87.224,141.098
		c-0.688,1.056-1.557,2.391-2.426,3.726c0.078,0.089,0.158,0.177,0.236,0.266c0.514-0.41,1.026-0.82,1.669-1.334
		c-0.335,4.233,1.771,7.886,4.334,8.584C89.901,148.99,88.659,145.329,87.224,141.098z M330.394,106.768
		c-1.593-0.585-1.373-0.612-1.574-2.206c-0.272-2.156-1.095-4.155-3.669-5.716c0.929,3.834,1.713,7.077,2.521,10.423
		C328.642,108.377,329.437,107.647,330.394,106.768z M256.473,46.646c-0.008-0.279-0.016-0.561-0.022-0.839
		c-0.74,0.109-1.496,0.369-2.219,0.294c-0.997-0.104-2.012-0.358-2.94-0.736c-1.56-0.635-3.057-1.419-4.578-2.14
		C248.762,46.854,253.442,48.223,256.473,46.646z M311.772,86.28c-0.17,0.308-0.34,0.615-0.509,0.923
		c2.236,1.397,4.473,2.795,7.169,4.48c-0.35-1.958-0.586-3.28-0.881-4.931c-0.914,0.383-1.771,0.741-2.38,0.996
		C313.997,87.242,312.886,86.76,311.772,86.28z M136.998,70.972c1.463-3.172-0.572-5.513-2.183-8.09
		c-0.708,0.496-1.282,0.899-1.458,1.022C134.649,66.411,135.803,68.65,136.998,70.972z M81.626,157.561
		c0.3-0.192,0.601-0.386,0.899-0.577c-0.731-2.065-1.464-4.131-2.312-6.521c-1.079,1.576-2.041,2.982-3.07,4.488
		c0.885-0.337,1.757-0.669,2.068-0.788C80.153,155.487,80.89,156.524,81.626,157.561z M301.422,108.035
		c-0.123-0.893-0.274-1.989-0.426-3.085c-0.14,0.029-0.276,0.059-0.415,0.089c-0.327,1.436-0.653,2.87-0.937,4.113
		c2.502,0.937,4.806,1.797,7.105,2.657c0.131-0.229,0.261-0.457,0.391-0.688C305.315,110.138,303.489,109.151,301.422,108.035z"/>
	<path fill="none" stroke="#000000" stroke-miterlimit="10" d="M290.356,235.552c-12.795-16.824-31.185-25.563-48.359-36.92
		c14.606-2.6,26.999,1.514,38.337,9.507c6.535,4.605,12.812,9.529,16.492,17.027c1.086,2.213,0.702,3.671-0.871,5.163
		C294.146,232.045,292.31,233.731,290.356,235.552z"/>
	<path fill="none" stroke="#000000" stroke-miterlimit="10" d="M274.938,188.862c-1.002-0.097-2.002-0.192-3.003-0.289
		c0.005-0.216,0.009-0.432,0.015-0.647c2.803,0,5.604-0.015,8.406,0.005c2.689,0.019,5.465,0.521,8.047,0.015
		c5.416-1.062,9.814,1.006,14.164,3.644c0.485,0.294,1.02,0.549,1.425,0.933c4.88,4.598,9.809,9.146,14.575,13.855
		c2.666,2.635,2.509,2.939-0.217,5.659c-1.49,1.486-2.877,3.075-4.43,4.747c-5.896-9.724-14.747-14.785-24.774-18.426
		c-6.399-2.324-12.955-3.64-19.677-4.016c-7.144-0.399-14.311-0.382-21.114-0.537C256.458,190.306,265.494,188.946,274.938,188.862z
		"/>
	<path fill="none" stroke="#000000" stroke-miterlimit="10" d="M294.241,217.297c-2.322-1.898-5.073-3.462-6.88-5.766
		c-4.062-5.186-10.099-7.504-15.467-10.336c-5.785-3.052-12.688-3.984-18.334-5.618c8.82-1.432,18.426-0.246,27.942,1.962
		c8.116,1.884,15.955,4.62,22.421,10.072c2.938,2.479,5.311,5.643,7.889,8.543c0.998,1.123,0.864,2.086-0.482,3.038
		c-2.688,1.898-5.257,3.966-7.875,5.963c-0.852-0.75-1.692-1.513-2.558-2.246C298.685,221.031,296.461,219.167,294.241,217.297z"/>
	<path fill="none" stroke="#000000" stroke-miterlimit="10" d="M240.713,209.061c-0.226-1.161-0.449-2.322-0.808-4.175
		c0.99,1.118,1.485,1.679,2.295,2.592c-0.375-1.316-0.617-2.17-0.86-3.024c10.104,12.514,20.469,24.662,33.036,34.736
		c-3.501,4.242-4.418,4.521-9.333,2.454c-8.768-3.685-15.855-9.126-19.233-18.456c-0.445-1.228-1.186-2.348-1.789-3.518
		C242.917,216.135,241.815,212.598,240.713,209.061z"/>
	<path fill="none" stroke="#000000" stroke-miterlimit="10" d="M283.478,185.869c-4.333,0.28-8.688,0.382-12.991,0.898
		c-3.466,0.416-6.895,1.237-10.297,2.055c-4.482,1.074-8.925,2.32-12.698,3.312c6.461-8.719,16.93-12.234,26.993-16.405
		c0.852-0.353,1.807-0.562,2.723-0.59c0.301-0.012,0.628,0.754,1.047,1.301c5.995,0.488,12.387,1.011,18.778,1.532
		c0.028,0.146,0.058,0.292,0.085,0.438c-3.779,0.991-7.561,1.982-11.34,2.974c0.044,0.188,0.091,0.377,0.136,0.565
		c3.696-0.923,7.437-1.703,11.074-2.816c2.722-0.833,5.229-0.408,7.753,0.487c0.425,0.15,0.688,0.751,1.024,1.146l0.083-0.077
		c-3.639,0.567-7.29,1.06-10.906,1.746c-1.206,0.229-2.317,0.956-3.473,1.456C288.806,184.55,286.141,185.209,283.478,185.869z"/>
	<path fill="none" stroke="#000000" stroke-miterlimit="10" d="M265.139,228.138c-5.794-6.173-11.656-12.282-17.344-18.552
		c-1.867-2.059-3.284-4.525-4.905-6.807c0.252-0.289,0.505-0.578,0.757-0.866c3.01,1.943,6.02,3.887,9.027,5.83
		c4.464,4.621,8.818,9.354,13.419,13.833c5.354,5.213,10.925,10.205,16.4,15.294c-0.006,0.44-0.012,0.882-0.019,1.323
		c-1.054-0.419-2.108-0.838-3.173-1.25c-0.659-0.518-1.356-0.992-1.953-1.571c-4.959-4.806-9.898-9.631-14.845-14.45
		c-0.205,0.207-0.411,0.414-0.615,0.62c4.952,4.709,9.882,9.441,14.884,14.098c0.668,0.622,1.697,0.853,2.56,1.266
		c-0.325,1.326-1.124,1.38-2.157,0.804C273.163,234.519,269.151,231.328,265.139,228.138z"/>
	<path fill="none" stroke="#000000" stroke-miterlimit="10" d="M264.57,244.029c-6.936-1.072-13.714-2.161-19.227-7.605
		c-10.11-9.985-13.272-21.132-7.076-35.032C237.727,221.774,246.998,235.399,264.57,244.029z"/>
	<path fill="none" stroke="#000000" stroke-miterlimit="10" d="M283.478,185.869c2.663-0.66,5.328-1.319,7.991-1.979
		c4.792-1.067,9.586-2.136,14.379-3.202l-0.083,0.077c3.624,0.853,7.25,1.69,10.867,2.566c0.801,0.193,1.551,0.636,2.355,0.76
		c3.816,0.592,3.836,0.602,4.59,4.821c0.038,0.22,0.791,0.243,1.044,0.514c0.267,0.287,0.33,0.762,0.524,1.263
		c-3.538-0.69-6.853-1.4-10.19-1.971c-2.695-0.46-5.427-0.711-8.132-1.127c-6.761-1.04-13.565-1.197-20.389-1.178
		C285.449,186.417,284.463,186.06,283.478,185.869z"/>
	<path fill="none" stroke="#000000" stroke-miterlimit="10" d="M310.447,196.282c-3.007-2.448-6.013-4.896-9.793-7.974
		c6.357,0.897,11.983,1.659,17.595,2.515c1.102,0.168,2.183,0.615,3.215,1.065c3.885,1.692,4.38,2.261,4.039,6.022
		c-0.179,1.963-0.958,3.873-1.507,5.958c-0.982-0.455-1.656-0.766-2.33-1.076C317.926,200.623,314.186,198.453,310.447,196.282z"/>
	<path fill="none" stroke="#000000" stroke-miterlimit="10" d="M82.925,99.344c0.175,1.9,0.373,4.052,0.602,6.536
		c-0.514-0.337-0.844-0.554-1.265-0.83c0.142,0.759,0.272,1.463,0.469,2.521c-0.812-0.38-1.258-0.588-1.594-0.745
		c0,0.767,0,1.572,0,2.377c-0.402-0.198-0.805-0.396-0.878-0.432c-0.176,1.479-0.369,3.1-0.599,5.03
		c-0.565-0.45-1.006-0.8-1.14-0.906c0.332,1.929,0.715,4.155,1.254,7.292c-1.805-2.087-3.052-3.529-4.299-4.972
		c-0.121,0.069-0.242,0.141-0.363,0.209c0.788,1.274,1.576,2.55,2.271,3.672c-1.223,0.097-2.597,0.521-3.754,0.189
		c-0.823-0.235-1.88-1.458-1.933-2.296c-0.383-6.212,1.471-11.382,7.296-14.59C80.421,101.614,81.606,100.385,82.925,99.344z"/>
	<path stroke="#000000" stroke-miterlimit="10" d="M282.493,236.871c-5.477-5.089-11.047-10.081-16.4-15.294
		c-4.601-4.479-8.955-9.212-13.419-13.833c2.677,1.71,5.354,3.421,8.029,5.131c8.546,7.911,17.091,15.822,25.635,23.733
		C285.195,238.725,283.833,237.63,282.493,236.871z"/>
	<path fill="none" stroke="#000000" stroke-miterlimit="10" d="M246.375,188.032c-1.796,2.058-3.592,4.113-5.933,6.794
		c0-1.379-0.233-2.202,0.037-2.794c1.977-4.299,4.03-8.562,6.129-12.802c0.271-0.551,0.863-1.135,1.432-1.32
		c3.984-1.295,7.998-2.505,12.02-3.678c0.229-0.066,0.62,0.438,0.937,0.676C256.122,179.283,251.249,183.658,246.375,188.032z"/>
	<path fill="none" stroke="#000000" stroke-miterlimit="10" d="M237.681,196.429c-2.957,1.054-3.452-1.297-3.813-3.662
		c-0.272-1.775-0.496-3.577-0.518-5.37c-0.057-5.062,0.226-5.407,5.028-6.486c1.987-0.446,4.013-0.726,5.864-1.053
		C242.124,185.207,239.962,190.668,237.681,196.429z"/>
	<path fill="none" stroke="#000000" stroke-miterlimit="10" d="M280.237,55.764c6.755-2.073,11.265,1.436,15.465,5.37
		c1.843,1.727,3.829,3.775,2.7,6.597c-1.767-0.091-3.293-0.229-4.818-0.231c-1.641-0.004-2.866-0.109-3.929-1.898
		c-1.479-2.49-3.599-4.624-5.586-6.778C283.077,57.746,281.767,56.963,280.237,55.764z"/>
	<path fill="none" stroke="#000000" stroke-miterlimit="10" d="M232.918,195.979c-2.379-1.873-4.649-3.662-6.947-5.473
		c-0.629,2.6-0.629,2.6,3.682,6.693c-2.745,1.859-6.477-0.534-8.828-5.791c3.727-2.504,7.479-5.027,11.203-7.529
		C232.316,187.797,232.601,191.66,232.918,195.979z"/>
	<path fill="none" stroke="#000000" stroke-miterlimit="10" d="M301.009,68.907c4.408-4.342,10.067-1.376,13.184,7.041
		c-1.014,0.827-1.89,2.069-2.948,2.254c-1.035,0.18-2.258-0.72-3.605-1.223C305.658,74.567,303.34,71.746,301.009,68.907z"/>
	<path fill="none" stroke="#000000" stroke-miterlimit="10" d="M286.338,236.608c-8.544-7.911-17.089-15.822-25.635-23.733
		c0.616,0.107,1.348,0.036,1.833,0.349c9.56,6.127,18.548,12.931,25.622,21.959c0.219,0.278,0.371,0.61,0.855,1.427
		C287.849,236.608,287.093,236.608,286.338,236.608z"/>
	<path fill="none" stroke="#000000" stroke-miterlimit="10" d="M266.324,174.561c2.342-1.905,4.768-0.986,8.053-0.192
		c-2.163,0.822-3.682,1.216-5.02,1.938c-6.093,3.291-12.133,6.681-18.2,10.018c-0.802,0.441-1.653,0.791-2.48,1.183
		c1.397-1.35,2.647-2.908,4.221-4.009C257.302,180.417,261.839,177.526,266.324,174.561z"/>
	<path stroke="#000000" stroke-miterlimit="10" d="M266.324,174.561c-4.485,2.966-9.022,5.855-13.428,8.938
		c-1.572,1.101-2.822,2.659-4.221,4.009c-0.768,0.176-1.535,0.352-2.302,0.525c4.874-4.374,9.747-8.749,14.62-13.124
		C262.718,173.969,264.428,172.835,266.324,174.561z"/>
	<path fill="none" stroke="#000000" stroke-miterlimit="10" d="M310.447,196.282c3.738,2.171,7.479,4.341,11.219,6.512
		c0.565,0.602,1.133,1.202,1.837,1.948c-0.506,0.771-0.992,1.511-1.502,2.287c-3.656-3.041-7.125-5.878-10.521-8.801
		C310.961,197.782,310.783,196.94,310.447,196.282z"/>
	<path fill="none" stroke="#000000" stroke-miterlimit="10" d="M215.674,193.694c1.275-0.637,2.552-1.274,3.621-1.807
		c1.669,2.242,3.216,4.322,4.732,6.361C221.33,199.655,217.329,197.645,215.674,193.694z"/>
	<path fill="none" stroke="#000000" stroke-miterlimit="10" d="M343.988,151.341c0.367-0.604,0.734-1.212,1.102-1.816
		c0.416,0.146,0.831,0.292,1.247,0.438c-0.369,3.491-0.738,6.982-1.153,10.911c-2.563-3.207-2.656-7.479-0.565-8.893
		C344.407,151.768,344.198,151.554,343.988,151.341z"/>
	<path fill="none" stroke="#000000" stroke-miterlimit="10" d="M294.241,217.297c2.22,1.87,4.442,3.734,6.656,5.612
		c0.864,0.733,1.706,1.496,2.558,2.246c-1.083,1.392-2.197,1.706-3.374,0.101C298.138,222.602,296.188,219.949,294.241,217.297z"/>
	<path fill="none" stroke="#000000" stroke-miterlimit="10" d="M240.713,209.061c1.103,3.537,2.204,7.073,3.308,10.609
		c0.754,2.168,1.508,4.336,2.263,6.503c-3.546-4.745-5.617-10.052-6.138-15.931C240.112,209.868,240.514,209.455,240.713,209.061z"
		/>
	<path fill="none" stroke="#000000" stroke-miterlimit="10" d="M265.139,228.138c4.013,3.189,8.024,6.381,12.036,9.57
		c-0.521,0.152-1.301,0.606-1.525,0.413c-3.493-3.002-6.921-6.083-10.34-9.171C265.144,228.801,265.191,228.414,265.139,228.138z"/>
	<path stroke="#000000" stroke-miterlimit="10" d="M259.974,95.754c4.249-2.756,7.699-0.595,11.232,0.985c-3.387,0-6.771,0-10.503,0
		c0.553,0.984,0.746,1.33,0.94,1.677c-3.736,1.291-2.95,5.415-4.902,7.879c-1.999,2.523-2.785,5.825-5.751,7.872
		c-0.997,0.688-2.034,1.8-3.596,2.647c0.601,0.318,0.927,0.493,1.256,0.665c-2.187,0.97-1.896,3.386,0.638,4.951
		c1.014,0.627,2.097,1.142,3.236,1.757c-2.401,1.217-3.945,0.441-6.703-3.254c-2.596,2.729-5.882,3.369-9.514,3.304
		c-1.321-0.023-2.672,0.802-3.986,1.303c-2.194,0.835-4.371,1.72-6.794,2.678c0.762,0.274,1.555,0.562,2.492,0.898
		c-0.271,0.104-0.457,0.224-0.651,0.238c-0.948,0.073-1.896,0.118-2.849,0.173c0.634,0.793,1.269,1.586,1.896,2.375
		c-0.628-0.204-1.405-0.456-2.278-0.74c-0.478,2.651-0.938,5.215-1.401,7.777c-0.308-0.021-0.614-0.041-0.923-0.062
		c0.183-3.439,0.363-6.882,0.543-10.269c-0.304,0.025-1.127,0.098-1.947,0.167c-0.036-0.087-0.072-0.174-0.107-0.261
		c0.854-0.346,1.706-0.688,2.774-1.12c-1.751-0.987-3.28-1.851-4.949-2.791c-0.318-1.41-0.727-3.216-1.131-5.021
		c3.057,3.076,5.489,6.572,10.62,6.631c-0.429-1.05-0.754-1.851-1.175-2.882c1.058,0.896,1.903,1.615,2.75,2.334
		c0.184-0.184,0.364-0.367,0.547-0.551c-0.376-0.514-0.752-1.027-0.966-1.32c1.329,0.125,2.709,0.254,4.09,0.383
		c0.16-0.355,0.319-0.712,0.479-1.065c-1.136-0.703-2.272-1.406-3.409-2.108c0.258-0.337,0.518-0.673,0.773-1.009
		c1.493,0.622,2.984,1.246,4.562,1.904c0.022-0.444,0.041-0.831,0.057-1.14c1.26,0.693,2.498,1.376,3.736,2.059
		c0.134-0.191,0.269-0.383,0.401-0.574c-0.485-0.64-0.971-1.28-1.64-2.16c1.517,0.74,2.799,1.366,4.079,1.992
		c0.114-0.187,0.229-0.373,0.342-0.56c-0.264-0.369-0.524-0.738-0.788-1.107c2.627-1.602,2.627-1.602,1.921-2.322
		c0.481-0.075,0.941-0.139,1.396-0.229c0.062-0.012,0.096-0.153,0.172-0.287c-0.833-0.204-1.65-0.405-3.18-0.78
		c1.987-0.244,3.227-0.396,5.245-0.645c-1.214-0.703-1.725-0.998-2.264-1.312c0.121-0.1,0.242-0.278,0.336-0.267
		c3.553,0.512,5.644-2.035,7.091-4.344c2.491-3.979,4.261-8.417,6.179-12.731c0.229-0.518-0.362-1.562-0.813-2.192
		c-1.488-2.077-3.086-4.077-4.743-6.239c-2.966,0.894-5.966,1.214-8.188-1.949c0.275-0.162,0.49-0.341,0.536-0.306
		c2.017,1.586,4.555,2.651,6.481,0.892c1.246-1.138,1.694-3.767,1.556-5.656c-0.206-2.793-1.459-5.493-1.885-8.29
		c-0.406-2.664-0.267-5.406-0.492-8.104c-0.071-0.846-0.448-1.712-0.865-2.471c-0.604-1.098-1.37-2.104-1.761-3.52
		c2.135,2.289,4.551,3.613,8.021,3.246c-2.836,2.062-4.87,4.151-3.906,7.865c0.677-0.637,1.302-1.224,2.396-2.253
		c-0.924,1.793-1.562,3.03-2.2,4.269c0.14,0.11,0.278,0.221,0.418,0.331c0.681-0.472,1.361-0.942,1.833-1.269
		c-0.359,1.21-0.735,2.478-1.111,3.745c1.614,0.158-1.142,3.903,1.705,2.729c0,1.095,0,2.26,0,3.425
		c0.178-0.019,0.355-0.037,0.535-0.056c-0.36,1.004-0.722,2.007-1.239,3.452c1.005-0.336,1.51-0.504,2.493-0.831
		c-1.27,1.382-2.161,2.354-3.118,3.396c0.658,1.154,1.271,2.23,2.379,4.175c0.485-1.218,0.789-1.979,1.093-2.741
		c0.058,0.14,0.112,0.278,0.168,0.419c-0.103,1.085-0.205,2.17-0.308,3.255c0.555-0.167,1.109-0.335,1.234-0.373
		C259.038,93.538,259.492,94.613,259.974,95.754z"/>
	<path stroke="#000000" stroke-miterlimit="10" d="M201.114,42.518c-0.892,3.254,1.296,3.91,4.08,4.061
		c-0.165,0.237-0.328,0.476-0.493,0.712c-0.651,0.276-1.291,0.586-1.957,0.822c-3.646,1.299-7.28,2.642-10.961,3.842
		c-1.871,0.611-3.812,1.256-5.75,1.369c-8.604,0.502-14.982,7.347-14.72,15.984c0.021,0.646-0.067,1.326-0.257,1.945
		c-1.242,4.089-2.526,8.164-3.796,12.244c0.326-0.021,0.652-0.045,0.979-0.066c0.172,0.521,0.343,1.041,0.514,1.56
		c0.792,0.18,1.705,0.388,2.941,0.669c-0.52,0.577-0.797,1.162-1.095,1.173c-5.246,0.185-6.062,4.371-7.459,8.089
		c-0.443,1.181-0.932,2.441-1.741,3.367c-3.772,4.321-4.263,10.625-0.785,15.247c1.009,1.339,2.674,2.186,4.134,3.333
		c-1.127,0.455-2.571,1.037-3.846,1.551c-0.527-1.144-0.827-2.276-1.483-3.138c-4.184-5.485-4.221-13.854,0.845-18.52
		c0.7-0.646,0.583-2.103,1.063-3.074c1.32-2.674,3.129-5.168,4.043-7.963c0.882-2.694,0.761-5.701,1.335-8.52
		c0.275-1.358,1.274-2.557,1.693-3.905c0.428-1.375,0.573-2.841,0.782-4.275c0.096-0.652-0.164-1.427,0.097-1.975
		c1.784-3.732,3.26-7.708,5.624-11.045c2.497-3.523,6.729-3.985,10.884-4.716c4.299-0.755,8.396-2.725,12.517-4.327
		c0.503-0.195,0.612-1.413,0.899-2.156c0.309-0.798,0.612-1.596,0.918-2.393C200.45,42.448,200.782,42.483,201.114,42.518z"/>
	<path stroke="#000000" stroke-miterlimit="10" d="M204.171,64.056c-3.036,1.566-6.216,3.009-9.174,4.814
		c-1.76,1.074-2.77,2.704-1.631,5.091c0.8,1.677,1.162,3.604,1.447,5.459c0.107,0.707-0.546,1.531-0.895,2.407
		c3.518,1.333,6.12,3.557,6.748,7.367c0.138,0.838-0.682,1.835-1.061,2.759c-0.385-0.794-1.116-1.6-1.092-2.38
		c0.097-2.844-1.485-4.666-3.788-5.456c-2.823-0.969-3.108-2.955-3.115-5.305c-0.008-3.546-0.094-7.07-2.705-9.882
		c-0.702-0.756-1.65-1.292-2.307-2.079c-0.539-0.646-0.81-1.517-1.2-2.285c0.197-0.122,0.396-0.245,0.592-0.367
		c0.525,0.629,1.053,1.257,1.793,2.143c0.252-0.961,0.399-1.524,0.501-1.909c0.6,1.331,1.227,2.721,1.854,4.111
		c0.206-0.064,0.413-0.131,0.619-0.195c-0.06-1.244-0.119-2.49-0.18-3.735c0.163-0.023,0.327-0.047,0.488-0.07
		c0.2,1.479,0.399,2.959,0.601,4.438c0.221,0.076,0.442,0.15,0.664,0.227c0.442-1.073,0.887-2.146,1.266-3.062
		c0.06,0.194,0.199,0.672,0.497,1.682c0.928-3.039,3.822-2.692,5.687-4.15c2.354-1.842,4.586-4.164,7.668-5.229
		c3.308-1.141,6.418-2.849,9.609-4.319c0.589-0.271,1.157-0.588,1.456-0.739c-0.471-3.021-0.836-5.821-1.389-8.584
		c-0.134-0.671-0.77-1.538-1.375-1.763c-2.026-0.747-4.146-1.242-6.229-1.833c0.02-0.246,0.036-0.493,0.056-0.738
		c2.502,0.253,5.005,0.506,7.688,0.776c-0.036,0.137,0.104-0.396,0.281-1.069c0.218,0.648,0.392,1.164,0.572,1.704
		c2.858-2.114,5.234-2.371,6.066-1.058c-1.856,1.085-3.728,2.178-5.597,3.271c0.047,0.163,0.094,0.327,0.142,0.49
		c0.646-0.028,1.295-0.06,2.317-0.105c-1.169,0.751-1.953,1.254-2.737,1.757c0.083,0.206,0.164,0.412,0.246,0.618
		c0.633-0.042,1.268-0.083,1.994-0.13c-0.566,0.728-1.097,1.406-2.166,2.779c1.426-0.538,2.11-0.796,3.102-1.171
		c-0.888,1.062-1.501,1.795-2.114,2.528c0.12,0.169,0.238,0.338,0.358,0.507c0.603-0.217,1.204-0.434,2.053-0.739
		c-0.556,0.751-0.955,1.293-1.564,2.119c0.91-0.069,1.466-0.111,2.021-0.154c0.071,0.223,0.145,0.443,0.218,0.666
		c-4.213,1.926-8.443,3.812-12.628,5.797c-1.643,0.776-3.28,1.639-4.717,2.729C204.505,62.25,204.421,63.404,204.171,64.056z"/>
	<path stroke="#000000" stroke-miterlimit="10" d="M270.131,71.632c2.316-3.02,7.854-2.393,7.486-7.928
		c0.391,1.674,0.78,3.347,1.104,4.729c-1.549,0.903-3.34,1.918-5.098,2.983c-1.704,1.033-2.547,2.466-1.879,4.545
		c0.393-0.207,0.781-0.411,1.344-0.706c-0.35,0.893-0.638,1.634-0.953,2.441c1.014,0.172,1.852,0.313,2.758,0.468
		c-0.141,0.71-0.276,1.4-0.446,2.249c3.485,0,6.748,0,10.075,0c0.012,0.054,0.131,0.629,0.249,1.204
		c0.67-0.302,1.339-0.604,1.441-0.649c0.946,1.253,1.976,2.525,2.909,3.866c2.973,4.271,6.641,8.077,8.71,12.954
		c0.216,0.51,0.353,1.053,0.525,1.58c-0.429,0.38-0.857,0.761-1.286,1.141c-0.768-1.273-1.505-2.567-2.31-3.817
		c-1.646-2.557-3.263-5.136-5.013-7.619c-4.047-5.74-7.743-7.081-14.494-5.396c-0.537,0.136-1.075,0.276-1.579,0.406
		c-1.458-2.598-3.067-5.006-4.203-7.622c-1.108-2.546-1.729-5.303-1.982-8.277C268.241,69.162,268.99,70.141,270.131,71.632z"/>
	<path stroke="#000000" stroke-miterlimit="10" d="M169.011,164.999c0.182,0.055-0.211-0.061-0.97-0.282
		c0.654,3.042,1.268,5.883,2.082,9.657c-1.088-0.925-2.078-1.346-2.22-1.962c-0.562-2.466-1.265-5.008-1.171-7.493
		c0.157-4.159-2.924-7.767-7.181-7.728c-3.62,0.033-5.439-0.655-8.706-3.824c2.231,0.74,4.463,1.479,6.932,2.297
		c-0.147-0.607-0.28-1.155-0.417-1.714c0.146,0,0.3-0.033,0.432,0.005c1.324,0.387,2.63,0.847,3.972,1.148
		c0.579,0.13,1.508-0.349,1.8-0.062c1.147,1.125,2.105,2.444,2.603,3.046c1.015,0.245,1.409,0.291,1.761,0.438
		c0.508,0.21,0.985,0.493,1.476,0.746c0.168-0.569,0.335-1.14,0.511-1.729c0.737,0.244,2.2,2.506,2.365-0.607
		c2.918,2.062,5.815-0.227,9.269-0.189c-2.979,2.96-6.375,3.204-10.075,3.486c0.53,0.731,0.965,1.333,1.4,1.934
		c-0.075,0.077-0.149,0.154-0.225,0.232c-0.759-0.604-1.517-1.208-3.083-2.454C169.329,162.087,169.167,163.564,169.011,164.999z"/>
	<path stroke="#000000" stroke-miterlimit="10" d="M191.699,182.545c-2.229-2.725-4.409-5.389-6.59-8.052
		c0.176-0.158,0.352-0.316,0.526-0.474c2.736,2.551,5.09,5.93,8.316,7.423c3.312,1.533,7.478,1.224,11.575,1.761
		c-2.363,1.577-4.98,1.231-7.859,0.845c0.195,0.941,0.352,1.684,0.554,2.652c-1.105-1.309-2.038-2.409-2.969-3.511
		c-0.187,0.158-0.371,0.314-0.557,0.473c0.314,1.507,0.629,3.013,0.942,4.52c-0.15,0.037-0.301,0.075-0.451,0.113
		c-0.472-1.312-0.941-2.626-1.414-3.938c-0.185,0.009-0.37,0.017-0.556,0.023c0,1.307,0,2.61,0,4.282
		c-0.592-0.767-0.956-1.239-1.627-2.107c-0.4,1.312-0.702,2.302-0.8,2.62c-5.355,3.11-10.695,5.433-16.894,3.077
		C181.186,191.348,188.626,190.825,191.699,182.545z"/>
	<path stroke="#000000" stroke-miterlimit="10" d="M264.437,154.563c0.165,0.525,0.324,1.032,0.518,1.641
		c2.456-3.899,5.009-7.47,9.689-8.876c-0.36,0.406-0.722,0.812-1.083,1.218c-1.621,1.812-5.079,2.299-4.225,5.949
		c0.081,0.347-0.815,0.922-1.343,1.481c5.351,1.559,10.361,3.507,15.093,6.083c-0.134,0.352-0.269,0.703-0.4,1.055
		c-1.884-0.656-3.921-1.042-5.622-2.015c-7.361-4.209-14.367-3.938-21.27,1.045c-1.307,0.94-3.002,1.338-4.518,1.985
		c-0.176-0.31-0.351-0.617-0.525-0.927c1.483-0.886,2.926-1.854,4.463-2.637c2.77-1.407,5.627-2.645,8.368-4.101
		C264.062,156.213,264.154,155.233,264.437,154.563z"/>
	<path stroke="#000000" stroke-miterlimit="10" d="M224.983,53.367c3.009-1.566,5.906-1.845,8.503,0.639
		c5.071-5.116,16.994-3.602,21.27,0.122c-0.727-0.146-1.446-0.338-2.18-0.431c-3.742-0.474-7.507-1.406-11.228-1.266
		c-5.271,0.198-6.469,2.114-5.819,7.858c0.645-0.684,1.143-1.211,2.056-2.18c-0.469,1.233-0.713,1.876-1.186,3.12
		c1.084-0.575,1.645-0.872,1.85-0.98c1.615,2.044,3.221,4.072,4.823,6.103c-0.228,0.204-0.455,0.407-0.684,0.61
		c-1.396-1.264-2.598-2.986-4.236-3.69c-3.005-1.291-4.517-3.134-4.752-6.444c-0.181-2.535-2.396-3.212-4.582-3.438
		C227.554,53.26,226.263,53.367,224.983,53.367z"/>
	<path stroke="#000000" stroke-miterlimit="10" d="M190.122,142.467c0.379,1.16,0.757,2.319,1.021,3.124
		c2.971-1.365,6.032-2.773,9.096-4.183c0.301,0.456,0.601,0.913,0.899,1.368c-5.327,0.782-8.297,4.16-10.381,8.541
		c0.968-0.805,1.936-1.608,2.903-2.413c0.132,0.116,0.263,0.231,0.395,0.35c-1.17,1.295-2.339,2.59-3.509,3.886
		c0.103,0.112,0.205,0.225,0.307,0.337c1.082-0.923,2.162-1.846,3.244-2.769c0.098,0.083,0.196,0.166,0.294,0.249
		c-0.657,0.81-1.312,1.617-1.754,2.16c1.119,0.571,2.187,1.116,3.252,1.66c-0.092,0.18-0.185,0.36-0.277,0.54
		c-3.425,0.199-6.851,0.396-11.061,0.642c4.748-3.637,5.479-8.297,4.614-13.477C189.484,142.477,189.803,142.472,190.122,142.467z"
		/>
	<path stroke="#000000" stroke-miterlimit="10" d="M119.912,87.773c-3.413-0.239-7.009-1.085-10.413-0.604
		c-6.099,0.865-10.67,4.332-13.407,10.053c-0.819,1.711-2.88,3.216-2.897,4.831c-0.025,2.348-1.962,2.794-2.722,4.261
		c1.231-6.941,4.729-12.543,10.275-16.812c5.331-4.1,11.576-4.942,18.265-3.854C119.147,85.966,119.583,86.996,119.912,87.773z"/>
	<path stroke="#000000" stroke-miterlimit="10" d="M290.522,153.072c0.286-0.449,0.572-0.899,0.851-1.335
		c0.324,0.558,0.536,1.455,0.967,1.577c6.356,1.798,11.881,5.049,17.022,9.145c1.956,1.56,4.373,2.543,6.596,3.762
		c0.783,0.43,1.609,0.773,2.417,1.157c-0.154,0.362-0.311,0.727-0.463,1.088c-2.637-1.05-5.761-1.521-7.816-3.257
		c-6.291-5.312-13.188-9.18-21.158-11.25c-2.527-0.655-2.437-3.09,0.216-5.37c-0.303,1.336-0.575,2.544-0.851,3.753
		c0.171,0.075,0.342,0.149,0.514,0.226c0.34-0.551,0.683-1.104,1.279-2.071c-0.061,1.111-0.099,1.788-0.135,2.464
		C290.147,152.997,290.334,153.035,290.522,153.072z"/>
	<path stroke="#000000" stroke-miterlimit="10" d="M224.919,166.979c-2.261,3.616-3.236,3.907-19.457,6.258
		c-1.657-1.729-3.104-3.463-4.783-4.927c-1.621-1.412-3.485-2.546-5.125-4.236c0.631,0.125,1.39,0.068,1.871,0.406
		c2.334,1.64,4.992,2.845,6.797,5.208c1.597,2.09,3.807,1.002,5.655,0.649c4.271-0.813,8.479-1.969,12.715-2.971
		C223.199,167.223,223.827,167.157,224.919,166.979z"/>
	<path stroke="#000000" stroke-miterlimit="10" d="M142.942,78.101c0.326-0.518,0.482-0.942,0.78-1.208
		c4.039-3.596,5.028-7.963,2.979-12.88c-0.877-2.106-2.151-3.262-4.574-2.6c-0.923,0.252-1.895,0.332-2.842,0.491
		c-0.053-0.293-0.104-0.586-0.156-0.879c1.947-0.382,3.896-0.764,5.992-1.175c0.504-0.896,1.123-1.997,1.744-3.101
		c0.258,0.056,0.518,0.108,0.775,0.163c0,1.658,0,3.317,0,5.168c0.796-1.158,1.556-2.263,2.314-3.367
		c0.104,0.053,0.209,0.104,0.312,0.157c-0.729,1.541-1.46,3.081-2.462,5.195c1.045-0.393,1.472-0.551,1.751-0.656
		c0,1.649-0.312,3.422,0.061,5.035C150.653,72.931,147.966,77.142,142.942,78.101z"/>
	<path stroke="#000000" stroke-miterlimit="10" d="M205.701,135.875c0.815-1.211,1.17-1.733,1.998-2.963
		c-0.397,1.612-0.6,2.427-0.801,3.24c0.229,0.194,0.458,0.39,0.688,0.584c1.003-1.015,2.006-2.03,3.476-3.519
		c-0.631,1.385-1.004,2.203-1.42,3.115c3.006,0.648,5.868,1.267,8.731,1.883c-0.043,0.398-0.088,0.798-0.132,1.195
		c-4.903,0.736-10.082-3.527-14.755,0.88c-0.064-0.657-0.753-7.525-0.753-7.525c-0.314-2.042-0.838-4.128,0.94-5.959
		C204.343,129.794,204.938,132.456,205.701,135.875z"/>
	<path stroke="#000000" stroke-miterlimit="10" d="M143.184,176.375c-0.761-1.225-1.177-1.893-1.605-2.585
		c0.762-0.92,1.687-2.037,3.17-3.831c-1.48,0.363-2.104,0.518-2.729,0.668c-0.05-0.121-0.1-0.242-0.148-0.362
		c1.123-0.472,2.247-0.94,3.37-1.411c-0.066-0.219-0.135-0.437-0.201-0.653c-1.406,0.432-2.813,0.863-4.221,1.295
		c-0.059-0.124-0.115-0.248-0.175-0.372c1.34-0.566,2.681-1.134,4.198-1.775c-1.022-0.857-2.044-1.714-2.908-2.438
		c-0.603-1.424-1.227-2.897-1.851-4.373c0.237-0.119,0.477-0.238,0.715-0.355c1.417,1.722,2.831,3.444,4.252,5.162
		c1.144,1.385,2.349,2.183,4.406,1.786c2.015-0.388,4.161-0.084,6.372,0.507C149.443,167.346,144.328,168.681,143.184,176.375z"/>
	<path stroke="#000000" stroke-miterlimit="10" d="M79.578,135.923c0-1.773,0-2.946,0-4.226c2.367,2.958,4.473,5.585,6.742,8.421
		c-1.473,1.163-3.074,2.571-4.822,3.766c-1.612,1.102-1.899,3.898-4.936,3.264c1.934-2.093,3.866-4.187,5.894-6.379
		c-1.323-0.65-2.871-1.41-4.419-2.17c0.045-0.124,0.09-0.248,0.134-0.373c2.043,0.7,4.085,1.4,6.128,2.103
		c0.031-0.111,0.062-0.223,0.093-0.335C82.689,138.554,80.987,137.114,79.578,135.923z"/>
	<path stroke="#000000" stroke-miterlimit="10" d="M181.092,91.652c1.537,0.244,2.839,0.452,4.342,0.69
		c-0.074-0.901-0.146-1.784-0.22-2.667c0.129-0.04,0.258-0.079,0.387-0.12c0.683,1.423,1.17,2.987,2.086,4.239
		c1.812,2.475,4.329,4.403,5.505,7.403c0.166,0.424,1.458,0.439,2.24,0.582c1.197,0.218,2.405,0.382,3.608,0.569
		c-0.028,0.231-0.056,0.465-0.082,0.695c-1.646,0.174-3.293,0.489-4.934,0.45c-0.646-0.016-1.424-0.705-1.886-1.288
		c-1.583-2.002-2.825-4.327-4.631-6.083C185.759,94.424,183.475,93.271,181.092,91.652z"/>
	<path stroke="#000000" stroke-miterlimit="10" d="M307.893,96.275c-1.264-4.256-3.132-7.939-7.898-8.768c0-2.146,0-4.138,0-6.127
		c0.204-0.047,0.407-0.093,0.611-0.139c0.296,0.899,0.593,1.799,0.897,2.729c-0.028,0.002,0.107,0.028,0.133-0.013
		c0.161-0.266,0.297-0.547,0.548-1.027c-0.299,2.991,2.134,3.938,3.383,5.696c1.513,2.127,2.454,4.659,3.644,7.017
		C308.771,95.854,308.331,96.064,307.893,96.275z"/>
	<path stroke="#000000" stroke-miterlimit="10" d="M221.247,67.853c0.552-1.126,0.851-1.736,1.178-2.406
		c0.209,0.136,0.949,0.905,1.244,0.762c2.255-1.103,4.44-0.591,5.896,0.987c1.529,1.657,2.752,3.823,3.422,5.98
		c0.618,1.987,1.297,3.234,3.562,3.197c-2,1.201-3.501,0.931-4.341-1.33c-0.36-0.969-0.567-1.993-0.877-2.981
		c-1.318-4.221-4.06-5.591-8.269-4.236C222.451,68.021,221.723,67.853,221.247,67.853z"/>
	<path stroke="#000000" stroke-miterlimit="10" d="M142.545,185.067c3.017,3.631,5.767,6.939,8.493,10.221
		C148.837,196.589,142.629,189.943,142.545,185.067z"/>
	<path stroke="#000000" stroke-miterlimit="10" d="M87.224,141.098c1.437,4.23,2.678,7.893,3.813,11.24
		c-2.562-0.698-4.669-4.351-4.334-8.584c-0.643,0.514-1.155,0.924-1.669,1.334c-0.078-0.089-0.158-0.177-0.236-0.266
		C85.667,143.488,86.536,142.153,87.224,141.098z"/>
	<path stroke="#000000" stroke-miterlimit="10" d="M330.394,106.768c-0.957,0.88-1.752,1.608-2.722,2.501
		c-0.81-3.346-1.594-6.589-2.521-10.423c2.574,1.561,3.396,3.56,3.669,5.716C329.021,106.155,328.801,106.183,330.394,106.768z"/>
	<path fill="none" stroke="#000000" stroke-miterlimit="10" d="M256.473,46.646c-3.03,1.576-7.711,0.208-9.761-3.421
		c1.521,0.721,3.02,1.505,4.578,2.14c0.93,0.378,1.943,0.632,2.94,0.736c0.723,0.075,1.479-0.185,2.218-0.294
		C256.457,46.087,256.465,46.367,256.473,46.646z"/>
	<path stroke="#000000" stroke-miterlimit="10" d="M311.772,86.28c1.113,0.479,2.226,0.962,3.399,1.47
		c0.607-0.255,1.466-0.612,2.38-0.996c0.295,1.649,0.531,2.973,0.881,4.931c-2.696-1.687-4.933-3.083-7.169-4.48
		C311.433,86.896,311.603,86.588,311.772,86.28z"/>
	<path stroke="#000000" stroke-miterlimit="10" d="M136.998,70.972c-1.195-2.321-2.35-4.562-3.641-7.066
		c0.176-0.123,0.75-0.526,1.458-1.022C136.426,65.46,138.461,67.801,136.998,70.972z"/>
	<path stroke="#000000" stroke-miterlimit="10" d="M81.626,157.561c-0.736-1.036-1.474-2.073-2.413-3.396
		c-0.312,0.119-1.185,0.451-2.068,0.788c1.029-1.506,1.991-2.912,3.07-4.488c0.848,2.39,1.579,4.454,2.312,6.521
		C82.227,157.176,81.926,157.368,81.626,157.561z"/>
	<path stroke="#000000" stroke-miterlimit="10" d="M301.422,108.035c2.066,1.116,3.894,2.104,5.72,3.088
		c-0.13,0.229-0.26,0.458-0.391,0.688c-2.301-0.86-4.604-1.722-7.105-2.657c0.282-1.243,0.608-2.679,0.937-4.113
		c0.139-0.03,0.275-0.06,0.415-0.089C301.147,106.046,301.299,107.143,301.422,108.035z"/>
	<path fill="#FFFFFF" stroke="#000000" stroke-miterlimit="10" d="M305.848,180.688c-4.793,1.066-9.587,2.135-14.379,3.202
		c1.154-0.5,2.267-1.228,3.473-1.456C298.558,181.747,302.209,181.256,305.848,180.688z"/>
	<path fill="none" stroke="#000000" stroke-miterlimit="10" d="M279.332,236.905c-0.861-0.413-1.892-0.644-2.56-1.266
		c-5.002-4.655-9.932-9.389-14.884-14.098c0.204-0.206,0.41-0.413,0.615-0.62c4.945,4.819,9.886,9.646,14.845,14.45
		c0.597,0.579,1.294,1.055,1.953,1.571C279.312,236.938,279.332,236.905,279.332,236.905z"/>
</g>
<text transform="matrix(1 0 0 1 358.5764 89.5554)" font-family="'MyriadPro-Regular'" font-size="12">Motion visibility</text>
<text transform="matrix(1 0 0 1 318.4417 24.8328)" font-family="'MyriadPro-Regular'" font-size="12">Mechanisms of attention</text>
<text transform="matrix(1 0 0 1 1.1184 66.9265)" font-family="'MyriadPro-Regular'" font-size="12">Dan Birman</text>
<text transform="matrix(1 0 0 1 113.7688 9.1941)" font-family="'MyriadPro-Regular'" font-size="12">Predicting intentions</text>
<text transform="matrix(1 0 0 1 367.219 225.155)" font-family="'MyriadPro-Regular'" font-size="12">Climbing</text>
<text transform="matrix(1 0 0 1 35.2805 221.8152)" font-family="'MyriadPro-Regular'" font-size="12">Teaching and tutorials</text>
<g opacity="0">
	<polygon fill="#848383" points="131.267,159.512 133.568,153.304 133.251,145.064 136.29,131.082 133.172,112.97 135.43,108.38 
		130.405,102.482 135.029,87.392 132.268,79.632 136.106,69.241 134.612,57.668 124.779,59.858 113.726,70.417 111.061,77.307 
		108.716,74.135 97.576,77.583 86.465,93.107 82.925,99.344 73.115,108.38 68.603,118.419 68.455,131.697 71.65,146.719 
		73.408,155.959 86.62,161.427 93.033,164.024 100.928,163.871 110,168.654 121.495,164.131 	"/>
	<polygon fill="#848383" points="201.138,40.02 198.301,46.963 186.032,53.323 174.901,56.006 168.398,73.301 160.263,96.762 
		156.38,106.314 160.902,118.419 169.986,130.356 181.092,121.538 181.663,114.187 173.514,106.135 185.434,92.344 193.92,81.828 
		191.668,68.98 199.78,63.675 212.892,56.125 218.515,53.387 218.59,44.095 217.547,40.177 209.186,35.682 	"/>
	<polygon fill="#848383" points="274.695,53.268 260.703,55.148 252.674,62.632 254.007,87.706 259.974,95.754 267.491,95.765 
		297.072,100.51 307.893,96.275 318.433,91.684 320.482,81.243 312.467,70.972 304.312,65.446 296,59.657 287.1,55.148 	"/>
	<path fill="#848383" d="M306.933,148.323c0,0,11.264-1.354,10.042-3.657s0-5.727,0-5.727l10.328-4.504l0.383-5.557l-5.957-10.328
		l-8.414-2.55l-5.714,2.417l-17.091,3.521l-14.585-5.394l-6.206,10.26l-2.228,9.942l-1.167,19.209l7.549,1.948l8.812,5.207
		l20.052-3.253l1.864-5.803L306.933,148.323z"/>
	<polyline fill="#848383" points="237.681,196.429 249.834,185.688 268.029,171.785 284.415,173.846 304.739,179.62 
		318.988,184.092 326.018,186.207 325.146,194.261 325.591,200.793 323.502,204.742 322,207.029 318.433,215.177 309.209,222.71 
		303.455,225.155 299.646,228.934 290.356,235.552 286.578,239.728 275.646,241.797 269.506,244.029 254.755,244.029 
		244.242,238.997 237.681,228.138 233.344,212.875 	"/>
	<polygon fill="#848383" points="162.306,200.208 175.646,207.421 192.703,204.34 205.554,196.688 220.999,187.002 233.806,179.857 
		243.295,176.457 252.674,173.236 253.945,163.114 229.056,160.965 209.877,170.338 191.491,179.857 168.854,192.411 	"/>
</g>
<g>
	<circle fill="#FF0000" stroke="#FF0000" stroke-miterlimit="10" cx="14.957" cy="74.602" r="4.025"/>
	<circle fill="#FF0000" cx="386" cy="96.899" r="4.025"/>
	<circle fill="#FF0000" cx="363.667" cy="32.778" r="4.025"/>
	<circle fill="#FF0000" cx="141.315" cy="14.695" r="4.025"/>
	<circle fill="#FF0000" cx="119.912" cy="230.7" r="4.025"/>
	<circle fill="#FF0000" cx="384.355" cy="231.657" r="4.025"/>
</g>
</svg>
