<?xml version="1.0" encoding="utf-8"?>
<!-- Generator: Adobe Illustrator 16.0.0, SVG Export Plug-In . SVG Version: 6.00 Build 0)  -->
<!DOCTYPE svg PUBLIC "-//W3C//DTD SVG 1.1//EN" "http://www.w3.org/Graphics/SVG/1.1/DTD/svg11.dtd">
<svg version="1.1" id="Layer_1" xmlns="http://www.w3.org/2000/svg" xmlns:xlink="http://www.w3.org/1999/xlink" x="0px" y="0px"
	 width="443px" height="246.604px" viewBox="0 0 443 246.604" enable-background="new 0 0 443 246.604" xml:space="preserve">
<g>
	<line fill="none" stroke="#FF0000" stroke-miterlimit="10" x1="325.146" y1="126.807" x2="353.309" y2="96.899"/>
	<line fill="none" stroke="#FF0000" stroke-miterlimit="10" x1="353.309" y1="96.899" x2="382.449" y2="96.899"/>
</g>
<g>
	<line fill="none" stroke="#FF0000" stroke-miterlimit="10" x1="298.402" y1="64.98" x2="328.827" y2="32.778"/>
	<line fill="none" stroke="#FF0000" stroke-miterlimit="10" x1="328.827" y1="32.778" x2="360.309" y2="32.778"/>
</g>
<g>
	<line fill="none" stroke="#FF0000" stroke-miterlimit="10" x1="205.554" y1="44.602" x2="175.646" y2="14.695"/>
	<line fill="none" stroke="#FF0000" stroke-miterlimit="10" x1="175.646" y1="14.695" x2="144.7" y2="14.695"/>
</g>
<g>
	<line fill="none" stroke="#FF0000" stroke-miterlimit="10" x1="323.502" y1="201.75" x2="351.522" y2="231.657"/>
	<line fill="none" stroke="#FF0000" stroke-miterlimit="10" x1="351.522" y1="231.657" x2="380.516" y2="231.657"/>
</g>
<g>
	<line fill="none" stroke="#FF0000" stroke-miterlimit="10" x1="180.145" y1="200.793" x2="152.418" y2="230.7"/>
	<line fill="none" stroke="#FF0000" stroke-miterlimit="10" x1="152.418" y1="230.7" x2="123.729" y2="230.7"/>
</g>
<g>
	<line fill="none" stroke="#FF0000" stroke-miterlimit="10" x1="79.835" y1="104.509" x2="49.928" y2="74.602"/>
	<line fill="none" stroke="#FF0000" stroke-miterlimit="10" x1="49.928" y1="74.602" x2="18.982" y2="74.602"/>
</g>
<text transform="matrix(1 0 0 1 358.5762 89.5554)" font-family="'MyriadPro-Regular'" font-size="12">Motion visibility</text>
<text transform="matrix(1 0 0 1 318.4414 24.8328)" font-family="'MyriadPro-Regular'" font-size="12">Mechanisms of attention</text>
<text transform="matrix(1 0 0 1 1.1191 66.9265)" font-family="'MyriadPro-Regular'" font-size="12">Dan Birman</text>
<text transform="matrix(1 0 0 1 113.7686 9.1941)" font-family="'MyriadPro-Regular'" font-size="12">Predicting intentions</text>
<text transform="matrix(1 0 0 1 367.2197 225.155)" font-family="'MyriadPro-Regular'" font-size="12">Climbing</text>
<text transform="matrix(1 0 0 1 35.2803 221.8152)" font-family="'MyriadPro-Regular'" font-size="12">Teaching and tutorials</text>
<g>
	<polyline fill="#FFFFFF" points="163.598,60.04 157.221,104.477 165.74,139.81 166.522,145.491 167.939,155.19 172.842,160.155 
		174.726,165.844 185.851,168.788 225.333,161.577 229.501,167.443 235.875,168.071 248.902,164.688 300.07,168.52 310.855,154.483 
		317.012,152.37 320.91,147.404 325.473,141.968 325.473,129.948 327.317,119.247 322.406,114.841 322.336,110.128 318.855,102.733 
		315.869,89.683 309.071,87.493 306.083,78.409 284.322,68.275 271.504,55.52 264.148,51.421 255.227,47.493 243.133,49.287 
		234.104,44.519 223.515,46.342 215.001,48.42 206.335,48.311 203.597,52.608 197.456,51.421 183.06,52.756 179,58.143 
		174.726,59.927 	"/>
	<polyline fill="#848383" points="243.982,164.798 253.097,156.743 266.743,146.315 279.033,147.861 294.275,152.191 
		304.963,155.546 310.234,157.132 309.581,163.173 309.914,168.071 308.348,171.032 307.221,172.749 304.545,178.858 
		297.628,184.509 293.312,186.343 290.456,189.177 283.488,194.139 280.654,197.272 272.456,198.823 267.851,200.499 
		256.787,200.499 248.902,196.723 243.982,188.581 240.729,177.132 	"/>
	<polygon fill="#848383" points="187.451,167.632 197.456,173.042 210.249,170.731 219.887,164.993 231.47,157.727 241.076,152.37 
		248.192,149.819 255.227,147.403 256.18,139.811 237.514,138.2 223.129,145.229 209.339,152.37 192.362,161.784 	"/>
	<polygon fill="#848383" points="271.742,57.428 261.248,58.838 255.227,64.45 256.227,83.256 260.702,89.292 266.34,89.301 
		288.525,92.86 296.641,89.683 304.545,86.24 306.083,78.409 300.071,70.706 293.955,66.561 287.721,62.219 281.046,58.838 	"/>
	<path fill="#848383" d="M295.92,128.719c0,0,8.449-1.017,7.532-2.743s0-4.294,0-4.294l7.746-3.377l0.287-4.168l-4.468-7.746
		l-6.311-1.913l-4.285,1.813l-12.818,2.641l-10.939-4.045l-4.654,7.695l-1.67,7.457l-0.875,14.406l5.661,1.461l6.609,3.905
		l15.038-2.44l1.398-4.352L295.92,128.719z"/>
	<polygon fill="#848383" points="164.171,137.11 165.897,132.454 165.66,126.274 167.939,115.788 165.6,102.205 167.294,98.761 
		163.525,94.339 166.993,83.021 164.922,77.2 167.801,69.407 166.68,60.727 159.305,62.37 151.016,70.289 149.017,75.457 
		147.258,73.078 138.903,75.664 130.57,87.307 127.915,91.984 120.558,98.761 117.173,106.29 117.062,116.249 119.458,127.514 
		120.777,134.446 130.686,138.546 135.496,140.495 141.417,140.38 148.221,143.968 156.842,140.575 	"/>
	<polygon fill="#848383" points="216.575,47.492 214.447,52.699 205.246,57.469 196.897,59.481 192.02,72.452 185.918,90.049 
		183.006,97.213 186.397,106.29 193.21,115.243 201.54,108.63 201.968,103.117 195.857,97.078 204.797,86.734 211.161,78.847 
		209.472,69.212 215.556,65.233 225.39,59.57 229.607,57.517 229.663,50.549 228.882,47.609 222.61,44.239 	"/>
	<g>
		<path stroke="#000000" stroke-miterlimit="10" d="M218.486,46.157c1.373-0.673,2.724-1.854,4.125-1.919
			c3.821-0.176,7.668,0.042,11.494,0.281c1.086,0.067,2.439,0.451,3.146,1.19c2.965,3.1,6.973,1.728,10.414,2.684
			c0.26,0.073,0.701-0.126,0.92-0.341c2.725-2.687,5.857-2.232,8.96-1.031c4.433,1.715,8.876,3.449,13.149,5.513
			c1.799,0.868,3.181,2.602,4.988,4.143c5.464-1.979,13.816,3.495,15.92,9.265c6.15-0.9,9.979,1.74,11.584,7.891
			c0.186,0.706,0.697,1.671,1.281,1.874c3.594,1.239,5.268,3.955,6.035,7.414c0.312,1.412,0.775,2.412,2.231,3.218
			c2.565,1.417,3.728,3.953,4.198,6.859c0.311,1.927,1.033,3.785,1.416,5.704c0.557,2.793,1.715,4.967,4.137,6.795
			c1.967,1.485,2.041,4.219,2.047,6.725c0.002,1.234,0.26,2.745,0.994,3.645c2.33,2.854,2.666,5.962,2.203,9.445
			c-0.376,2.85-0.053,5.809-0.584,8.616c-0.766,4.04-1.391,8.317-3.248,11.884c-1.9,3.655-4.981,6.822-8.02,9.701
			c-1.219,1.156-3.701,0.982-5.641,1.42c3.402,7.549,0.984,14.189-4.203,20.066c-2.961,3.355-6.086,6.734-9.711,9.291
			c-3.701,2.613-7.477,4.995-10.793,8.172c-2.633,2.521-6.275,3.172-9.959,3.219c-1.055,0.014-2.352,0.293-3.113,0.945
			c-4.246,3.639-9.124,4.297-14.268,2.975c-12.199-3.137-20.592-17.498-17.451-29.697c0.453-1.768,1.296-3.438,2.254-5.916
			c-1.748,0.586-3.088,0.855-4.257,1.457c-3.284,1.691-9.115,0.791-12.229-2.051c-0.464-0.424-0.797-0.991-0.955-1.193
			c-2.287,0.885-4.209,1.59-6.099,2.373c-3.084,1.279-6.24,2.434-9.202,3.959c-6.196,3.193-12.417,3.162-18.819,0.797
			c-2.524-0.932-5.095-1.771-7.702-2.432c-1.749-0.441-3.654-0.281-5.387-0.762c-3.357-0.932-5.658-3.156-6.994-6.412
			c-0.456-1.109-1.021-2.234-1.787-3.145c-3.312-3.93-3.899-8.406-3.04-13.287c0.126-0.713-0.331-1.582-0.665-2.312
			c-0.551-1.206-1.223-2.358-1.925-3.683c-4.182,1.768-8.628,3.592-13.023,5.531c-2.229,0.984-4.212,0.557-6.019-0.799
			c-2.508-1.879-5.104-2.691-8.196-1.566c-0.597,0.217-1.48-0.205-2.183-0.465c-2.602-0.951-5.136-2.112-7.783-2.904
			c-3.204-0.959-5.35-2.842-6.417-6.005c-1.478-4.382-3.024-8.739-4.475-13.129c-1.088-3.291-0.979-6.5,0.299-9.816
			c0.851-2.209,1.18-4.671,1.415-7.051c0.36-3.644,1.312-7.204,4.5-9.034c2.649-1.52,3.854-3.425,4.837-6.124
			c1.243-3.411,3.917-5.874,6.848-8.028c1.829-1.344,3.705-2.736,5.168-4.442c2.237-2.609,4.977-3.916,8.271-4.433
			c0.641-0.101,1.468-0.584,1.754-1.132c1.689-3.218,4.379-5.189,7.638-6.532c0.923-0.38,1.917-0.659,2.739-1.197
			c4.553-2.973,9.405-4.586,14.947-4.058c1.93,0.184,3.562-0.685,4.804-2.564c0.87-1.318,2.489-2.384,4.002-2.993
			c5.936-2.385,12.1-3.171,18.458-1.993c0.611,0.114,1.531,0.134,1.896-0.224c4.063-3.983,8.962-4.63,14.279-3.793
			c0.278,0.043,0.564,0.044,0.847,0.064C218.52,46.593,218.503,46.375,218.486,46.157z M265.465,148.397
			c-1.423-1.295-2.705-0.443-3.998,0.261c-0.236-0.179-0.53-0.557-0.701-0.507c-3.016,0.879-6.025,1.787-9.016,2.758
			c-0.424,0.141-0.869,0.578-1.073,0.99c-1.573,3.181-3.114,6.377-4.597,9.602c-0.203,0.443-0.027,1.062-0.027,2.096
			c1.756-2.01,3.102-3.553,4.449-5.096c0.574-0.131,1.15-0.263,1.727-0.395c0.619-0.293,1.26-0.555,1.859-0.887
			c4.552-2.502,9.081-5.045,13.651-7.513c1.003-0.542,2.142-0.837,3.765-1.454C269.04,147.657,267.221,146.968,265.465,148.397z
			 M280.475,194.932c0.566,0,1.134,0,2.008,0c-0.363-0.611-0.479-0.861-0.643-1.07c-5.305-6.771-12.045-11.873-19.216-16.469
			c-0.363-0.234-0.913-0.18-1.374-0.262c-2.008-1.283-4.016-2.566-6.023-3.848c-2.256-1.458-4.514-2.916-6.77-4.373
			c-0.188,0.217-0.379,0.434-0.568,0.65c1.217,1.709,2.279,3.561,3.68,5.104c4.266,4.703,8.662,9.285,13.008,13.914
			c0.04,0.207,0.004,0.497,0.128,0.609c2.565,2.316,5.136,4.627,7.755,6.879c0.17,0.145,0.753-0.195,1.145-0.311
			c0.774,0.433,1.373,0.393,1.617-0.602l-0.016,0.023c0.791,0.314,1.582,0.629,2.373,0.943c0.005-0.332,0.01-0.662,0.014-0.993
			C278.596,195.698,279.617,196.52,280.475,194.932z M298.557,164.688c0.252,0.493,0.385,1.125,0.773,1.459
			c2.547,2.192,5.148,4.32,7.891,6.602c0.383-0.583,0.748-1.137,1.127-1.717c-0.527-0.559-0.953-1.01-1.377-1.461
			c0.504,0.234,1.01,0.467,1.746,0.808c0.412-1.563,0.998-2.997,1.131-4.468c0.256-2.822-0.115-3.248-3.029-4.518
			c-0.773-0.338-1.585-0.674-2.411-0.799c-4.208-0.641-8.427-1.213-13.195-1.887C294.048,161.016,296.301,162.852,298.557,164.688z
			 M278.33,156.878c0.738,0.143,1.479,0.411,2.218,0.408c5.116-0.015,10.222,0.104,15.292,0.885c2.029,0.311,4.076,0.5,6.098,0.844
			c2.505,0.428,4.99,0.961,7.645,1.479c-0.146-0.375-0.195-0.731-0.395-0.947c-0.189-0.203-0.754-0.221-0.783-0.385
			c-0.564-3.166-0.578-3.172-3.441-3.615c-0.605-0.094-1.168-0.425-1.768-0.57c-2.713-0.657-5.432-1.287-8.15-1.926
			c-0.253-0.295-0.449-0.744-0.768-0.858c-1.893-0.671-3.773-0.99-5.814-0.366c-2.729,0.836-5.533,1.422-8.307,2.113
			c-0.033-0.142-0.068-0.283-0.101-0.424c2.835-0.743,5.669-1.486,8.505-2.23c-0.021-0.109-0.043-0.219-0.064-0.328
			c-4.795-0.391-9.588-0.783-14.084-1.149c-0.314-0.41-0.559-0.984-0.785-0.976c-0.688,0.021-1.402,0.178-2.041,0.442
			c-7.549,3.128-15.4,5.766-20.246,12.304c2.83-0.743,6.162-1.678,9.525-2.483c2.551-0.612,5.122-1.229,7.723-1.541
			C271.814,157.165,275.08,157.089,278.33,156.878z M246.256,174.272c-0.149,0.296-0.451,0.605-0.425,0.887
			c0.39,4.41,1.944,8.389,4.603,11.948c-0.565-1.626-1.131-3.251-1.696-4.878c0.452,0.879,1.008,1.719,1.342,2.639
			c2.532,6.998,7.851,11.078,14.425,13.842c3.686,1.549,4.373,1.342,7-1.84c-9.426-7.557-17.199-16.668-24.777-26.053
			c0.182,0.641,0.363,1.281,0.645,2.269c-0.607-0.685-0.978-1.104-1.721-1.944C245.919,172.53,246.088,173.401,246.256,174.272z
			 M293.312,186.343c1.965-1.498,3.891-3.047,5.906-4.473c1.011-0.713,1.11-1.436,0.361-2.277c-1.932-2.176-3.711-4.549-5.916-6.408
			c-4.85-4.089-10.729-6.141-16.816-7.555c-7.137-1.655-14.341-2.545-20.956-1.471c4.235,1.225,9.411,1.925,13.751,4.213
			c4.026,2.125,8.553,3.863,11.6,7.752c1.355,1.729,3.418,2.9,5.16,4.324c1.459,1.99,2.922,3.98,4.379,5.971
			C291.664,187.622,292.5,187.385,293.312,186.343z M264.756,143.95c0.646,0.77,1.133,1.35,1.987,2.365
			c-0.149-1.066-0.204-1.453-0.288-2.062c0.584,0.641,1.002,1.098,1.584,1.734c0.143-0.566,0.227-0.895,0.318-1.26
			c0.807,0.785,1.462,2.271,2.451,0.824c2.714,0.793,5.418,1.91,8.225,2.309c2.822,0.4,5.748,0.088,9.132,0.088
			c0.308,0.166,1.144,2.029,1.775,0.184c1.931,0.607,3.851,1.209,5.874,1.846c0-0.379,0-0.748,0-1.227
			c0.504,0.715,0.93,1.32,1.447,2.057c0.26-0.503,0.404-0.784,0.549-1.068c0.869,0.419,1.201,2.688,2.434,1.131
			c1.635,0.727,3.197,1.434,4.783,2.08c0.057,0.023,0.348-0.535,0.191-0.289c1.99,0.643,3.811,1.23,5.631,1.818
			c0.053-0.156,0.102-0.312,0.152-0.469c-0.332-0.521-0.665-1.043-1.225-1.92c1.352,1.018,2.299,1.732,3.248,2.445
			c0.141-0.156,0.283-0.314,0.426-0.473c-0.256-0.502-0.513-1.004-0.566-1.111c0.918,0.136,2.094,0.666,2.983,0.359
			c1.63-0.561,1.392-1.957,0.86-2.957c-1.213-0.193-2.223-0.357-3.531-0.568c1.248-0.82,2.168-1.424,3.164-2.08
			c-0.174-0.504-0.395-1.14-0.695-2.01c1.02,0.982,1.801,1.734,2.584,2.486c0.1-0.129,0.197-0.26,0.296-0.389
			c0.101,0.441,0.199,0.882,0.312,1.377c2.52-1.605,4.13-4.348,4.389-7.333c0.086-0.979,0.537-2.153,0.156-2.899
			c-0.931-1.818-1.658-3.592-1.314-5.66c0.146-0.891-0.867-1.619,0.064-2.807c0.437-0.555-0.633-2.59-1.386-3.707
			c-0.902-1.344-2.186-2.432-3.323-3.613c-3.389-3.521-5.535-3.961-9.793-2.041c-0.52,0.234-1.041,0.467-1.578,0.658
			c-1.249,0.443-2.488,0.875-2.268,2.218c5.328,0.51,8.951,3.176,11.1,8.043c0.141,0.418-2.32,0.635-0.182,1.502
			c-0.334,0.283-0.68,0.578-1.027,0.871c0.062,0.09,0.125,0.182,0.188,0.273c0.658-0.257,1.318-0.514,1.777-0.69
			c0.144,0.813,0.015,1.817,0.438,2.185c2.799,2.438,2.445,6.033,3.494,9.1c0.053,0.152-0.527,0.521-1.164,1.123
			c-0.264-1.734-0.537-3.041-0.646-4.359c-0.211-2.541-1.43-4.409-3.52-5.797c-1.748-1.162-3.203,0.48-4.828,0.562
			c-0.148,0.008-0.242,1.824-0.295,2.803c-0.073,1.367,0.385,2.926-1.061,3.605c-0.416-1.889-0.451-3.83-1.281-5.332
			c-0.895-1.621-0.852-2.91-0.166-4.801c0.451,1.174,0.762,1.982,1.078,2.805c0.779-0.098,1.416-0.162,2.047-0.262
			c2.68-0.424,3.24-1.162,3.029-3.867c-0.219-2.809-2.035-4.312-4.414-5.241c-4.471-1.745-9.483,0.099-11.994,4.392
			c-0.84,1.436-1.498,2.975-2.238,4.467c-0.193-0.066-0.385-0.133-0.577-0.201c0.501-1.77,1.002-3.541,1.397-4.939
			c-0.387-0.564-0.629-1.006-0.952-1.375c-1.446-1.646-2.663-3.65-4.427-4.83c-4.752-3.179-10.184-4.617-15.859-4.066
			c-4.938,0.477-9.819,1.572-14.705,2.504c-0.797,0.152-1.721,0.701-2.176,1.353c-1.039,1.484-1.822,3.145-2.718,4.748
			c0.505,0.336,1.147,0.766,1.792,1.194c-1.821,0.372-3.496,0.282-5.158,0.392c-4.274,0.277-7.904,2.242-11.391,4.539
			c-1.322,0.873-3.185,1.307-2.797,3.516c0.268,0,0.568,0,0.942,0c-1.943,2.076-1.889,2.199,0.511,3.461
			c0.832,0.438,1.51,1.17,2.454,1.926c-4.184-0.078-5.635-1.463-5.218-5.023c0.24-2.045-0.281-3.473-2.159-4.355
			c-1.481-0.695-2.949-1.42-4.445-2.086c-0.708-0.316-1.464-0.523-2.199-0.78c0.113-0.302,0.229-0.606,0.342-0.909
			c2.471,0.865,4.941,1.732,7.4,2.594c-0.225,2.045,1.008,1.121,2.103,0.453c-0.225,0.61-0.4,1.084-0.71,1.92
			c0.597-0.303,0.858-0.379,1.048-0.539c2.865-2.428,6.095-4.244,9.593-5.555c0.976-0.363,2.11-0.277,3.138-0.533
			c1.784-0.448,3.943-0.143,4.904-2.355c0.609-1.404,1.287-2.78,1.942-4.186c-5.431-2.021-6.36-2.722-6.302-4.63
			c6.312,3.217,6.785,2.515,10.068,2.6c3.555,0.092,6.27-1.128,9.124-2.252c1.36,0,2.72,0,4.201,0
			c0.018-0.215,0.054-0.631,0.101-1.168c0.389,0.607,0.676,1.059,1.102,1.725c0.275-0.527,0.426-0.814,0.491-0.939
			c0.491,0.23,0.968,0.455,1.446,0.68c0.148-0.408,0.299-0.814,0.293-0.796c1.158,0.431,2.32,0.86,3.798,1.407
			c-0.21-1.102-0.325-1.711-0.486-2.562c0.435,0.406,0.7,0.652,1.175,1.098c0.318-1.836,0.584-3.481,0.887-5.119
			c0.365-1.998-0.245-3.438-2.201-4.262c-3.281-1.381-6.537-2.821-9.547-4.125c0.1-0.026,0.693-0.189,2.025-0.554
			c-1.871-1.704-3.372-3.07-4.797-4.368c1.938-0.542,3.365,0.098,4.391,2.158c0.342-0.36,0.654-0.691,1.225-1.296
			c-0.342,1.137-0.561,1.861-0.779,2.586c0.131,0.058,0.263,0.115,0.393,0.172c0.72-0.604,1.439-1.206,2.158-1.809
			c0.037,0.077,0.073,0.154,0.111,0.23c-0.691,0.901-1.381,1.802-2.4,3.132c1.676,0,2.723,0,3.663,0
			c0.29,0.238,0.634,0.58,1.032,0.838c2.059,1.338,4.121,2.674,6.217,3.956c0.236,0.145,0.69-0.029,1.035-0.098
			c3.211-0.635,6.408-1.344,9.635-1.889c1.318-0.223,2.719-0.256,4.042-0.08c1.716,0.227,2.167,1.131,1.804,2.291
			c-1.338-0.42-2.736-1.328-4.002-1.168c-4.282,0.538-8.516,1.455-12.327,2.146c-0.087,1.029-0.142,1.674-0.204,2.385
			c0.477-0.231,0.919-0.447,1.289-0.627c-0.622,1.066-1.223,2.1-1.824,3.131c0.152,0.084,0.305,0.17,0.455,0.256
			c0.496-0.26,0.992-0.52,1.932-1.012c-1.184,1.303-1.993,2.195-2.803,3.086c0.09,0.084,0.18,0.17,0.27,0.254
			c0.785-0.494,1.57-0.99,2.354-1.486c0.057,0.086,0.113,0.17,0.17,0.254c-0.947,0.828-1.895,1.656-2.842,2.484
			c0.123,0.172,0.243,0.344,0.366,0.516c0.933-0.6,1.864-1.197,2.798-1.796c0.111,0.144,0.223,0.292,0.336,0.437
			c-0.635,0.434-1.271,0.867-1.906,1.301c0.131,0.231,0.262,0.461,0.391,0.693c0.85-0.339,1.699-0.676,2.613-1.041
			c-0.352,0.456-0.648,0.846-0.906,1.182c3.225,2.207,7.393,3.145,9.098,7.259c0.217-0.367,0.473-0.799,0.928-1.569
			c-0.164,1.233-0.273,2.054-0.384,2.876c0.11,0.03,0.222,0.061,0.331,0.092c0.238-0.633,0.475-1.266,0.705-1.878
			c0.186,0.165,0.404,0.362,0.623,0.56c1.006-1.334,2.473-1.854,3.972-2.417c1.53-0.575,1.581-2.469,0.202-3.577
			c-0.627-0.504-1.252-1.016-1.947-1.582c2.029,0.291,3.895,0.947,5.633,0.701c1.832-0.26,3.542-1.379,5.76-2.314
			c-1.242-3.168-2.364-6.367-3.744-9.452c-1.189-2.663-2.797-3.339-5.74-2.88c-0.707,0.109-1.414,0.223-2.121,0.334
			c-0.119-0.164-0.236-0.329-0.357-0.494c2.825-2.268,4.559-5.064,4.762-8.737c0.334,0.769,0.668,1.537,1,2.305
			c-0.119-0.027-0.241-0.054-0.363-0.082c-0.266,1.756-0.535,3.51-0.804,5.264c0.144,0.141,0.288,0.281,0.431,0.422
			c1.098-0.828,2.197-1.655,3.293-2.482c0.055,0.06,0.109,0.121,0.164,0.181c-0.672,0.744-1.345,1.487-2.018,2.231
			c0.078,0.158,0.154,0.316,0.233,0.475c0.765-0.252,1.526-0.504,2.368-0.782c-0.402,0.562-0.74,1.029-1.283,1.784
			c0.809-0.091,1.247-0.14,1.699-0.19c-0.875,1.359-0.49,1.869,0.715,1.649c0,0.563-0.194,1.271,0.062,1.722
			c0.197,0.346,0.965,0.369,1.398,0.51c-0.324,0.359-0.205,0.689,0.164,1.639c0.291,0.747,0.188,1.641,0.43,2.418
			c0.275,0.889,0.742,1.717,1.127,2.572c0.191-0.083,0.383-0.166,0.573-0.248c-0.341,0.477-0.683,0.955-1.022,1.432
			c0.07,0.068,0.141,0.137,0.213,0.203c0.493-0.354,0.986-0.709,1.48-1.064c0.059,0.072,0.114,0.143,0.172,0.215
			c-0.33,0.418-0.658,0.836-1.136,1.442c1.284,0.196,2.31,0.354,3.253,0.499c-0.037,0.068-0.223,0.406-0.678,1.241
			c1.039-0.452,1.58-0.688,2.209-0.962c-0.26,0.529-0.451,0.926-0.684,1.404c1.111,0.413,2.033,0.756,2.491,0.924
			c0.873,1.101,1.628,1.951,2.267,2.88c0.725,1.051,1.348,2.174,2.016,3.266c0.287,0.26,0.574,0.518,0.861,0.777
			c0.408-0.807,1.084-1.584,1.176-2.426c0.199-1.805,0.143-3.644,0.059-5.464c-0.01-0.23-0.816-0.424-1.084-0.553
			c0.123-0.389,0.495-1.139,0.369-1.235c-0.748-0.569-1.613-0.987-2.385-1.427c0.072-0.18,0.514-0.936,0.398-1.035
			c-0.555-0.471-1.26-0.764-1.828-1.074c0.23-0.143,0.648-0.404,1.068-0.666c-0.551-0.305-1.012-0.236-1.469-0.258
			c-0.449-0.02-0.895-0.129-1.809-0.273c3.132-0.335,3.132-0.335,3.108-1.713c-0.981,0.15-1.957,0.301-2.933,0.449
			c-0.023-0.131-0.045-0.262-0.067-0.393c1.069-0.309,2.136-0.617,3.202-0.926c-0.033-0.138-0.066-0.277-0.1-0.416
			c-0.482-0.117-0.965-0.234-1.465-0.357c0.562-0.318,1.012-0.572,1.461-0.826c-0.061-0.155-0.122-0.309-0.184-0.465
			c-0.498,0-0.996,0-1.594,0c0.537-0.479,0.949-0.848,1.729-1.545c-1.043-0.068-1.532-0.102-1.475-0.098
			c-0.121-0.726-0.045-1.385-0.292-1.543c-0.688-0.447-1.487-0.779-2.288-0.992c-1.984-0.528-3.993-0.965-5.994-1.438
			c0.014-0.234,0.025-0.468,0.038-0.703c1.708-0.188,3.419-0.375,5.251-0.576c-0.627-1.438-1.325-2.597-1.637-3.851
			c-0.482-1.934-0.749-3.927-1.019-5.909c-0.376-2.753-1.108-3.507-3.914-3.825c-0.11-0.013-0.214-0.107-0.464-0.237
			c0.549-0.143,0.979-0.256,1.759-0.458c-1.292-0.41-2.224-0.75-3.181-0.997c-0.902-0.234-1.828-0.371-2.746-0.55
			c-0.014-0.137-0.029-0.274-0.045-0.412c0.955-0.3,1.91-0.602,2.857-0.899c-1.462-5.241-2.602-6.985-5.145-7.667
			c-2.818-0.757-4.752,0.52-6.24,3.493c-0.885-1.483-1.516-2.539-2.33-3.904c0.801,0.263,1.152,0.377,1.787,0.585
			c-1.383-1.957-2.617-3.638-3.781-5.368c-1.819-2.706-4.773-2.849-7.541-3.294c-0.641-0.103-1.408,0.578-2.092,0.886
			c-0.01-0.062-0.057-0.339-0.105-0.618c-0.115-0.001-0.232-0.002-0.349-0.005c-0.239,0.758-0.478,1.515-0.761,2.415
			c-0.256-0.453-0.414-0.73-0.502-0.891c-1.266,1.483-2.534,2.966-3.8,4.45c-0.122-0.084-0.243-0.169-0.363-0.252
			c1.16-1.981,2.32-3.961,3.521-6.012c-0.482-0.093-0.846-0.162-1.207-0.231c0-0.09,0.001-0.181,0.002-0.271
			c0.766-0.079,1.531-0.159,2.375-0.247c-1.151-1.239-2.152-2.317-3.152-3.394c0.074-0.125,0.149-0.249,0.225-0.374
			c-0.574-0.426-1.147-0.853-1.559-1.157c0.078-0.306,0.293-0.803,0.205-0.864c-1.812-1.262-3.512-2.905-5.535-3.598
			c-3.264-1.119-6.704-0.595-10.016,0.337c-1.75,0.492-3.504-0.375-3.877-1.641c1.359,0,2.844,0.076,4.314-0.018
			c1.737-0.111,3.461-0.41,5.199-0.547c1.041-0.083,2.094-0.015,3.336-0.015c-0.361-0.424-0.593-0.694-1.201-1.405
			c1.172,0.594,1.855,0.94,2.537,1.287c-2.396-3.277-5.822-3.777-9.436-3.896c0.07-0.09,0.209-0.271,0.44-0.568
			c-0.987,0-1.888,0-2.972,0c0.282-0.369,0.633-0.717,0.587-0.782c-2.228-3.12-8.2-4.458-11.634-2.697
			c-0.674,0.346-1.475,0.568-2.229,0.61c-2.021,0.111-4.071-0.071-6.069,0.179c-1.653,0.206-3.607,0.041-4.609,1.934
			c-0.225-0.188-0.451-0.375-0.855-0.712c-0.273,0.489-0.556,0.996-0.837,1.501c-0.207-0.178-0.414-0.356-0.619-0.535
			c0.964-1.298,1.925-2.596,2.991-4.033c-1.043-0.558-1.828-1.305-2.666-1.369c-4.167-0.319-8.349-0.474-12.525-0.636
			c-0.376-0.015-0.98,0.23-1.115,0.522c-1.134,2.451-3.256,1.784-5.151,1.655c-4.279-0.293-8.267,0.246-11.484,3.463
			c-0.328,0.329-0.839,0.528-1.302,0.659c-2.7,0.764-5.426,1.438-8.114,2.242c-2.513,0.751-4.947,1.825-7.499,2.363
			c-1.339,0.282-2.858-0.281-4.296-0.462c0.032-0.186,0.064-0.372,0.097-0.557c6.238-0.281,7.939-0.7,8.095-1.53
			c1.848-0.678,3.457-1.268,5.603-2.054c-6.034-0.995-12.925,0.842-16.964,4.369c-2.42,2.114-5.078,3.264-8.365,3.128
			c-1.825-0.076-3.848-0.073-5.471,0.622c-4.239,1.816-8.307,4.031-12.436,6.101c-0.079,0.04-0.08,0.231-0.128,0.384
			c0.317,0.107,0.624,0.21,0.932,0.315c-2.227-0.36-3.25,1.169-4.033,2.763c-0.812,1.65-1.324,3.447-1.999,5.167
			c-0.254,0.647-0.6,1.261-0.903,1.89c-0.286-0.049-0.57-0.097-0.856-0.147c0-1.413,0-2.826,0-4.12
			c-4.605,0.053-6.787,3.763-9.58,6.511c-0.377,0.371-0.052,1.456-0.052,2.292c0.361-0.282,0.592-0.46,0.822-0.64
			c0.066,0.064,0.133,0.127,0.2,0.19c-0.361,0.636-0.723,1.271-1.301,2.291c-0.588-1.207-0.999-2.045-1.524-3.124
			c-2.188,2.224-4.292,4.36-6.601,6.708c0.694,0,1.062,0,1.35,0c-0.497,2.023-0.996,4.051-1.586,6.455
			c0.648-0.591,1.022-0.933,1.708-1.557c-0.587,1.31-1.521,2.389-1.29,3.066c0.659,1.918-0.492,3.066-1.292,4.394
			c-2.511,4.168-2.211,7.403,0.724,10.641c2.15-0.479,4.042-1.188,5.955-1.248c2.228-0.067,2.933-0.691,2.146-2.742
			c-0.018-0.047,0.111-0.154,0.188-0.254c0.175,0.211,0.347,0.418,0.616,0.742c0.218-1.075,0.407-2.009,0.613-3.023
			c0.355,0.525,0.655,0.97,0.942,1.395c0.404-0.651,0.747-1.205,1.085-1.753c-2.377-2.368-3.203-4.562-2.467-7.106
			c0.365,1.23,0.602,2.236,0.961,3.197c0.636,1.701,2.27,2.379,3.734,2.437c2.448,0.095,4.917-0.409,7.38-0.6
			c1.054-0.082,2.12-0.014,3.182-0.014c0.021,0.26,0.044,0.519,0.066,0.779c-2.12,0.237-4.252,0.751-6.355,0.649
			c-3.953-0.191-6.308,1.854-7.914,5.066c-0.503,1.006-0.963,2.348-0.708,3.347c0.516,2.019,1.535,3.911,2.337,5.833
			c0.008-0.004,0.262-0.141,0.637-0.342c-0.485,1.156-0.89,2.117-1.294,3.078c0.221,0.152,0.443,0.305,0.665,0.457
			c0.193-0.516,0.387-1.035,0.654-1.752c0.312,0.996,0.328,1.562,0.617,1.863c0.812,0.842,1.925,1.441,2.584,2.375
			c2.037,2.877,3.873,5.9,7.893,6.293c0.352,0.034,0.653,0.586,0.978,0.897c-0.107,0.135-0.214,0.271-0.322,0.406
			c-0.697-0.266-1.394-0.533-2.091-0.797c-0.047,0.086-0.096,0.172-0.144,0.26c0.427,0.398,0.854,0.797,1.282,1.197
			c-0.074,0.105-0.146,0.21-0.22,0.316c-1.188-0.818-2.375-1.637-3.562-2.455c-0.078,0.115-0.156,0.23-0.234,0.348
			c0.851,0.741,1.7,1.482,2.55,2.225c-0.051,0.061-0.103,0.122-0.154,0.184c-1.024-0.454-2.05-0.908-3.318-1.469
			c-2.087-5.832-4.089-8.246-7.64-9.133c-0.97,0.86-1.888,1.676-2.807,2.491c2.414-4.824,2.664-6.23,1.285-9.547
			c-1.857-4.465-5.095-4.994-8.296-1.367c-0.568,0.645-1.172,1.26-1.76,1.889c-0.208-0.029-0.417-0.059-0.626-0.087
			c1.406-2.537,0.596-4.216-1.586-5.435c-1.938-1.082-3.933-1.184-5.977-0.46c-0.407,0.144-0.852,0.519-1.035,0.902
			c-1.755,3.685-2.254,7.392-0.663,11.353c1.454,3.625,2.61,7.375,3.773,11.107c0.952,3.057,2.785,4.918,5.962,5.762
			c2.652,0.703,5.163,1.943,7.745,2.924c0.435,0.164,0.998,0.439,1.353,0.296c3.39-1.374,6.172-0.202,9.012,1.673
			c1.086,0.719,2.906,1.08,4.117,0.707c3.377-1.033,6.623-2.508,9.891-3.881c0.578-0.242,1.013-0.828,1.875-1.564
			c-2.271,0-3.896-0.016-5.52,0.006c-1.206,0.016-2.42,0.004-3.612,0.148c-0.665,0.081-1.336,0.379-1.931,0.711
			c-1.016,0.568-1.973,1.239-2.954,1.869c-0.116-0.179-0.233-0.357-0.35-0.536c1.017-0.786,2.036-1.573,3.076-2.376
			c-0.704-0.779-1.193-1.321-1.905-2.109c5.493,1.881,5.593,2.118,11.573-0.578c-0.813-1.924-1.541-3.908-2.472-5.789
			c-1.872-3.783-3.661-7.566-4.033-11.864c-0.051-0.589-0.615-1.208-1.08-1.679c-2.528-2.555-4.202-5.498-4.453-9.141
			c1.817,2.975,3.635,5.949,5.606,9.176c0.667-0.97,1.053-1.531,1.771-2.572c-0.301,0.914-0.404,1.246-0.52,1.574
			c-0.701,1.969-0.492,2.596,0.708,2.332c-0.101,0.674-0.444,1.439-0.269,2.056c0.73,2.585,1.529,5.157,2.47,7.672
			c0.995,2.66,2.156,5.258,3.291,7.863c0.564,1.293,1.108,2.681,3.032,2.619c0.566-1.527,1.127-3.041,1.726-4.656
			c-3.215-1.276-1.603-4.137-2.21-6.008c0.85-0.074,1.612-0.141,1.973-0.172c0.116,1.736,0.219,3.292,0.323,4.846
			c1.742-1.236,2.756-2.529,3.965-3.602c1.046-0.93,2.706-1.357,3.409-2.449c2.022-3.14,4.59-5.568,7.865-7.166
			c-0.633-1.205-1.002-2.424-1.781-3.264c-0.984-1.061-2.221-2.394-3.49-2.566c-2.283-0.311-4.678,0.102-7.011,0.354
			c-0.411,0.044-0.954,0.728-1.069,1.204c-0.16,0.662,0.027,1.406,0.068,2.154c1.208,0.291,2.405,0.579,3.691,0.887
			c-3.046,0.156-3.797,2.514-4.655,4.852c-0.315,0.859-0.979,1.596-1.484,2.386c-0.172-0.125-0.343-0.25-0.515-0.376
			c0.176-0.359,0.384-0.707,0.525-1.08c0.654-1.725,2.124-3.688,1.723-5.131c-0.504-1.822-0.581-3.75-1.176-5.426
			c-1.163-3.277-1.079-6.59-0.448-9.694c0.657-3.232,0.15-5.511-2.076-7.865c-0.985-1.044-1.616-1.28-2.97-1.127
			c-3.106,0.349-6.253,0.554-9.371,0.46c-1.399-0.042-2.772-0.941-4.158-1.451c0.086-0.265,0.172-0.527,0.257-0.791
			c0.675,0.148,1.352,0.29,2.024,0.45c1.444,0.345,2.889,1.002,4.327,0.985c2.701-0.032,5.399-0.425,8.091-0.735
			c0.403-0.046,0.936-0.375,1.114-0.723c1.453-2.834,2.835-5.704,4.154-8.389c-1.962-3.345-3.508-6.855-7.982-7.435
			c0.167-0.279,0.333-0.558,0.499-0.837c1.604,0.46,3.208,0.921,4.802,1.378c0.549-0.78,1.206-1.715,1.864-2.65
			c0.109,0.069,0.218,0.137,0.327,0.207c-0.652,1.091-1.305,2.183-1.956,3.274c0.125,0.081,0.25,0.162,0.375,0.242
			c0.443-0.503,0.885-1.007,1.328-1.51c-1.549,2.268-0.23,3.865,1.162,5.334c0.451,0.475,1.295,0.789,1.965,0.798
			c1.27,0.02,2.544-0.352,3.815-0.351c2.643,0.005,5.088-0.43,7.179-2.226c0.467-0.4,1.227-0.459,1.898-0.69
			c0.069,2.33-0.921,3.34-3.516,3.609c-2.481,0.257-4.969,0.457-7.456,0.63c-1.808,0.126-3.107,0.674-3.948,2.553
			c-1.017,2.275-1.176,4.944-3.046,6.852c-0.166,0.17-0.073,0.832,0.129,1.083c1.302,1.622,1.972,3.964,4.523,3.951
			c-3.098,4.57-2.321,9.309-1.502,14.01c2.705,0,5.165,0,7.434,0c0.496-1.289,0.91-2.364,1.323-3.439
			c0.223,0.029,0.446,0.061,0.669,0.092c-1.072,2.103-0.182,3.213,1.46,4.443c1.689,1.264,2.928,3.129,4.451,4.828
			c2.051-0.17,4.543-0.271,6.997-0.625c1.191-0.172,2.546-0.547,3.424-1.297c3.053-2.613,5.93-5.43,9.123-8.4
			c-1.93-4.025-4.821-7.883-9.442-10.391c0.992,0.209,1.984,0.419,2.965,0.625c0.207-0.742,0.382-1.371,0.488-1.752
			c1.023,1.738,1.725,3.898,3.205,5.1c0.976,0.793,1.529,1.885,2.419,2.691c0.943,0.854,1.008,2.676,1.636,4.633
			c1.606-1.027,2.889-1.848,4.04-2.584c-0.032-0.123,0.07,0.27,0.256,0.981c1.378-1.119,2.585-2.101,3.687-2.994
			c-0.007-0.009,0.26,0.313,0.526,0.633c0.374-0.373,0.963-0.692,1.075-1.133c0.206-0.814,0.133-1.7,0.176-2.556
			c0.083,0.002,0.168,0.004,0.253,0.005c0.042,0.838,0.083,1.676,0.125,2.516c0.154,0.067,0.309,0.135,0.463,0.202
			c0.371-0.668,0.74-1.336,0.859-1.552c0.761-0.125,1.539-0.039,1.724-0.329c0.362-0.571,0.395-1.353,0.584-2.131
			c0.162,0.527,0.295,0.954,0.434,1.401c2.273-0.774,2.045-2.393,1.826-4.104c0.221,0.818,0.442,1.636,0.675,2.502
			c1.585-1.347,3.04-2.583,4.393-3.732c0.22,0.038,0.645,0.243,0.803,0.116c1.012-0.814,1.975-1.688,2.93-2.569
			c1.357-1.249,1.849-2.338,0.758-4.349c-1.108-2.042-1.505-4.602-1.696-6.976c-0.223-2.752-0.349-5.302-3.338-6.574
			c-0.232-0.099-0.266-0.664-0.392-1.011c0.302,0.023,0.625,0.127,0.903,0.059c1.971-0.487,2.54,1.063,3.354,2.473
			c0.29-0.562,0.493-0.953,0.696-1.344c-0.541,4.252,0.56,8.093,1.805,11.903c0.199-0.042,0.398-0.086,0.598-0.129
			c-0.158,0.484-0.315,0.967-0.643,1.969c0.758-0.637,1.079-0.909,1.442-1.214c-0.188,0.873-0.343,1.598-0.499,2.325
			c0.146,0.035,0.294,0.071,0.44,0.107c0.253-0.369,0.507-0.738,0.425-0.619c0.826,0.196,1.177,0.367,1.504,0.329
			c0.252-0.031,0.625-0.52,0.684-0.474c1.166,0.916,2.251,1.246,3.739,0.447c0.62-0.333,1.729,0.241,2.613,0.402
			c0.005,0.222,0.011,0.443,0.014,0.665c-0.695,0.191-1.387,0.517-2.092,0.547c-1.422,0.061-2.859,0.047-4.277-0.088
			c-1.987-0.192-3.583,0.082-4.503,2.196c-0.379,0.866-1.209,1.604-1.98,2.219c-6.6,5.254-13.405,10.188-21.414,13.149
			c-2.439,0.902-5.055,1.31-6.649,3.871c-0.811,1.305-2.327,2.178-3.549,3.216c-0.758,0.642-1.564,1.228-2.32,1.815
			c0.925,1.566,1.972,3.336,3.017,5.107c-0.219,0.123-0.437,0.246-0.656,0.371c-0.348-0.584-0.704-1.162-1.042-1.751
			c-1.762-3.06-1.838-3.089-5.316-2.596c-0.917,0.13-1.845,0.229-2.769,0.241c-5.164,0.066-8.912,2.535-11.709,6.732
			c-0.439,0.658-1.111,1.223-1.791,1.646c-3.262,2.032-5.814,4.696-6.871,8.423c-0.443,1.564-0.853,3.83-0.075,4.914
			c1.953,2.725,1.509,5.533,1.353,8.398c-0.18,3.302,0.672,6.179,2.922,8.656c0.707,0.777,1.405,1.697,1.723,2.676
			c1.724,5.314,6.145,6.578,10.866,7.188c1.154,0.15,2.619-0.493,3.631-1.209c1.798-1.273,3.361-2.881,5.021-4.35
			c0.078,0.062,0.156,0.125,0.234,0.188c-1.705,1.877-3.413,3.756-5.145,5.66c1.873-0.545,3.239,2.975,5.756,0.299
			c-0.387,0.822-0.569,1.21-0.853,1.813c1.023,0,1.832,0,2.596,0c0.062,0.063,0.24,0.411,0.441,0.425
			c0.651,0.047,1.415-0.266,1.95-0.025c3.574,1.607,7.001,0.541,10.265-0.734c3.561-1.394,6.776-3.6,10.588-4.479
			c1.484-0.342,2.943-0.988,4.276-1.74c2.536-1.428,4.957-3.059,7.455-4.553c2.23-1.334,4.484-2.631,6.758-3.887
			c2.2-1.213,4.392-2.463,6.681-3.484c1.523-0.677,3.213-0.979,4.83-1.447c3.027-0.879,5.534-3.146,8.832-3.354
			c0.089-0.006,0.13-0.769,0.113-0.667c1.364-0.141,2.601-0.268,3.837-0.396c-0.024-0.076-0.052-0.15-0.077-0.229
			c1.307,0.064,2.614,0.129,3.99,0.197C264.84,144.854,264.803,144.458,264.756,143.95z M283.488,194.139
			c1.465-1.363,2.843-2.629,4.199-3.916c1.18-1.119,1.467-2.213,0.652-3.873c-2.759-5.623-7.467-9.316-12.369-12.77
			c-8.504-5.996-17.797-9.08-28.752-7.131C260.1,174.967,273.893,181.522,283.488,194.139z M271.924,159.123
			c-7.082,0.063-13.858,1.083-19.936,3.706c5.102,0.117,10.478,0.104,15.834,0.402c5.043,0.283,9.957,1.268,14.759,3.012
			c7.521,2.73,14.159,6.527,18.58,13.82c1.165-1.254,2.204-2.445,3.322-3.561c2.044-2.04,2.163-2.27,0.163-4.244
			c-3.576-3.533-7.271-6.945-10.932-10.393c-0.305-0.288-0.704-0.479-1.068-0.699c-3.263-1.979-6.562-3.529-10.623-2.732
			c-1.938,0.379-4.018,0.003-6.035-0.012c-2.102-0.014-4.203-0.003-6.305-0.003c-0.005,0.163-0.008,0.325-0.011,0.485
			C270.423,158.979,271.173,159.052,271.924,159.123z M264.148,200.499c-13.179-6.473-20.133-16.691-19.727-31.98
			c-4.648,10.426-2.276,18.785,5.307,26.275C253.863,198.878,258.947,199.694,264.148,200.499z M127.915,91.984
			c-0.988,0.782-1.878,1.704-2.948,2.294c-4.369,2.406-5.759,6.284-5.472,10.942c0.039,0.629,0.831,1.546,1.449,1.722
			c0.868,0.248,1.898-0.07,2.815-0.143c-0.521-0.841-1.112-1.797-1.704-2.753c0.091-0.051,0.182-0.104,0.272-0.157
			c0.936,1.081,1.871,2.164,3.224,3.729c-0.404-2.352-0.691-4.022-0.94-5.469c0.101,0.08,0.43,0.342,0.854,0.68
			c0.172-1.449,0.317-2.665,0.449-3.773c0.055,0.027,0.357,0.175,0.659,0.324c0-0.604,0-1.207,0-1.783
			c0.252,0.118,0.585,0.274,1.195,0.559c-0.147-0.794-0.246-1.323-0.352-1.891c0.315,0.207,0.563,0.37,0.948,0.623
			C128.195,95.023,128.046,93.41,127.915,91.984z M243.982,164.798c1.711-4.32,3.332-8.416,4.922-12.428
			c-1.391,0.246-2.908,0.454-4.398,0.789c-3.604,0.811-3.814,1.068-3.771,4.865c0.016,1.345,0.184,2.695,0.389,4.027
			C241.393,163.825,241.765,165.589,243.982,164.798z M275.898,59.3c1.146,0.899,2.131,1.486,2.874,2.293
			c1.491,1.615,3.079,3.216,4.189,5.083c0.797,1.342,1.717,1.421,2.946,1.424c1.145,0.002,2.291,0.106,3.615,0.173
			c0.846-2.115-0.645-3.652-2.026-4.947C284.348,60.376,280.965,57.744,275.898,59.3z M240.41,164.461
			c-0.238-3.239-0.451-6.138-0.668-9.075c-2.795,1.877-5.609,3.77-8.403,5.647c1.764,3.942,4.562,5.737,6.622,4.343
			c-3.233-3.07-3.233-3.07-2.762-5.02C236.924,161.714,238.625,163.055,240.41,164.461z M291.479,69.157
			c1.748,2.129,3.486,4.245,4.971,6.054c1.012,0.377,1.928,1.051,2.705,0.917c0.794-0.138,1.451-1.07,2.211-1.69
			C299.028,68.125,294.783,65.901,291.479,69.157z M227.477,162.747c1.241,2.963,4.242,4.471,6.265,3.416
			c-1.138-1.529-2.297-3.088-3.549-4.77C229.391,161.792,228.433,162.27,227.477,162.747z M323.713,130.981
			c0.156,0.16,0.314,0.321,0.471,0.48c-1.568,1.06-1.498,4.265,0.424,6.67c0.311-2.947,0.588-5.564,0.865-8.184
			c-0.312-0.109-0.623-0.219-0.936-0.328C324.264,130.073,323.988,130.528,323.713,130.981z"/>
		<path fill="none" stroke="#000000" stroke-miterlimit="10" d="M264.756,143.95c0.047,0.508,0.084,0.904,0.135,1.421
			c-1.376-0.067-2.684-0.132-3.992-0.196c0.026,0.076,0.053,0.15,0.078,0.229c-1.235,0.127-2.473,0.255-3.837,0.396
			c0.017-0.103-0.024,0.661-0.112,0.667c-3.299,0.207-5.805,2.477-8.834,3.354c-1.615,0.469-3.305,0.77-4.828,1.449
			c-2.291,1.02-4.48,2.27-6.681,3.483c-2.275,1.255-4.527,2.552-6.758,3.886c-2.499,1.496-4.92,3.125-7.456,4.555
			c-1.333,0.75-2.792,1.396-4.276,1.738c-3.812,0.879-7.027,3.086-10.588,4.479c-3.265,1.277-6.691,2.342-10.265,0.735
			c-0.535-0.24-1.298,0.071-1.95,0.024c-0.202-0.014-0.379-0.361-0.441-0.424c-0.764,0-1.573,0-2.597,0
			c0.284-0.604,0.466-0.992,0.853-1.814c-2.516,2.676-3.883-0.844-5.755-0.297c1.732-1.906,3.438-3.785,5.144-5.662
			c-0.078-0.062-0.155-0.124-0.234-0.186c-1.661,1.467-3.223,3.076-5.021,4.348c-1.012,0.717-2.477,1.359-3.631,1.21
			c-4.721-0.61-9.143-1.874-10.867-7.188c-0.318-0.979-1.016-1.896-1.723-2.676c-2.25-2.477-3.103-5.354-2.922-8.656
			c0.156-2.863,0.601-5.674-1.353-8.397c-0.777-1.084-0.368-3.351,0.076-4.915c1.057-3.728,3.609-6.391,6.87-8.422
			c0.679-0.424,1.352-0.988,1.791-1.646c2.797-4.197,6.547-6.664,11.709-6.732c0.924-0.012,1.854-0.11,2.77-0.24
			c3.478-0.494,3.553-0.465,5.316,2.596c0.338,0.588,0.694,1.166,1.042,1.75c0.219-0.123,0.437-0.248,0.656-0.371
			c-1.046-1.77-2.092-3.54-3.018-5.107c0.756-0.588,1.562-1.172,2.32-1.814c1.223-1.039,2.738-1.912,3.549-3.216
			c1.594-2.562,4.209-2.97,6.649-3.872c8.008-2.96,14.814-7.894,21.413-13.149c0.771-0.613,1.603-1.352,1.979-2.218
			c0.922-2.113,2.516-2.388,4.504-2.197c1.417,0.137,2.856,0.15,4.278,0.089c0.705-0.031,1.395-0.356,2.092-0.547
			c-0.004-0.222-0.009-0.444-0.015-0.665c-0.885-0.162-1.993-0.736-2.612-0.403c-1.488,0.8-2.575,0.469-3.739-0.446
			c-0.061-0.047-0.434,0.443-0.684,0.474c-0.327,0.04-0.678-0.132-1.505-0.329c0.082-0.118-0.172,0.25-0.425,0.619
			c-0.146-0.036-0.293-0.072-0.439-0.107c0.156-0.726,0.311-1.453,0.498-2.325c-0.361,0.306-0.685,0.578-1.441,1.214
			c0.327-1.002,0.484-1.485,0.643-1.969c-0.199,0.044-0.398,0.086-0.598,0.129c-1.246-3.811-2.347-7.65-1.806-11.903
			c-0.202,0.391-0.405,0.782-0.696,1.344c-0.813-1.41-1.383-2.961-3.353-2.474c-0.279,0.069-0.603-0.035-0.904-0.059
			c0.126,0.348,0.16,0.913,0.392,1.011c2.99,1.271,3.116,3.822,3.338,6.574c0.191,2.374,0.588,4.933,1.695,6.976
			c1.092,2.011,0.601,3.101-0.756,4.35c-0.955,0.881-1.92,1.754-2.93,2.569c-0.158,0.126-0.584-0.079-0.804-0.116
			c-1.353,1.148-2.808,2.386-4.392,3.732c-0.234-0.866-0.455-1.683-0.675-2.502c0.219,1.71,0.447,3.329-1.826,4.104
			c-0.14-0.447-0.271-0.874-0.434-1.401c-0.189,0.779-0.221,1.56-0.584,2.131c-0.185,0.291-0.962,0.204-1.723,0.33
			c-0.12,0.215-0.489,0.883-0.859,1.55c-0.154-0.067-0.309-0.135-0.463-0.202c-0.042-0.838-0.083-1.676-0.125-2.516
			c-0.084-0.001-0.169-0.003-0.253-0.005c-0.043,0.856,0.03,1.741-0.176,2.555c-0.111,0.44-0.701,0.759-1.075,1.133
			c-0.265-0.321-0.532-0.641-0.526-0.634c-1.101,0.894-2.308,1.875-3.686,2.995c-0.187-0.711-0.289-1.104-0.257-0.982
			c-1.151,0.736-2.433,1.556-4.04,2.583c-0.628-1.957-0.693-3.779-1.636-4.633c-0.891-0.806-1.443-1.898-2.419-2.69
			c-1.48-1.203-2.182-3.362-3.205-5.101c-0.106,0.381-0.281,1.009-0.488,1.752c-0.98-0.206-1.973-0.416-2.965-0.626
			c4.622,2.509,7.513,6.366,9.442,10.391c-3.193,2.971-6.07,5.789-9.123,8.4c-0.879,0.752-2.234,1.127-3.424,1.297
			c-2.454,0.355-4.946,0.455-6.998,0.625c-1.521-1.699-2.761-3.564-4.45-4.828c-1.642-1.23-2.533-2.34-1.46-4.442
			c-0.223-0.03-0.446-0.062-0.669-0.093c-0.414,1.076-0.828,2.15-1.323,3.441c-2.27,0-4.729,0-7.434,0
			c-0.819-4.703-1.596-9.441,1.502-14.011c-2.55,0.014-3.221-2.328-4.522-3.951c-0.202-0.25-0.295-0.914-0.129-1.083
			c1.869-1.908,2.028-4.577,3.045-6.852c0.841-1.88,2.141-2.428,3.948-2.554c2.488-0.172,4.976-0.373,7.457-0.63
			c2.594-0.268,3.584-1.278,3.515-3.609c-0.671,0.231-1.431,0.29-1.897,0.691c-2.091,1.796-4.536,2.231-7.179,2.226
			c-1.271-0.002-2.546,0.37-3.815,0.35c-0.67-0.009-1.514-0.323-1.964-0.797c-1.392-1.468-2.712-3.066-1.163-5.334
			c-0.442,0.503-0.885,1.007-1.328,1.511c-0.125-0.081-0.25-0.162-0.375-0.242c0.652-1.091,1.304-2.183,1.956-3.274
			c-0.109-0.069-0.218-0.139-0.327-0.207c-0.658,0.935-1.314,1.87-1.863,2.65c-1.595-0.457-3.199-0.918-4.803-1.378
			c-0.166,0.279-0.332,0.558-0.499,0.837c4.474,0.579,6.02,4.09,7.982,7.435c-1.318,2.685-2.701,5.553-4.153,8.389
			c-0.179,0.348-0.712,0.676-1.114,0.722c-2.692,0.311-5.391,0.704-8.091,0.735c-1.438,0.017-2.883-0.641-4.327-0.985
			c-0.672-0.161-1.349-0.3-2.024-0.45c-0.084,0.263-0.171,0.526-0.256,0.79c1.385,0.51,2.758,1.409,4.157,1.452
			c3.118,0.094,6.265-0.112,9.371-0.462c1.354-0.153,1.985,0.084,2.97,1.127c2.226,2.354,2.732,4.633,2.075,7.866
			c-0.631,3.103-0.714,6.417,0.449,9.693c0.595,1.678,0.672,3.605,1.176,5.428c0.4,1.441-1.069,3.404-1.723,5.131
			c-0.141,0.371-0.349,0.721-0.525,1.078c0.172,0.127,0.344,0.252,0.515,0.376c0.505-0.791,1.168-1.525,1.484-2.386
			c0.857-2.338,1.608-4.693,4.655-4.85c-1.286-0.309-2.483-0.598-3.691-0.888c-0.042-0.747-0.228-1.493-0.068-2.155
			c0.114-0.477,0.657-1.16,1.068-1.203c2.333-0.252,4.728-0.664,7.011-0.355c1.269,0.172,2.506,1.508,3.49,2.566
			c0.778,0.84,1.147,2.059,1.78,3.264c-3.274,1.598-5.843,4.025-7.864,7.166c-0.703,1.092-2.362,1.52-3.409,2.449
			c-1.209,1.074-2.223,2.365-3.965,3.602c-0.104-1.553-0.206-3.107-0.323-4.845c-0.36,0.03-1.123,0.099-1.973,0.171
			c0.609,1.871-1.004,4.732,2.211,6.008c-0.599,1.615-1.16,3.129-1.727,4.656c-1.924,0.062-2.468-1.326-3.032-2.619
			c-1.134-2.605-2.296-5.204-3.29-7.863c-0.941-2.515-1.739-5.087-2.47-7.671c-0.175-0.617,0.168-1.383,0.268-2.056
			c-1.202,0.264-1.409-0.364-0.708-2.333c0.116-0.327,0.219-0.66,0.52-1.574c-0.718,1.042-1.104,1.604-1.771,2.572
			c-1.972-3.227-3.789-6.201-5.606-9.174c0.251,3.641,1.925,6.584,4.454,9.141c0.464,0.469,1.029,1.088,1.08,1.678
			c0.372,4.299,2.161,8.081,4.033,11.863c0.932,1.883,1.659,3.865,2.472,5.789c-5.98,2.697-6.08,2.458-11.573,0.578
			c0.712,0.789,1.202,1.332,1.905,2.111c-1.04,0.803-2.058,1.588-3.076,2.375c0.116,0.178,0.233,0.357,0.349,0.535
			c0.982-0.629,1.939-1.301,2.955-1.869c0.594-0.332,1.266-0.629,1.931-0.71c1.193-0.144,2.407-0.134,3.612-0.149
			c1.624-0.02,3.248-0.006,5.52-0.006c-0.863,0.736-1.297,1.322-1.876,1.564c-3.268,1.373-6.514,2.848-9.891,3.883
			c-1.211,0.371-3.031,0.01-4.117-0.707c-2.839-1.875-5.622-3.049-9.012-1.674c-0.355,0.143-0.918-0.131-1.353-0.297
			c-2.582-0.98-5.092-2.219-7.745-2.924c-3.176-0.844-5.01-2.703-5.962-5.761c-1.163-3.732-2.319-7.482-3.773-11.106
			c-1.592-3.963-1.092-7.67,0.663-11.354c0.183-0.385,0.628-0.76,1.035-0.902c2.044-0.723,4.039-0.623,5.977,0.459
			c2.182,1.219,2.993,2.898,1.587,5.436c0.208,0.027,0.417,0.057,0.626,0.086c0.587-0.627,1.191-1.242,1.76-1.887
			c3.201-3.629,6.439-3.1,8.297,1.365c1.379,3.316,1.129,4.723-1.285,9.548c0.919-0.815,1.837-1.632,2.807-2.491
			c3.551,0.887,5.552,3.3,7.641,9.132c1.267,0.561,2.293,1.016,3.317,1.469c0.051-0.061,0.103-0.121,0.154-0.184
			c-0.851-0.74-1.701-1.482-2.55-2.225c0.078-0.115,0.155-0.232,0.234-0.348c1.188,0.818,2.375,1.637,3.562,2.455
			c0.073-0.105,0.146-0.211,0.22-0.316c-0.428-0.398-0.855-0.797-1.281-1.197c0.047-0.086,0.096-0.172,0.143-0.26
			c0.697,0.266,1.393,0.531,2.091,0.797c0.108-0.135,0.214-0.27,0.322-0.405c-0.325-0.312-0.626-0.864-0.978-0.897
			c-4.02-0.393-5.857-3.416-7.893-6.294c-0.659-0.932-1.772-1.532-2.584-2.375c-0.291-0.301-0.304-0.867-0.618-1.863
			c-0.267,0.717-0.46,1.235-0.653,1.754c-0.222-0.152-0.443-0.305-0.665-0.457c0.404-0.961,0.809-1.924,1.295-3.079
			c-0.375,0.202-0.628,0.337-0.637,0.343c-0.803-1.922-1.822-3.814-2.337-5.834c-0.256-1,0.205-2.342,0.707-3.346
			c1.606-3.213,3.96-5.258,7.914-5.067c2.102,0.102,4.234-0.413,6.354-0.649c-0.021-0.26-0.044-0.519-0.066-0.778
			c-1.061,0-2.127-0.068-3.182,0.014c-2.463,0.191-4.932,0.696-7.38,0.6c-1.464-0.056-3.099-0.735-3.734-2.435
			c-0.359-0.961-0.597-1.967-0.961-3.199c-0.735,2.546,0.09,4.738,2.467,7.107c-0.339,0.547-0.682,1.102-1.085,1.753
			c-0.287-0.426-0.587-0.87-0.943-1.396c-0.206,1.016-0.396,1.949-0.613,3.023c-0.27-0.325-0.442-0.531-0.617-0.741
			c-0.077,0.1-0.206,0.206-0.188,0.255c0.788,2.051,0.082,2.674-2.146,2.742c-1.913,0.059-3.804,0.768-5.955,1.246
			c-2.936-3.238-3.235-6.473-0.725-10.641c0.8-1.328,1.95-2.476,1.292-4.393c-0.233-0.679,0.703-1.757,1.29-3.066
			c-0.686,0.624-1.06,0.966-1.708,1.556c0.59-2.403,1.089-4.43,1.586-6.455c-0.287,0-0.655,0-1.35,0
			c2.31-2.347,4.412-4.485,6.601-6.708c0.525,1.079,0.936,1.918,1.524,3.124c0.578-1.018,0.94-1.654,1.301-2.29
			c-0.066-0.064-0.133-0.127-0.199-0.19c-0.23,0.179-0.46,0.357-0.822,0.639c0-0.836-0.325-1.921,0.052-2.292
			c2.794-2.748,4.976-6.458,9.581-6.511c0,1.294,0,2.707,0,4.119c0.285,0.05,0.57,0.099,0.856,0.147
			c0.303-0.628,0.649-1.241,0.903-1.889c0.675-1.721,1.188-3.518,1.999-5.168c0.783-1.594,1.806-3.123,4.033-2.764
			c-0.308-0.104-0.615-0.208-0.932-0.315c0.047-0.152,0.049-0.344,0.128-0.384c4.129-2.069,8.197-4.285,12.437-6.1
			c1.622-0.695,3.646-0.697,5.47-0.622c3.287,0.136,5.945-1.015,8.365-3.128c4.039-3.527,10.931-5.364,16.963-4.37
			c-2.145,0.788-3.755,1.376-5.603,2.054c-0.157,0.831-1.857,1.25-8.095,1.53c-0.032,0.186-0.064,0.371-0.097,0.558
			c1.438,0.182,2.956,0.744,4.296,0.462c2.551-0.538,4.985-1.612,7.499-2.363c2.688-0.804,5.415-1.479,8.114-2.242
			c0.463-0.131,0.975-0.331,1.302-0.659c3.217-3.218,7.205-3.757,11.484-3.464c1.896,0.131,4.017,0.796,5.151-1.654
			c0.136-0.293,0.739-0.539,1.115-0.523c4.178,0.162,8.359,0.316,12.525,0.637c0.839,0.063,1.622,0.812,2.665,1.369
			c-1.064,1.437-2.027,2.735-2.991,4.033c0.207,0.179,0.414,0.356,0.62,0.535c0.282-0.505,0.564-1.011,0.838-1.5
			c0.402,0.336,0.63,0.523,0.855,0.712c1.002-1.895,2.955-1.728,4.608-1.935c1.998-0.25,4.048-0.068,6.069-0.18
			c0.756-0.042,1.555-0.264,2.23-0.61c3.434-1.761,9.406-0.422,11.634,2.698c0.046,0.064-0.306,0.412-0.589,0.781
			c1.086,0,1.984,0,2.973,0c-0.23,0.297-0.371,0.478-0.441,0.567c3.615,0.119,7.041,0.619,9.437,3.896
			c-0.683-0.346-1.365-0.693-2.537-1.287c0.608,0.71,0.839,0.981,1.202,1.404c-1.242,0-2.297-0.068-3.338,0.016
			c-1.736,0.139-3.46,0.435-5.197,0.547c-1.473,0.095-2.955,0.019-4.315,0.019c0.372,1.267,2.127,2.132,3.878,1.641
			c3.311-0.933,6.752-1.455,10.016-0.337c2.021,0.693,3.721,2.336,5.533,3.599c0.088,0.061-0.127,0.557-0.203,0.863
			c0.41,0.304,0.984,0.731,1.559,1.157c-0.076,0.125-0.15,0.248-0.227,0.374c1.001,1.078,2.003,2.155,3.154,3.393
			c-0.846,0.089-1.609,0.169-2.375,0.248c-0.002,0.091-0.002,0.181-0.004,0.271c0.363,0.07,0.727,0.14,1.209,0.231
			c-1.201,2.05-2.36,4.031-3.521,6.012c0.121,0.084,0.242,0.169,0.363,0.253c1.267-1.484,2.533-2.966,3.799-4.449
			c0.09,0.16,0.248,0.437,0.503,0.891c0.282-0.901,0.521-1.658,0.761-2.415c0.115,0.002,0.234,0.003,0.35,0.004
			c0.047,0.279,0.094,0.557,0.105,0.619c0.683-0.309,1.45-0.989,2.09-0.887c2.768,0.445,5.724,0.588,7.543,3.295
			c1.163,1.73,2.396,3.411,3.781,5.367c-0.635-0.207-0.986-0.323-1.787-0.584c0.814,1.365,1.445,2.421,2.33,3.904
			c1.488-2.974,3.42-4.25,6.24-3.494c2.543,0.682,3.683,2.425,5.143,7.667c-0.947,0.298-1.9,0.599-2.855,0.899
			c0.016,0.138,0.03,0.275,0.045,0.412c0.917,0.18,1.844,0.316,2.745,0.55c0.956,0.248,1.89,0.587,3.181,0.998
			c-0.779,0.203-1.209,0.314-1.76,0.458c0.252,0.131,0.354,0.225,0.466,0.237c2.804,0.318,3.538,1.072,3.913,3.826
			c0.27,1.981,0.537,3.974,1.018,5.908c0.312,1.254,1.011,2.413,1.639,3.852c-1.832,0.201-3.543,0.388-5.252,0.575
			c-0.014,0.234-0.023,0.468-0.037,0.703c2,0.473,4.01,0.91,5.994,1.438c0.8,0.212,1.598,0.544,2.288,0.991
			c0.246,0.16,0.171,0.818,0.29,1.543c-0.057-0.004,0.434,0.029,1.477,0.1c-0.781,0.697-1.191,1.064-1.729,1.544
			c0.596,0,1.096,0,1.594,0c0.061,0.155,0.121,0.31,0.184,0.464c-0.451,0.254-0.898,0.509-1.461,0.828
			c0.5,0.121,0.982,0.238,1.465,0.357c0.033,0.138,0.066,0.277,0.098,0.416c-1.066,0.308-2.133,0.615-3.2,0.924
			c0.021,0.131,0.044,0.263,0.065,0.395c0.977-0.149,1.953-0.299,2.935-0.451c0.022,1.379,0.022,1.379-3.11,1.714
			c0.916,0.144,1.361,0.255,1.811,0.274c0.457,0.02,0.918-0.049,1.469,0.256c-0.421,0.262-0.84,0.523-1.07,0.668
			c0.57,0.311,1.275,0.602,1.828,1.074c0.116,0.098-0.326,0.854-0.398,1.033c0.772,0.439,1.637,0.857,2.385,1.428
			c0.127,0.096-0.246,0.848-0.367,1.234c0.268,0.129,1.074,0.324,1.084,0.554c0.084,1.819,0.139,3.659-0.059,5.463
			c-0.094,0.842-0.768,1.619-1.178,2.426c-0.287-0.258-0.574-0.518-0.861-0.777c-0.666-1.092-1.289-2.214-2.014-3.266
			c-0.641-0.928-1.394-1.779-2.268-2.878c-0.457-0.171-1.379-0.514-2.49-0.924c0.232-0.479,0.424-0.876,0.682-1.406
			c-0.627,0.275-1.17,0.51-2.207,0.963c0.455-0.834,0.641-1.174,0.678-1.242c-0.943-0.145-1.97-0.303-3.254-0.498
			c0.479-0.607,0.807-1.025,1.137-1.443c-0.059-0.07-0.115-0.143-0.172-0.214c-0.494,0.354-0.987,0.71-1.48,1.063
			c-0.072-0.067-0.143-0.135-0.215-0.202c0.342-0.478,0.682-0.955,1.023-1.433c-0.191,0.082-0.383,0.166-0.573,0.248
			c-0.386-0.855-0.851-1.684-1.128-2.572c-0.242-0.775-0.138-1.67-0.428-2.418c-0.371-0.947-0.488-1.277-0.164-1.639
			c-0.436-0.141-1.203-0.164-1.398-0.51c-0.258-0.449-0.063-1.158-0.063-1.721c-1.204,0.219-1.591-0.291-0.715-1.65
			c-0.451,0.051-0.89,0.102-1.698,0.191c0.543-0.755,0.881-1.223,1.283-1.784c-0.842,0.277-1.605,0.529-2.369,0.781
			c-0.078-0.158-0.154-0.316-0.232-0.475c0.672-0.743,1.344-1.486,2.018-2.231c-0.055-0.06-0.109-0.121-0.164-0.181
			c-1.098,0.829-2.195,1.655-3.293,2.483c-0.143-0.142-0.287-0.281-0.431-0.423c0.267-1.754,0.536-3.508,0.804-5.263
			c0.121,0.026,0.242,0.053,0.363,0.081c-0.334-0.768-0.666-1.537-1-2.305c-0.203,3.673-1.938,6.469-4.762,8.737
			c0.119,0.165,0.238,0.331,0.357,0.495c0.707-0.113,1.413-0.227,2.121-0.336c2.943-0.458,4.549,0.217,5.74,2.881
			c1.379,3.084,2.502,6.283,3.742,9.452c-2.217,0.935-3.926,2.054-5.758,2.313c-1.738,0.246-3.604-0.409-5.634-0.699
			c0.696,0.565,1.319,1.076,1.948,1.58c1.379,1.107,1.328,3.001-0.203,3.578c-1.499,0.563-2.967,1.082-3.972,2.416
			c-0.22-0.197-0.438-0.394-0.622-0.559c-0.23,0.613-0.468,1.244-0.705,1.877c-0.111-0.03-0.221-0.061-0.332-0.092
			c0.109-0.82,0.219-1.643,0.383-2.875c-0.453,0.769-0.71,1.202-0.926,1.568c-1.705-4.113-5.875-5.05-9.1-7.259
			c0.258-0.336,0.557-0.725,0.907-1.181c-0.914,0.363-1.764,0.702-2.612,1.04c-0.13-0.231-0.26-0.461-0.391-0.693
			c0.635-0.434,1.27-0.867,1.906-1.301c-0.113-0.145-0.225-0.291-0.338-0.436c-0.932,0.598-1.864,1.196-2.797,1.795
			c-0.122-0.171-0.244-0.344-0.365-0.516c0.947-0.828,1.895-1.656,2.84-2.484c-0.055-0.084-0.111-0.168-0.168-0.253
			c-0.785,0.495-1.568,0.991-2.354,1.485c-0.09-0.084-0.18-0.17-0.27-0.254c0.809-0.891,1.618-1.783,2.802-3.086
			c-0.94,0.492-1.435,0.752-1.931,1.012c-0.15-0.086-0.303-0.171-0.457-0.256c0.602-1.031,1.203-2.062,1.826-3.131
			c-0.371,0.18-0.814,0.396-1.289,0.629c0.061-0.711,0.116-1.357,0.203-2.385c3.812-0.693,8.046-1.609,12.326-2.148
			c1.266-0.16,2.666,0.748,4.004,1.168c0.361-1.16-0.088-2.063-1.805-2.291c-1.323-0.176-2.723-0.142-4.042,0.08
			c-3.226,0.545-6.423,1.255-9.634,1.891c-0.346,0.067-0.799,0.24-1.036,0.096c-2.095-1.281-4.157-2.617-6.217-3.955
			c-0.397-0.259-0.741-0.6-1.031-0.837c-0.94,0-1.987,0-3.663,0c1.02-1.331,1.709-2.232,2.398-3.133
			c-0.037-0.076-0.074-0.153-0.111-0.23c-0.717,0.604-1.437,1.207-2.156,1.809c-0.131-0.057-0.262-0.115-0.393-0.172
			c0.219-0.726,0.438-1.45,0.778-2.586c-0.569,0.604-0.884,0.935-1.225,1.295c-1.024-2.06-2.454-2.699-4.392-2.157
			c1.427,1.298,2.927,2.664,4.799,4.367c-1.333,0.365-1.926,0.528-2.025,0.555c3.01,1.304,6.265,2.743,9.546,4.125
			c1.956,0.823,2.567,2.265,2.2,4.261c-0.301,1.639-0.568,3.283-0.885,5.12c-0.477-0.446-0.74-0.691-1.175-1.099
			c0.161,0.852,0.276,1.461,0.485,2.564c-1.479-0.549-2.641-0.979-3.799-1.408c0.008-0.02-0.143,0.388-0.293,0.795
			c-0.477-0.225-0.953-0.449-1.445-0.68c-0.064,0.125-0.215,0.412-0.491,0.939c-0.425-0.664-0.712-1.115-1.102-1.725
			c-0.047,0.537-0.082,0.953-0.101,1.17c-1.481,0-2.84,0-4.2,0c-2.854,1.123-5.571,2.344-9.126,2.252
			c-3.281-0.086-3.756,0.615-10.066-2.602c-0.059,1.91,0.87,2.61,6.301,4.631c-0.654,1.406-1.332,2.781-1.943,4.187
			c-0.959,2.212-3.119,1.906-4.902,2.354c-1.027,0.257-2.162,0.17-3.138,0.535c-3.498,1.31-6.728,3.126-9.593,5.553
			c-0.191,0.16-0.453,0.236-1.048,0.539c0.31-0.836,0.485-1.309,0.709-1.92c-1.094,0.668-2.326,1.594-2.104-0.453
			c-2.459-0.861-4.928-1.727-7.398-2.594c-0.114,0.305-0.229,0.607-0.343,0.91c0.734,0.256,1.491,0.464,2.198,0.779
			c1.497,0.666,2.965,1.391,4.447,2.087c1.877,0.882,2.398,2.31,2.158,4.354c-0.416,3.562,1.034,4.947,5.218,5.023
			c-0.945-0.756-1.622-1.488-2.454-1.926c-2.398-1.262-2.453-1.385-0.51-3.461c-0.375,0-0.675,0-0.942,0
			c-0.389-2.207,1.475-2.641,2.797-3.516c3.484-2.295,7.115-4.262,11.391-4.539c1.662-0.108,3.336-0.018,5.156-0.391
			c-0.643-0.43-1.286-0.857-1.791-1.194c0.895-1.603,1.678-3.265,2.719-4.749c0.455-0.652,1.379-1.201,2.175-1.353
			c4.887-0.932,9.769-2.027,14.706-2.504c5.676-0.549,11.107,0.887,15.859,4.066c1.764,1.18,2.98,3.186,4.426,4.83
			c0.324,0.369,0.566,0.811,0.951,1.375c-0.395,1.399-0.895,3.17-1.396,4.939c0.193,0.068,0.385,0.135,0.576,0.201
			c0.742-1.491,1.399-3.031,2.24-4.467c2.511-4.293,7.523-6.136,11.994-4.391c2.379,0.928,4.193,2.432,4.412,5.242
			c0.211,2.704-0.349,3.441-3.027,3.867c-0.632,0.1-1.27,0.162-2.047,0.261c-0.318-0.823-0.629-1.632-1.08-2.804
			c-0.686,1.891-0.728,3.179,0.168,4.799c0.828,1.502,0.865,3.443,1.281,5.332c1.445-0.68,0.986-2.238,1.061-3.605
			c0.051-0.979,0.146-2.795,0.295-2.803c1.623-0.082,3.078-1.723,4.828-0.562c2.09,1.389,3.309,3.258,3.52,5.797
			c0.109,1.32,0.383,2.627,0.646,4.361c0.637-0.604,1.217-0.973,1.164-1.125c-1.051-3.064-0.697-6.662-3.495-9.098
			c-0.423-0.369-0.294-1.373-0.438-2.186c-0.457,0.177-1.117,0.434-1.776,0.689c-0.063-0.091-0.126-0.182-0.187-0.273
			c0.346-0.293,0.691-0.588,1.027-0.871c-2.139-0.865,0.322-1.084,0.182-1.501c-2.15-4.866-5.771-7.534-11.1-8.044
			c-0.223-1.342,1.018-1.775,2.268-2.218c0.535-0.189,1.057-0.424,1.578-0.658c4.257-1.92,6.404-1.48,9.791,2.041
			c1.139,1.181,2.422,2.271,3.325,3.613c0.753,1.118,1.821,3.152,1.386,3.708c-0.934,1.187,0.082,1.917-0.064,2.807
			c-0.344,2.068,0.383,3.841,1.314,5.66c0.379,0.745-0.072,1.921-0.156,2.899c-0.259,2.984-1.869,5.727-4.39,7.334
			c-0.112-0.496-0.211-0.938-0.312-1.379c-0.099,0.131-0.197,0.26-0.297,0.389c-0.781-0.752-1.562-1.504-2.584-2.486
			c0.301,0.871,0.521,1.508,0.697,2.012c-0.997,0.654-1.917,1.26-3.165,2.08c1.31,0.211,2.319,0.373,3.53,0.568
			c0.531,0.998,0.77,2.395-0.859,2.956c-0.889,0.306-2.064-0.224-2.984-0.358c0.055,0.106,0.311,0.607,0.566,1.109
			c-0.141,0.158-0.283,0.316-0.426,0.474c-0.947-0.714-1.895-1.427-3.248-2.446c0.561,0.877,0.893,1.398,1.227,1.92
			c-0.051,0.156-0.102,0.312-0.152,0.469c-1.82-0.587-3.641-1.176-5.631-1.818c0.156-0.246-0.137,0.312-0.193,0.289
			c-1.584-0.646-3.146-1.354-4.783-2.08c-1.232,1.557-1.564-0.711-2.432-1.129c-0.146,0.283-0.291,0.564-0.551,1.066
			c-0.516-0.735-0.941-1.342-1.445-2.057c0,0.479,0,0.848,0,1.228c-2.024-0.636-3.943-1.239-5.875-1.846
			c-0.631,1.846-1.467-0.018-1.775-0.185c-3.383,0-6.309,0.314-9.133-0.088c-2.805-0.398-5.509-1.516-8.225-2.309
			c-0.987,1.449-1.643-0.037-2.449-0.824c-0.094,0.365-0.176,0.695-0.319,1.261c-0.583-0.639-0.999-1.095-1.583-1.735
			c0.084,0.609,0.139,0.996,0.287,2.062C265.889,145.3,265.402,144.719,264.756,143.95z M260.702,89.292
			c-0.36-0.855-0.702-1.662-1.05-2.485c-0.094,0.029-0.51,0.155-0.926,0.28c0.077-0.813,0.153-1.627,0.23-2.441
			c-0.042-0.105-0.083-0.209-0.125-0.314c-0.229,0.571-0.456,1.143-0.82,2.056c-0.831-1.458-1.291-2.266-1.785-3.131
			c0.719-0.782,1.388-1.51,2.34-2.546c-0.738,0.245-1.116,0.371-1.871,0.623c0.391-1.084,0.66-1.836,0.93-2.589
			c-0.134,0.014-0.268,0.027-0.4,0.042c0-0.874,0-1.748,0-2.569c-2.135,0.882-0.068-1.927-1.279-2.046
			c0.281-0.952,0.564-1.901,0.834-2.809c-0.354,0.244-0.865,0.598-1.375,0.952c-0.104-0.083-0.209-0.166-0.314-0.249
			c0.479-0.928,0.959-1.857,1.651-3.202c-0.821,0.772-1.29,1.212-1.798,1.69c-0.723-2.786,0.803-4.353,2.93-5.899
			c-2.603,0.275-4.414-0.718-6.016-2.435c0.293,1.062,0.867,1.816,1.321,2.64c0.312,0.569,0.595,1.219,0.649,1.853
			c0.168,2.024,0.064,4.08,0.369,6.078c0.318,2.098,1.258,4.123,1.413,6.218c0.104,1.418-0.233,3.39-1.167,4.242
			c-1.446,1.32-3.35,0.521-4.861-0.669c-0.035-0.026-0.195,0.107-0.402,0.229c1.666,2.372,3.916,2.132,6.141,1.462
			c1.242,1.621,2.441,3.121,3.557,4.679c0.34,0.473,0.783,1.257,0.611,1.644c-1.439,3.236-2.766,6.565-4.634,9.549
			c-1.085,1.731-2.654,3.641-5.319,3.258c-0.07-0.01-0.16,0.125-0.252,0.2c0.404,0.235,0.789,0.456,1.698,0.984
			c-1.515,0.186-2.443,0.299-3.933,0.483c1.145,0.281,1.76,0.432,2.385,0.585c-0.059,0.101-0.084,0.207-0.129,0.215
			c-0.342,0.067-0.688,0.114-1.049,0.172c0.529,0.541,0.529,0.541-1.44,1.741c0.198,0.276,0.394,0.554,0.591,0.831
			c-0.084,0.139-0.17,0.279-0.256,0.42c-0.961-0.471-1.922-0.939-3.06-1.494c0.501,0.659,0.866,1.141,1.229,1.619
			c-0.1,0.145-0.201,0.287-0.301,0.432c-0.929-0.513-1.857-1.023-2.803-1.545c-0.012,0.232-0.024,0.521-0.042,0.855
			c-1.184-0.494-2.302-0.963-3.422-1.429c-0.192,0.252-0.387,0.504-0.58,0.757c0.853,0.526,1.705,1.054,2.558,1.581
			c-0.12,0.265-0.238,0.532-0.359,0.8c-1.037-0.098-2.07-0.193-3.068-0.287c0.161,0.219,0.443,0.605,0.725,0.99
			c-0.137,0.137-0.273,0.275-0.41,0.412c-0.635-0.539-1.27-1.078-2.062-1.75c0.315,0.773,0.56,1.373,0.88,2.161
			c-3.847-0.044-5.673-2.666-7.966-4.974c0.305,1.355,0.609,2.709,0.85,3.767c1.251,0.706,2.398,1.353,3.711,2.093
			c-0.801,0.324-1.44,0.582-2.08,0.84c0.025,0.066,0.053,0.131,0.08,0.196c0.615-0.052,1.233-0.106,1.461-0.126
			c-0.135,2.541-0.271,5.121-0.407,7.702c0.231,0.017,0.461,0.03,0.692,0.047c0.346-1.922,0.693-3.845,1.051-5.833
			c0.654,0.213,1.237,0.402,1.709,0.555c-0.473-0.592-0.947-1.186-1.422-1.781c0.713-0.041,1.424-0.074,2.136-0.129
			c0.146-0.012,0.285-0.104,0.488-0.18c-0.703-0.252-1.298-0.467-1.868-0.674c1.815-0.718,3.448-1.381,5.095-2.008
			c0.985-0.375,1.999-0.994,2.989-0.977c2.725,0.049,5.188-0.432,7.136-2.479c2.068,2.771,3.227,3.354,5.027,2.441
			c-0.855-0.462-1.668-0.848-2.428-1.318c-1.898-1.174-2.117-2.986-0.479-3.712c-0.246-0.13-0.491-0.261-0.941-0.5
			c1.171-0.636,1.949-1.47,2.697-1.986c2.224-1.535,2.812-4.011,4.312-5.904c1.465-1.848,0.875-4.941,3.677-5.909
			c-0.146-0.26-0.292-0.519-0.706-1.257c2.799,0,5.338,0,7.878,0C266.477,88.846,263.889,87.225,260.702,89.292z M216.557,49.365
			c-0.249-0.026-0.498-0.052-0.747-0.079c-0.229,0.598-0.457,1.196-0.688,1.795c-0.216,0.557-0.297,1.471-0.675,1.617
			c-3.09,1.202-6.163,2.679-9.388,3.245c-3.115,0.547-6.29,0.894-8.162,3.537c-1.773,2.502-2.88,5.484-4.218,8.283
			c-0.195,0.411,0,0.991-0.072,1.481c-0.157,1.076-0.266,2.175-0.587,3.206c-0.314,1.013-1.063,1.91-1.27,2.929
			c-0.431,2.113-0.34,4.368-1.001,6.39c-0.686,2.096-2.042,3.967-3.032,5.972c-0.36,0.729-0.272,1.822-0.797,2.306
			c-3.798,3.498-3.771,9.775-0.634,13.89c0.492,0.646,0.717,1.496,1.113,2.354c0.955-0.386,2.039-0.823,2.884-1.164
			c-1.095-0.861-2.344-1.496-3.1-2.5c-2.608-3.467-2.241-8.194,0.589-11.436c0.607-0.694,0.973-1.641,1.306-2.525
			c1.047-2.788,1.66-5.928,5.594-6.066c0.224-0.008,0.431-0.447,0.821-0.88c-0.928-0.211-1.612-0.367-2.207-0.501
			c-0.128-0.389-0.256-0.779-0.385-1.169c-0.245,0.016-0.489,0.033-0.734,0.05c0.953-3.061,1.916-6.117,2.847-9.184
			c0.141-0.464,0.207-0.974,0.193-1.459c-0.198-6.479,4.586-11.611,11.04-11.988c1.454-0.085,2.909-0.568,4.312-1.026
			c2.76-0.9,5.485-1.907,8.221-2.882c0.499-0.177,0.979-0.409,1.468-0.616c0.124-0.178,0.246-0.356,0.37-0.534
			C217.528,52.298,215.889,51.805,216.557,49.365z M218.849,65.519c0.188-0.489,0.251-1.355,0.708-1.702
			c1.077-0.819,2.306-1.465,3.537-2.047c3.139-1.488,6.312-2.903,9.472-4.348c-0.056-0.167-0.109-0.332-0.164-0.5
			c-0.417,0.033-0.834,0.064-1.516,0.117c0.457-0.62,0.758-1.026,1.173-1.589c-0.636,0.23-1.087,0.392-1.539,0.555
			c-0.091-0.127-0.179-0.254-0.269-0.38c0.459-0.55,0.92-1.1,1.586-1.896c-0.744,0.281-1.258,0.475-2.327,0.878
			c0.802-1.03,1.2-1.54,1.624-2.084c-0.545,0.035-1.02,0.066-1.494,0.097c-0.062-0.154-0.123-0.309-0.186-0.463
			c0.588-0.377,1.176-0.754,2.053-1.318c-0.766,0.035-1.253,0.058-1.737,0.079c-0.036-0.122-0.071-0.245-0.106-0.367
			c1.402-0.82,2.805-1.64,4.197-2.454c-0.624-0.985-2.406-0.793-4.55,0.793c-0.136-0.405-0.266-0.792-0.429-1.279
			c-0.134,0.506-0.238,0.905-0.211,0.803c-2.015-0.203-3.892-0.393-5.768-0.582c-0.014,0.184-0.026,0.369-0.041,0.554
			c1.563,0.443,3.152,0.814,4.672,1.375c0.455,0.168,0.932,0.819,1.031,1.322c0.415,2.072,0.689,4.171,1.042,6.438
			c-0.224,0.113-0.65,0.352-1.092,0.554c-2.395,1.104-4.728,2.385-7.208,3.24c-2.312,0.797-3.985,2.54-5.751,3.921
			c-1.397,1.094-3.569,0.834-4.265,3.113c-0.224-0.758-0.328-1.115-0.373-1.262c-0.284,0.688-0.617,1.492-0.95,2.297
			c-0.166-0.056-0.332-0.112-0.498-0.17c-0.15-1.109-0.299-2.218-0.45-3.329c-0.121,0.018-0.244,0.035-0.366,0.053
			c0.045,0.934,0.09,1.869,0.135,2.801c-0.154,0.049-0.31,0.099-0.464,0.146c-0.47-1.043-0.94-2.085-1.39-3.083
			c-0.076,0.288-0.187,0.711-0.376,1.432c-0.555-0.664-0.95-1.135-1.345-1.607c-0.147,0.091-0.295,0.184-0.443,0.275
			c0.293,0.577,0.496,1.229,0.9,1.714c0.491,0.59,1.203,0.993,1.73,1.559c1.958,2.109,2.023,4.752,2.029,7.412
			c0.005,1.762,0.219,3.252,2.336,3.979c1.727,0.592,2.914,1.959,2.841,4.092c-0.019,0.585,0.53,1.189,0.819,1.785
			c0.284-0.693,0.898-1.441,0.795-2.069c-0.471-2.859-2.422-4.526-5.061-5.525c0.262-0.657,0.751-1.275,0.671-1.806
			c-0.214-1.392-0.486-2.837-1.086-4.094c-0.854-1.79-0.096-3.012,1.223-3.818C214.188,67.775,216.572,66.694,218.849,65.519z
			 M268.319,71.2c-0.855-1.118-1.417-1.852-1.979-2.585c0.189,2.231,0.655,4.299,1.486,6.208c0.852,1.962,2.059,3.769,3.152,5.717
			c0.377-0.098,0.781-0.203,1.184-0.304c5.063-1.265,7.836-0.259,10.871,4.046c1.312,1.863,2.524,3.798,3.76,5.715
			c0.604,0.938,1.156,1.908,1.732,2.863c0.32-0.285,0.643-0.571,0.964-0.856c-0.13-0.396-0.233-0.803-0.394-1.185
			c-1.552-3.658-4.303-6.512-6.533-9.716c-0.701-1.005-1.473-1.96-2.182-2.898c-0.078,0.034-0.578,0.261-1.081,0.486
			c-0.088-0.432-0.179-0.863-0.187-0.903c-2.496,0-4.941,0-7.557,0c0.127-0.637,0.23-1.154,0.336-1.687
			c-0.68-0.114-1.309-0.222-2.068-0.351c0.235-0.606,0.452-1.163,0.713-1.831c-0.42,0.221-0.712,0.375-1.008,0.53
			c-0.5-1.56,0.132-2.634,1.41-3.409c1.318-0.799,2.662-1.56,3.824-2.237c-0.244-1.038-0.537-2.292-0.828-3.547
			C274.209,69.406,270.057,68.936,268.319,71.2z M192.479,141.225c0.117-1.076,0.239-2.184,0.415-3.793
			c1.175,0.936,1.743,1.388,2.312,1.842c0.056-0.059,0.111-0.117,0.168-0.176c-0.327-0.449-0.652-0.9-1.05-1.449
			c2.774-0.212,5.323-0.395,7.556-2.615c-2.589-0.027-4.762,1.689-6.951,0.143c-0.124,2.334-1.221,0.639-1.774,0.455
			c-0.131,0.443-0.257,0.871-0.383,1.297c-0.367-0.189-0.726-0.402-1.107-0.559c-0.264-0.11-0.559-0.145-1.32-0.33
			c-0.372-0.451-1.091-1.439-1.952-2.283c-0.219-0.215-0.916,0.143-1.35,0.047c-1.007-0.228-1.985-0.572-2.979-0.861
			c-0.099-0.029-0.213-0.004-0.323-0.004c0.102,0.418,0.202,0.828,0.312,1.285c-1.852-0.613-3.525-1.168-5.199-1.723
			c2.45,2.377,3.814,2.893,6.529,2.868c3.193-0.029,5.504,2.675,5.386,5.796c-0.07,1.863,0.455,3.77,0.878,5.619
			c0.106,0.463,0.848,0.778,1.665,1.473c-0.611-2.832-1.071-4.963-1.562-7.244C192.321,141.18,192.615,141.266,192.479,141.225z
			 M209.496,154.385c-2.305,6.209-7.886,6.602-13.35,7.28c4.648,1.767,8.653,0.024,12.67-2.308c0.074-0.238,0.299-0.982,0.6-1.965
			c0.504,0.65,0.776,1.006,1.221,1.58c0-1.254,0-2.232,0-3.211c0.14-0.006,0.278-0.012,0.417-0.018
			c0.354,0.982,0.706,1.969,1.061,2.953c0.112-0.029,0.226-0.059,0.338-0.086c-0.236-1.13-0.471-2.26-0.707-3.389
			c0.139-0.119,0.277-0.236,0.417-0.355c0.698,0.826,1.396,1.652,2.227,2.633c-0.151-0.727-0.268-1.283-0.416-1.988
			c2.159,0.291,4.122,0.549,5.895-0.635c-3.074-0.402-6.198-0.17-8.682-1.32c-2.42-1.119-4.186-3.654-6.237-5.566
			c-0.132,0.117-0.264,0.236-0.395,0.355C206.189,150.343,207.824,152.341,209.496,154.385z M264.049,133.399
			c-0.212,0.502-0.281,1.236-0.641,1.428c-2.056,1.092-4.199,2.019-6.275,3.074c-1.153,0.586-2.234,1.314-3.348,1.979
			c0.132,0.232,0.264,0.463,0.395,0.695c1.137-0.486,2.408-0.785,3.388-1.49c5.177-3.736,10.431-3.939,15.952-0.783
			c1.275,0.729,2.804,1.018,4.217,1.512c0.1-0.264,0.201-0.527,0.301-0.791c-3.548-1.934-7.307-3.395-11.32-4.562
			c0.396-0.421,1.068-0.852,1.008-1.111c-0.642-2.738,1.953-3.104,3.168-4.463c0.271-0.303,0.541-0.607,0.812-0.912
			c-3.512,1.055-5.426,3.732-7.268,6.656C264.291,134.174,264.172,133.794,264.049,133.399z M234.458,57.502
			c0.959,0,1.928-0.08,2.877,0.018c1.638,0.169,3.3,0.676,3.437,2.578c0.176,2.484,1.31,3.865,3.564,4.833
			c1.229,0.528,2.129,1.821,3.177,2.768c0.171-0.152,0.341-0.305,0.513-0.458c-1.203-1.522-2.406-3.044-3.618-4.577
			c-0.153,0.082-0.574,0.304-1.388,0.735c0.355-0.933,0.538-1.415,0.89-2.34c-0.685,0.727-1.058,1.122-1.541,1.635
			c-0.487-4.308,0.411-5.745,4.364-5.894c2.79-0.106,5.613,0.594,8.42,0.949c0.551,0.069,1.091,0.213,1.635,0.323
			c-3.205-2.792-12.146-3.929-15.951-0.091C238.889,56.118,236.715,56.327,234.458,57.502z M208.313,124.327
			c-0.239,0.004-0.479,0.008-0.718,0.012c0.649,3.885,0.1,7.38-3.461,10.107c3.158-0.184,5.727-0.331,8.296-0.48
			c0.07-0.135,0.14-0.271,0.208-0.406c-0.8-0.408-1.6-0.816-2.439-1.244c0.33-0.408,0.822-1.014,1.315-1.621
			c-0.074-0.062-0.147-0.124-0.221-0.186c-0.812,0.691-1.622,1.383-2.433,2.076c-0.076-0.084-0.153-0.169-0.23-0.254
			c0.878-0.971,1.754-1.942,2.632-2.914c-0.099-0.086-0.198-0.174-0.296-0.262c-0.726,0.604-1.452,1.207-2.178,1.811
			c1.563-3.287,3.791-5.82,7.786-6.406c-0.225-0.342-0.45-0.684-0.674-1.026c-2.297,1.055-4.594,2.112-6.822,3.137
			C208.88,126.065,208.597,125.196,208.313,124.327z M155.655,83.306c-0.247-0.583-0.574-1.356-0.674-1.594
			c-5.016-0.815-9.7-0.183-13.699,2.891c-4.161,3.202-6.783,7.402-7.706,12.609c0.57-1.101,2.021-1.435,2.041-3.196
			c0.014-1.211,1.559-2.34,2.173-3.624c2.053-4.29,5.482-6.891,10.055-7.539C150.399,82.493,153.095,83.127,155.655,83.306z
			 M283.612,132.28c-0.141-0.027-0.281-0.057-0.421-0.084c0.027-0.508,0.055-1.016,0.102-1.849
			c-0.449,0.727-0.705,1.142-0.959,1.554c-0.129-0.057-0.258-0.112-0.387-0.17c0.206-0.906,0.411-1.812,0.639-2.814
			c-1.988,1.711-2.059,3.535-0.162,4.027c5.979,1.553,11.15,4.455,15.869,8.438c1.543,1.303,3.885,1.656,5.861,2.443
			c0.115-0.271,0.232-0.545,0.348-0.816c-0.605-0.287-1.226-0.547-1.812-0.869c-1.666-0.912-3.479-1.65-4.947-2.82
			c-3.857-3.071-7.998-5.51-12.768-6.857c-0.322-0.092-0.48-0.766-0.725-1.184C284.043,131.606,283.828,131.944,283.612,132.28z
			 M234.411,142.711c-0.82,0.134-1.291,0.183-1.746,0.292c-3.177,0.751-6.332,1.617-9.536,2.228
			c-1.387,0.265-3.044,1.079-4.241-0.487c-1.354-1.771-3.347-2.676-5.098-3.906c-0.36-0.253-0.93-0.211-1.403-0.305
			c1.23,1.268,2.628,2.119,3.844,3.178c1.261,1.098,2.345,2.398,3.587,3.695C231.983,145.641,232.715,145.423,234.411,142.711z
			 M172.928,76.052c3.767-0.719,5.783-3.877,5.008-7.24c-0.279-1.21-0.045-2.54-0.045-3.776c-0.209,0.079-0.53,0.199-1.313,0.492
			c0.751-1.585,1.299-2.741,1.847-3.896c-0.078-0.04-0.157-0.079-0.235-0.118c-0.569,0.828-1.139,1.656-1.735,2.525
			c0-1.388,0-2.633,0-3.876c-0.194-0.041-0.39-0.081-0.582-0.123c-0.466,0.828-0.93,1.654-1.308,2.326
			c-1.573,0.308-3.034,0.595-4.494,0.881c0.039,0.22,0.078,0.439,0.117,0.659c0.711-0.119,1.439-0.18,2.131-0.368
			c1.817-0.497,2.773,0.369,3.431,1.949c1.537,3.688,0.795,6.963-2.234,9.66C173.29,75.345,173.173,75.665,172.928,76.052z
			 M219.997,119.382c-0.573-2.563-1.019-4.561-1.52-6.8c-1.333,1.374-0.941,2.938-0.705,4.47c0,0,0.516,5.15,0.564,5.644
			c3.504-3.306,7.388-0.108,11.066-0.659c0.033-0.299,0.066-0.598,0.098-0.896c-2.146-0.463-4.294-0.926-6.548-1.412
			c0.312-0.686,0.592-1.299,1.065-2.338c-1.104,1.116-1.855,1.879-2.607,2.64c-0.172-0.146-0.343-0.292-0.516-0.438
			c0.151-0.609,0.302-1.221,0.601-2.43C220.875,118.083,220.61,118.474,219.997,119.382z M173.109,149.757
			c0.859-5.77,4.695-6.771,9.484-6.555c-1.658-0.443-3.268-0.67-4.779-0.38c-1.544,0.298-2.448-0.302-3.305-1.339
			c-1.066-1.289-2.126-2.581-3.189-3.873c-0.178,0.088-0.357,0.178-0.536,0.268c0.468,1.105,0.937,2.211,1.389,3.279
			c0.647,0.543,1.414,1.186,2.181,1.829c-1.139,0.481-2.144,0.907-3.149,1.331c0.044,0.094,0.087,0.187,0.131,0.279
			c1.055-0.324,2.11-0.646,3.165-0.971c0.05,0.163,0.101,0.326,0.151,0.49c-0.842,0.353-1.686,0.704-2.527,1.059
			c0.037,0.09,0.075,0.18,0.111,0.271c0.468-0.113,0.936-0.229,2.046-0.502c-1.112,1.346-1.806,2.184-2.377,2.873
			C172.226,148.339,172.539,148.839,173.109,149.757z M125.405,119.419c1.057,0.893,2.333,1.973,3.61,3.051
			c-0.023,0.085-0.046,0.168-0.07,0.252c-1.532-0.525-3.064-1.051-4.596-1.576c-0.033,0.094-0.067,0.186-0.1,0.279
			c1.161,0.57,2.321,1.139,3.314,1.627c-1.52,1.644-2.97,3.214-4.42,4.785c2.276,0.477,2.492-1.623,3.702-2.449
			c1.311-0.895,2.513-1.951,3.617-2.824c-1.703-2.127-3.281-4.096-5.057-6.314C125.405,117.208,125.405,118.087,125.405,119.419z
			 M201.54,86.216c1.788,1.215,3.5,2.078,4.813,3.355c1.354,1.317,2.286,3.061,3.473,4.562c0.347,0.437,0.928,0.954,1.415,0.966
			c1.23,0.029,2.466-0.207,3.7-0.338c0.02-0.173,0.041-0.348,0.062-0.521c-0.902-0.141-1.808-0.264-2.706-0.427
			c-0.586-0.107-1.556-0.119-1.68-0.437c-0.882-2.25-2.769-3.697-4.128-5.553c-0.687-0.938-1.053-2.112-1.564-3.179
			c-0.097,0.031-0.194,0.061-0.291,0.091c0.054,0.662,0.109,1.324,0.165,2C203.669,86.555,202.693,86.399,201.54,86.216z
			 M296.641,89.683c0.328-0.158,0.659-0.316,0.987-0.474c-0.891-1.767-1.599-3.667-2.731-5.262
			c-0.938-1.318-2.762-2.029-2.537-4.272c-0.189,0.36-0.291,0.572-0.412,0.771c-0.018,0.031-0.12,0.011-0.1,0.01
			c-0.23-0.697-0.451-1.371-0.672-2.047c-0.154,0.035-0.307,0.069-0.459,0.104c0,1.492,0,2.984,0,4.595
			C294.291,83.728,295.693,86.492,296.641,89.683z M231.657,68.367c0.356,0,0.902,0.126,1.361-0.021
			c3.156-1.016,5.212,0.012,6.2,3.177c0.232,0.741,0.389,1.511,0.658,2.236c0.629,1.695,1.756,1.898,3.256,0.998
			c-1.699,0.028-2.207-0.908-2.672-2.398c-0.502-1.618-1.42-3.242-2.566-4.485c-1.092-1.184-2.731-1.567-4.421-0.74
			c-0.223,0.108-0.777-0.47-0.934-0.571C232.294,67.064,232.07,67.522,231.657,68.367z M172.63,156.276
			c0.063,3.658,4.719,8.641,6.37,7.666C176.955,161.481,174.893,159,172.63,156.276z M131.139,123.3
			c-0.516,0.792-1.168,1.792-1.819,2.794c0.059,0.066,0.118,0.133,0.177,0.199c0.386-0.309,0.771-0.615,1.252-1
			c-0.251,3.174,1.329,5.914,3.25,6.438C133.147,129.219,132.215,126.473,131.139,123.3z M313.516,97.553
			c-1.193-0.439-1.028-0.459-1.18-1.655c-0.205-1.617-0.821-3.116-2.752-4.287c0.697,2.875,1.285,5.308,1.891,7.817
			C312.203,98.76,312.799,98.212,313.516,97.553z M258.076,52.462c-0.006-0.21-0.012-0.421-0.018-0.629
			c-0.555,0.082-1.121,0.277-1.663,0.22c-0.749-0.078-1.509-0.269-2.206-0.552c-1.169-0.477-2.293-1.064-3.434-1.605
			C252.293,52.617,255.803,53.644,258.076,52.462z M299.551,82.187c-0.129,0.231-0.256,0.461-0.383,0.692
			c1.678,1.048,3.355,2.097,5.377,3.36c-0.262-1.468-0.439-2.46-0.66-3.698c-0.686,0.287-1.328,0.556-1.785,0.747
			C301.219,82.908,300.385,82.547,299.551,82.187z M168.47,70.706c1.097-2.379-0.429-4.134-1.637-6.067
			c-0.531,0.372-0.962,0.675-1.093,0.767C166.708,67.285,167.574,68.965,168.47,70.706z M126.941,135.647
			c0.225-0.145,0.451-0.289,0.675-0.434c-0.549-1.549-1.098-3.098-1.734-4.89c-0.809,1.183-1.53,2.237-2.302,3.366
			c0.664-0.252,1.318-0.502,1.551-0.592C125.836,134.092,126.389,134.87,126.941,135.647z M291.787,98.503
			c-0.092-0.669-0.205-1.492-0.318-2.313c-0.104,0.022-0.207,0.044-0.312,0.066c-0.244,1.077-0.489,2.153-0.701,3.085
			c1.876,0.703,3.604,1.348,5.328,1.993c0.099-0.172,0.195-0.343,0.293-0.516C294.707,100.081,293.338,99.34,291.787,98.503z"/>
		<path fill="none" stroke="#000000" stroke-miterlimit="10" d="M283.488,194.139c-9.597-12.617-23.389-19.172-36.27-27.689
			c10.955-1.949,20.248,1.135,28.752,7.131c4.902,3.453,9.61,7.146,12.369,12.77c0.814,1.66,0.527,2.754-0.652,3.873
			C286.331,191.51,284.954,192.774,283.488,194.139z"/>
		<path fill="none" stroke="#000000" stroke-miterlimit="10" d="M271.924,159.123c-0.751-0.073-1.501-0.144-2.251-0.217
			c0.003-0.161,0.006-0.323,0.011-0.485c2.102,0,4.203-0.012,6.305,0.004c2.017,0.014,4.098,0.391,6.035,0.01
			c4.062-0.797,7.36,0.756,10.623,2.733c0.363,0.22,0.764,0.411,1.068,0.7c3.66,3.447,7.355,6.858,10.932,10.391
			c2,1.977,1.881,2.205-0.163,4.244c-1.116,1.115-2.157,2.307-3.322,3.561c-4.421-7.293-11.06-11.088-18.58-13.818
			c-4.8-1.744-9.716-2.73-14.759-3.012c-5.357-0.301-10.732-0.287-15.834-0.404C258.064,160.206,264.842,159.186,271.924,159.123z"
			/>
		<path fill="none" stroke="#000000" stroke-miterlimit="10" d="M286.402,180.448c-1.742-1.424-3.805-2.596-5.16-4.324
			c-3.047-3.889-7.573-5.627-11.6-7.752c-4.34-2.288-9.516-2.988-13.751-4.213c6.615-1.074,13.819-0.185,20.956,1.471
			c6.088,1.414,11.967,3.466,16.816,7.555c2.205,1.859,3.984,4.232,5.916,6.408c0.749,0.842,0.648,1.564-0.361,2.277
			c-2.016,1.424-3.941,2.975-5.906,4.473c-0.639-0.562-1.269-1.135-1.918-1.685C289.735,183.249,288.066,181.851,286.402,180.448z"
			/>
		<path fill="none" stroke="#000000" stroke-miterlimit="10" d="M246.256,174.272c-0.168-0.871-0.337-1.742-0.605-3.131
			c0.743,0.838,1.113,1.259,1.721,1.943c-0.281-0.986-0.463-1.627-0.645-2.268c7.578,9.385,15.352,18.496,24.777,26.052
			c-2.627,3.182-3.314,3.39-7,1.841c-6.576-2.764-11.893-6.845-14.425-13.842c-0.334-0.922-0.89-1.762-1.342-2.639
			C247.908,179.577,247.082,176.925,246.256,174.272z"/>
		<path fill="none" stroke="#000000" stroke-miterlimit="10" d="M278.33,156.878c-3.25,0.211-6.516,0.287-9.744,0.674
			c-2.599,0.312-5.171,0.928-7.723,1.541c-3.361,0.807-6.693,1.74-9.523,2.484c4.846-6.539,12.697-9.176,20.244-12.305
			c0.639-0.264,1.355-0.421,2.043-0.441c0.225-0.01,0.471,0.564,0.785,0.975c4.496,0.367,9.289,0.758,14.084,1.149
			c0.021,0.108,0.043,0.22,0.062,0.328c-2.834,0.743-5.67,1.487-8.504,2.229c0.033,0.143,0.068,0.283,0.102,0.425
			c2.771-0.692,5.577-1.277,8.307-2.112c2.04-0.625,3.921-0.307,5.813,0.365c0.319,0.113,0.516,0.563,0.769,0.859l0.062-0.059
			c-2.729,0.426-5.467,0.795-8.18,1.311c-0.904,0.172-1.738,0.717-2.605,1.092C282.326,155.888,280.326,156.384,278.33,156.878z"/>
		<path fill="none" stroke="#000000" stroke-miterlimit="10" d="M264.575,188.581c-4.345-4.631-8.742-9.213-13.008-13.914
			c-1.4-1.545-2.462-3.395-3.679-5.105c0.189-0.217,0.379-0.434,0.567-0.65c2.257,1.459,4.515,2.916,6.771,4.373
			c3.349,3.467,6.613,7.016,10.064,10.375c4.016,3.91,8.193,7.654,12.301,11.471c-0.004,0.33-0.009,0.661-0.015,0.992
			c-0.79-0.314-1.581-0.629-2.38-0.938c-0.494-0.389-1.018-0.744-1.464-1.178c-3.72-3.605-7.425-7.225-11.134-10.838
			c-0.154,0.154-0.309,0.311-0.462,0.465c3.714,3.531,7.412,7.08,11.163,10.572c0.502,0.467,1.273,0.641,1.92,0.949
			c-0.244,0.996-0.844,1.035-1.619,0.604C270.594,193.366,267.584,190.971,264.575,188.581z"/>
		<path fill="none" stroke="#000000" stroke-miterlimit="10" d="M264.148,200.499c-5.201-0.805-10.285-1.621-14.42-5.705
			c-7.583-7.488-9.955-15.849-5.307-26.273C244.016,183.807,250.97,194.026,264.148,200.499z"/>
		<path fill="none" stroke="#000000" stroke-miterlimit="10" d="M278.33,156.878c1.996-0.494,3.996-0.989,5.992-1.484
			c3.594-0.8,7.189-1.602,10.785-2.4l-0.062,0.057c2.718,0.641,5.438,1.269,8.15,1.926c0.6,0.145,1.162,0.477,1.768,0.57
			c2.861,0.443,2.877,0.451,3.441,3.615c0.029,0.164,0.594,0.182,0.783,0.385c0.199,0.216,0.247,0.572,0.393,0.947
			c-2.652-0.518-5.139-1.051-7.643-1.479c-2.021-0.344-4.069-0.533-6.098-0.844c-5.072-0.781-10.176-0.898-15.292-0.885
			C279.809,157.289,279.068,157.022,278.33,156.878z"/>
		<path fill="none" stroke="#000000" stroke-miterlimit="10" d="M298.557,164.688c-2.256-1.836-4.51-3.672-7.345-5.98
			c4.767,0.673,8.987,1.244,13.195,1.886c0.826,0.126,1.638,0.462,2.411,0.8c2.914,1.269,3.285,1.695,3.029,4.516
			c-0.133,1.473-0.719,2.905-1.131,4.469c-0.736-0.342-1.242-0.574-1.746-0.807C304.166,167.944,301.36,166.315,298.557,164.688z"/>
		<path fill="none" stroke="#000000" stroke-miterlimit="10" d="M127.915,91.984c0.132,1.426,0.28,3.039,0.452,4.902
			c-0.385-0.253-0.633-0.415-0.948-0.623c0.106,0.569,0.204,1.097,0.352,1.891c-0.609-0.285-0.943-0.441-1.195-0.559
			c0,0.575,0,1.179,0,1.782c-0.302-0.148-0.604-0.296-0.659-0.323c-0.132,1.108-0.277,2.324-0.449,3.772
			c-0.424-0.338-0.754-0.6-0.854-0.68c0.249,1.446,0.536,3.116,0.94,5.468c-1.354-1.564-2.289-2.646-3.224-3.728
			c-0.091,0.052-0.182,0.105-0.272,0.157c0.591,0.956,1.182,1.913,1.704,2.754c-0.917,0.073-1.948,0.39-2.815,0.142
			c-0.617-0.176-1.41-1.093-1.449-1.721c-0.287-4.659,1.103-8.537,5.472-10.942C126.037,93.687,126.926,92.766,127.915,91.984z"/>
		<path stroke="#000000" stroke-miterlimit="10" d="M277.592,195.13c-4.107-3.816-8.285-7.561-12.301-11.471
			c-3.451-3.359-6.716-6.908-10.064-10.375c2.008,1.283,4.016,2.566,6.021,3.848c6.41,5.934,12.818,11.867,19.227,17.801
			C279.617,196.52,278.596,195.698,277.592,195.13z"/>
		<path fill="none" stroke="#000000" stroke-miterlimit="10" d="M250.502,158.501c-1.346,1.543-2.693,3.084-4.448,5.096
			c0-1.035-0.176-1.652,0.028-2.096c1.48-3.225,3.021-6.422,4.596-9.602c0.203-0.414,0.648-0.852,1.074-0.99
			c2.988-0.971,5.998-1.879,9.015-2.758c0.171-0.051,0.464,0.328,0.702,0.506C257.812,151.938,254.158,155.219,250.502,158.501z"/>
		<path fill="none" stroke="#000000" stroke-miterlimit="10" d="M243.982,164.798c-2.218,0.791-2.59-0.973-2.861-2.746
			c-0.203-1.332-0.371-2.683-0.388-4.027c-0.042-3.797,0.169-4.055,3.771-4.865c1.491-0.334,3.01-0.543,4.398-0.789
			C247.314,156.382,245.693,160.477,243.982,164.798z"/>
		<path fill="none" stroke="#000000" stroke-miterlimit="10" d="M275.898,59.3c5.066-1.555,8.449,1.077,11.599,4.028
			c1.382,1.295,2.872,2.831,2.026,4.947c-1.326-0.068-2.471-0.172-3.615-0.174c-1.229-0.003-2.149-0.082-2.946-1.424
			c-1.11-1.867-2.698-3.468-4.189-5.083C278.029,60.786,277.047,60.199,275.898,59.3z"/>
		<path fill="none" stroke="#000000" stroke-miterlimit="10" d="M240.41,164.461c-1.785-1.405-3.486-2.747-5.211-4.104
			c-0.472,1.949-0.472,1.949,2.762,5.02c-2.059,1.395-4.858-0.4-6.622-4.343c2.795-1.878,5.609-3.771,8.403-5.647
			C239.959,158.323,240.172,161.221,240.41,164.461z"/>
		<path fill="none" stroke="#000000" stroke-miterlimit="10" d="M291.479,69.157c3.305-3.256,7.55-1.032,9.888,5.281
			c-0.761,0.621-1.418,1.552-2.212,1.69c-0.776,0.135-1.693-0.54-2.704-0.917C294.965,73.402,293.227,71.286,291.479,69.157z"/>
		<path fill="none" stroke="#000000" stroke-miterlimit="10" d="M280.475,194.932c-6.408-5.934-12.816-11.867-19.227-17.801
			c0.463,0.082,1.012,0.027,1.375,0.262c7.17,4.596,13.911,9.699,19.217,16.47c0.164,0.208,0.279,0.458,0.642,1.069
			C281.608,194.932,281.041,194.932,280.475,194.932z"/>
		<path fill="none" stroke="#000000" stroke-miterlimit="10" d="M265.465,148.397c1.756-1.43,3.575-0.74,6.039-0.145
			c-1.623,0.617-2.762,0.912-3.765,1.454c-4.569,2.468-9.1,5.011-13.649,7.513c-0.602,0.332-1.24,0.594-1.861,0.887
			c1.049-1.012,1.986-2.18,3.166-3.006C258.697,152.789,262.1,150.621,265.465,148.397z"/>
		<path stroke="#000000" stroke-miterlimit="10" d="M265.465,148.397c-3.365,2.225-6.768,4.392-10.071,6.703
			c-1.179,0.826-2.116,1.994-3.165,3.006c-0.576,0.133-1.152,0.264-1.727,0.395c3.655-3.28,7.311-6.562,10.965-9.843
			C262.76,147.952,264.042,147.102,265.465,148.397z"/>
		<path fill="none" stroke="#000000" stroke-miterlimit="10" d="M298.557,164.688c2.803,1.627,5.609,3.256,8.414,4.883
			c0.424,0.451,0.85,0.902,1.377,1.461c-0.379,0.58-0.744,1.134-1.127,1.717c-2.742-2.281-5.344-4.409-7.891-6.602
			C298.941,165.813,298.809,165.181,298.557,164.688z"/>
		<path fill="none" stroke="#000000" stroke-miterlimit="10" d="M227.477,162.747c0.956-0.478,1.914-0.955,2.716-1.355
			c1.252,1.682,2.412,3.242,3.549,4.771C231.719,167.218,228.718,165.71,227.477,162.747z"/>
		<path fill="none" stroke="#000000" stroke-miterlimit="10" d="M323.713,130.981c0.275-0.453,0.549-0.908,0.824-1.361
			c0.312,0.109,0.624,0.219,0.936,0.328c-0.276,2.617-0.553,5.236-0.865,8.184c-1.922-2.406-1.99-5.61-0.424-6.67
			C324.027,131.302,323.869,131.141,323.713,130.981z"/>
		<path fill="none" stroke="#000000" stroke-miterlimit="10" d="M286.402,180.448c1.664,1.403,3.332,2.801,4.992,4.21
			c0.648,0.55,1.279,1.122,1.918,1.685c-0.812,1.043-1.648,1.279-2.531,0.076C289.325,184.428,287.861,182.438,286.402,180.448z"/>
		<path fill="none" stroke="#000000" stroke-miterlimit="10" d="M246.256,174.272c0.828,2.652,1.652,5.305,2.481,7.957
			c0.565,1.626,1.131,3.252,1.696,4.877c-2.658-3.559-4.213-7.539-4.603-11.947C245.805,174.878,246.106,174.567,246.256,174.272z"
			/>
		<path fill="none" stroke="#000000" stroke-miterlimit="10" d="M264.575,188.581c3.011,2.391,6.019,4.785,9.026,7.178
			c-0.39,0.113-0.975,0.454-1.143,0.309c-2.621-2.251-5.191-4.562-7.755-6.877C264.58,189.077,264.615,188.786,264.575,188.581z"/>
		<path stroke="#000000" stroke-miterlimit="10" d="M260.702,89.292c3.187-2.066,5.774-0.446,8.423,0.739c-2.539,0-5.077,0-7.877,0
			c0.415,0.738,0.561,0.998,0.707,1.258c-2.803,0.968-2.214,4.061-3.678,5.909c-1.5,1.893-2.09,4.369-4.313,5.904
			c-0.747,0.516-1.526,1.35-2.696,1.986c0.449,0.238,0.695,0.37,0.941,0.499c-1.641,0.728-1.422,2.54,0.479,3.714
			c0.761,0.47,1.572,0.855,2.428,1.316c-1.802,0.914-2.959,0.332-5.027-2.439c-1.947,2.047-4.412,2.525-7.135,2.478
			c-0.992-0.018-2.004,0.601-2.99,0.978c-1.646,0.625-3.279,1.289-5.097,2.008c0.572,0.205,1.167,0.422,1.87,0.674
			c-0.203,0.076-0.344,0.168-0.488,0.179c-0.712,0.054-1.423,0.089-2.138,0.13c0.477,0.594,0.951,1.189,1.423,1.781
			c-0.472-0.153-1.054-0.342-1.708-0.555c-0.359,1.988-0.705,3.91-1.052,5.832c-0.229-0.016-0.46-0.031-0.692-0.047
			c0.137-2.58,0.273-5.161,0.408-7.701c-0.229,0.02-0.846,0.073-1.461,0.125c-0.027-0.064-0.055-0.131-0.08-0.195
			c0.641-0.26,1.279-0.516,2.08-0.84c-1.312-0.74-2.461-1.389-3.712-2.094c-0.238-1.057-0.544-2.412-0.849-3.766
			c2.293,2.307,4.118,4.93,7.966,4.973c-0.322-0.787-0.564-1.388-0.882-2.161c0.794,0.673,1.429,1.212,2.063,1.751
			c0.137-0.139,0.273-0.275,0.41-0.414c-0.281-0.385-0.564-0.77-0.725-0.99c0.996,0.094,2.032,0.191,3.068,0.287
			c0.119-0.266,0.238-0.533,0.358-0.799c-0.853-0.527-1.704-1.055-2.556-1.581c0.193-0.253,0.387-0.505,0.578-0.757
			c1.121,0.467,2.24,0.936,3.424,1.428c0.016-0.332,0.03-0.623,0.041-0.854c0.945,0.52,1.873,1.031,2.803,1.543
			c0.1-0.143,0.201-0.287,0.301-0.43c-0.363-0.48-0.729-0.961-1.23-1.621c1.139,0.556,2.1,1.025,3.061,1.494
			c0.086-0.139,0.171-0.279,0.256-0.42c-0.197-0.275-0.393-0.553-0.592-0.83c1.971-1.201,1.971-1.201,1.441-1.742
			c0.361-0.056,0.706-0.103,1.047-0.17c0.047-0.009,0.072-0.115,0.129-0.216c-0.623-0.153-1.237-0.304-2.385-0.585
			c1.49-0.183,2.42-0.297,3.936-0.483c-0.912-0.527-1.295-0.749-1.699-0.984c0.092-0.075,0.182-0.209,0.252-0.2
			c2.666,0.384,4.232-1.526,5.318-3.258c1.869-2.984,3.196-6.312,4.635-9.548c0.172-0.388-0.272-1.171-0.611-1.644
			c-1.115-1.558-2.314-3.058-3.557-4.68c-2.225,0.67-4.475,0.91-6.141-1.462c0.207-0.122,0.368-0.256,0.402-0.229
			c1.512,1.189,3.416,1.989,4.861,0.669c0.934-0.854,1.271-2.825,1.166-4.242c-0.154-2.095-1.094-4.12-1.414-6.218
			c-0.305-1.998-0.199-4.055-0.369-6.077c-0.053-0.635-0.335-1.284-0.648-1.854c-0.453-0.823-1.027-1.577-1.32-2.64
			c1.602,1.717,3.414,2.71,6.016,2.435c-2.127,1.546-3.652,3.114-2.93,5.899c0.508-0.478,0.977-0.918,1.797-1.69
			c-0.693,1.345-1.172,2.273-1.65,3.202c0.105,0.083,0.209,0.165,0.314,0.248c0.51-0.354,1.021-0.707,1.374-0.951
			c-0.27,0.907-0.552,1.858-0.833,2.809c1.211,0.119-0.855,2.928,1.278,2.046c0,0.821,0,1.695,0,2.569
			c0.134-0.014,0.267-0.028,0.401-0.042c-0.27,0.753-0.541,1.505-0.93,2.589c0.754-0.252,1.133-0.378,1.87-0.623
			c-0.952,1.036-1.62,1.765-2.339,2.547c0.494,0.865,0.953,1.673,1.785,3.131c0.363-0.913,0.592-1.484,0.818-2.056
			c0.043,0.104,0.084,0.208,0.127,0.314c-0.078,0.814-0.154,1.627-0.23,2.441c0.416-0.125,0.832-0.251,0.926-0.279
			C260,87.63,260.34,88.436,260.702,89.292z"/>
		<path stroke="#000000" stroke-miterlimit="10" d="M216.557,49.365c-0.669,2.44,0.971,2.933,3.06,3.045
			c-0.124,0.178-0.247,0.356-0.37,0.534c-0.489,0.207-0.969,0.439-1.468,0.616c-2.735,0.975-5.46,1.981-8.221,2.882
			c-1.403,0.458-2.858,0.941-4.312,1.026c-6.453,0.377-11.237,5.51-11.04,11.988c0.015,0.485-0.051,0.995-0.193,1.459
			c-0.932,3.067-1.895,6.123-2.847,9.184c0.245-0.017,0.489-0.034,0.734-0.05c0.128,0.39,0.256,0.78,0.385,1.169
			c0.594,0.135,1.279,0.291,2.207,0.501c-0.39,0.433-0.598,0.872-0.821,0.88c-3.935,0.139-4.546,3.278-5.594,6.066
			c-0.333,0.886-0.699,1.831-1.306,2.525c-2.83,3.241-3.197,7.969-0.589,11.436c0.756,1.004,2.005,1.639,3.1,2.5
			c-0.846,0.341-1.929,0.777-2.884,1.164c-0.396-0.858-0.621-1.708-1.113-2.354c-3.137-4.114-3.165-10.391,0.634-13.89
			c0.525-0.484,0.438-1.577,0.797-2.306c0.991-2.005,2.347-3.876,3.032-5.972c0.662-2.021,0.571-4.276,1.001-6.39
			c0.207-1.019,0.956-1.917,1.27-2.929c0.321-1.031,0.43-2.13,0.587-3.206c0.072-0.489-0.123-1.07,0.072-1.481
			c1.338-2.799,2.445-5.781,4.218-8.283c1.873-2.643,5.047-2.989,8.162-3.537c3.225-0.566,6.297-2.043,9.388-3.245
			c0.377-0.146,0.459-1.06,0.675-1.617c0.231-0.599,0.459-1.197,0.688-1.795C216.059,49.313,216.308,49.339,216.557,49.365z"/>
		<path stroke="#000000" stroke-miterlimit="10" d="M218.849,65.519c-2.277,1.175-4.662,2.256-6.88,3.61
			c-1.32,0.806-2.077,2.028-1.224,3.818c0.6,1.258,0.872,2.703,1.086,4.094c0.08,0.53-0.409,1.148-0.671,1.805
			c2.638,1,4.59,2.668,5.061,5.525c0.104,0.629-0.511,1.376-0.795,2.069c-0.289-0.596-0.837-1.2-0.819-1.785
			c0.073-2.133-1.114-3.499-2.841-4.092c-2.118-0.727-2.332-2.216-2.336-3.979c-0.006-2.659-0.07-5.303-2.029-7.411
			c-0.526-0.567-1.238-0.969-1.729-1.56c-0.404-0.485-0.607-1.138-0.9-1.714c0.148-0.092,0.296-0.184,0.443-0.275
			c0.395,0.472,0.79,0.942,1.345,1.607c0.189-0.721,0.3-1.143,0.376-1.432c0.45,0.999,0.92,2.041,1.391,3.084
			c0.154-0.049,0.31-0.099,0.464-0.146c-0.045-0.934-0.089-1.868-0.135-2.802c0.122-0.018,0.245-0.035,0.367-0.053
			c0.15,1.109,0.299,2.219,0.45,3.329c0.166,0.057,0.333,0.112,0.498,0.17c0.333-0.805,0.666-1.609,0.95-2.297
			c0.044,0.146,0.149,0.504,0.373,1.261c0.696-2.279,2.866-2.019,4.264-3.112c1.766-1.382,3.439-3.123,5.751-3.922
			c2.481-0.855,4.813-2.136,7.208-3.239c0.441-0.203,0.867-0.441,1.092-0.555c-0.354-2.266-0.627-4.366-1.041-6.438
			c-0.102-0.503-0.577-1.154-1.032-1.322c-1.52-0.561-3.109-0.932-4.672-1.375c0.015-0.185,0.027-0.37,0.042-0.554
			c1.876,0.19,3.753,0.38,5.767,0.583c-0.026,0.103,0.078-0.296,0.21-0.802c0.164,0.486,0.295,0.873,0.43,1.278
			c2.145-1.586,3.927-1.778,4.551-0.793c-1.393,0.813-2.797,1.633-4.198,2.453c0.036,0.123,0.071,0.246,0.106,0.368
			c0.484-0.021,0.971-0.045,1.738-0.079c-0.877,0.563-1.465,0.94-2.053,1.317c0.062,0.154,0.123,0.309,0.184,0.464
			c0.475-0.032,0.951-0.062,1.496-0.098c-0.425,0.546-0.822,1.055-1.625,2.084c1.07-0.404,1.583-0.597,2.326-0.878
			c-0.665,0.797-1.125,1.347-1.586,1.896c0.09,0.127,0.18,0.253,0.27,0.38c0.451-0.162,0.903-0.325,1.539-0.554
			c-0.416,0.563-0.717,0.97-1.173,1.589c0.683-0.052,1.1-0.083,1.517-0.116c0.053,0.167,0.108,0.333,0.162,0.5
			c-3.159,1.444-6.332,2.858-9.471,4.348c-1.231,0.582-2.46,1.229-3.537,2.047C219.1,64.164,219.037,65.03,218.849,65.519z"/>
		<path stroke="#000000" stroke-miterlimit="10" d="M268.319,71.2c1.737-2.265,5.89-1.794,5.614-5.946
			c0.293,1.255,0.586,2.51,0.828,3.547c-1.162,0.678-2.505,1.438-3.823,2.238c-1.278,0.775-1.91,1.849-1.409,3.409
			c0.295-0.155,0.586-0.309,1.008-0.529c-0.262,0.669-0.479,1.225-0.715,1.831c0.76,0.129,1.389,0.235,2.068,0.351
			c-0.105,0.532-0.207,1.05-0.334,1.687c2.613,0,5.061,0,7.556,0c0.009,0.041,0.099,0.472,0.188,0.903
			c0.503-0.227,1.003-0.453,1.081-0.487c0.709,0.94,1.48,1.895,2.182,2.9c2.229,3.204,4.98,6.058,6.531,9.715
			c0.162,0.383,0.266,0.79,0.396,1.186c-0.322,0.285-0.644,0.57-0.966,0.855c-0.575-0.955-1.127-1.926-1.732-2.863
			c-1.233-1.917-2.446-3.852-3.759-5.714c-3.035-4.305-5.808-5.311-10.87-4.047c-0.403,0.102-0.807,0.207-1.186,0.305
			c-1.093-1.948-2.3-3.754-3.15-5.717c-0.832-1.909-1.299-3.977-1.487-6.208C266.902,69.348,267.464,70.083,268.319,71.2z"/>
		<path stroke="#000000" stroke-miterlimit="10" d="M192.479,141.225c0.136,0.041-0.159-0.045-0.728-0.211
			c0.491,2.281,0.951,4.412,1.562,7.242c-0.816-0.693-1.559-1.01-1.665-1.471c-0.422-1.85-0.948-3.756-0.878-5.621
			c0.118-3.119-2.193-5.824-5.386-5.795c-2.715,0.025-4.08-0.492-6.529-2.869c1.673,0.557,3.347,1.11,5.199,1.723
			c-0.111-0.455-0.21-0.865-0.313-1.285c0.109,0,0.225-0.024,0.323,0.004c0.993,0.291,1.973,0.635,2.979,0.861
			c0.434,0.098,1.131-0.262,1.35-0.047c0.86,0.844,1.579,1.834,1.952,2.285c0.761,0.184,1.057,0.218,1.321,0.328
			c0.381,0.158,0.739,0.37,1.107,0.561c0.126-0.428,0.251-0.855,0.382-1.298c0.554,0.183,1.651,1.88,1.774-0.456
			c2.188,1.547,4.362-0.17,6.951-0.142c-2.233,2.22-4.781,2.403-7.556,2.614c0.397,0.549,0.724,1,1.05,1.451
			c-0.057,0.057-0.112,0.115-0.168,0.174c-0.569-0.453-1.138-0.906-2.312-1.84C192.718,139.042,192.596,140.149,192.479,141.225z"/>
		<path stroke="#000000" stroke-miterlimit="10" d="M209.496,154.385c-1.672-2.045-3.307-4.043-4.942-6.039
			c0.131-0.119,0.263-0.238,0.395-0.355c2.052,1.912,3.817,4.447,6.237,5.566c2.484,1.15,5.609,0.918,8.682,1.32
			c-1.773,1.184-3.736,0.924-5.895,0.635c0.147,0.705,0.264,1.262,0.416,1.988c-0.83-0.98-1.528-1.807-2.227-2.633
			c-0.139,0.119-0.278,0.236-0.417,0.355c0.236,1.129,0.472,2.259,0.707,3.389c-0.112,0.027-0.226,0.057-0.338,0.086
			c-0.354-0.984-0.707-1.971-1.061-2.953c-0.139,0.006-0.278,0.012-0.417,0.018c0,0.979,0,1.957,0,3.211
			c-0.443-0.574-0.716-0.93-1.22-1.58c-0.3,0.982-0.526,1.727-0.6,1.965c-4.016,2.332-8.021,4.074-12.67,2.308
			C201.611,160.987,207.191,160.594,209.496,154.385z"/>
		<path stroke="#000000" stroke-miterlimit="10" d="M264.049,133.399c0.123,0.394,0.244,0.773,0.389,1.23
			c1.842-2.926,3.756-5.604,7.268-6.658c-0.271,0.305-0.543,0.609-0.813,0.914c-1.216,1.359-3.809,1.723-3.169,4.462
			c0.061,0.261-0.61,0.691-1.006,1.11c4.012,1.17,7.771,2.631,11.318,4.562c-0.1,0.264-0.2,0.527-0.3,0.791
			c-1.413-0.492-2.94-0.781-4.216-1.51c-5.521-3.158-10.775-2.953-15.953,0.783c-0.979,0.705-2.252,1.004-3.387,1.488
			c-0.133-0.232-0.264-0.463-0.395-0.695c1.111-0.664,2.193-1.391,3.346-1.977c2.078-1.056,4.221-1.984,6.277-3.076
			C263.768,134.635,263.837,133.901,264.049,133.399z"/>
		<path stroke="#000000" stroke-miterlimit="10" d="M234.458,57.502c2.257-1.175,4.43-1.383,6.378,0.479
			c3.803-3.837,12.746-2.701,15.951,0.091c-0.544-0.109-1.084-0.253-1.635-0.323c-2.807-0.355-5.63-1.055-8.42-0.949
			c-3.953,0.148-4.852,1.585-4.364,5.894c0.483-0.513,0.856-0.908,1.541-1.635c-0.352,0.925-0.534,1.407-0.89,2.34
			c0.813-0.431,1.234-0.654,1.388-0.735c1.212,1.533,2.415,3.055,3.618,4.577c-0.172,0.153-0.342,0.306-0.513,0.458
			c-1.048-0.948-1.948-2.24-3.177-2.768c-2.255-0.968-3.389-2.35-3.564-4.833c-0.137-1.901-1.799-2.409-3.437-2.578
			C236.387,57.422,235.419,57.502,234.458,57.502z"/>
		<path stroke="#000000" stroke-miterlimit="10" d="M208.313,124.327c0.284,0.869,0.567,1.738,0.766,2.342
			c2.228-1.023,4.523-2.08,6.822-3.136c0.225,0.341,0.45,0.685,0.674,1.026c-3.995,0.587-6.223,3.12-7.786,6.405
			c0.727-0.604,1.452-1.205,2.178-1.809c0.099,0.086,0.197,0.173,0.296,0.262c-0.878,0.971-1.754,1.941-2.632,2.914
			c0.078,0.084,0.154,0.168,0.23,0.252c0.812-0.691,1.622-1.383,2.433-2.076c0.073,0.062,0.147,0.125,0.221,0.188
			c-0.493,0.607-0.985,1.213-1.315,1.619c0.839,0.43,1.639,0.838,2.439,1.246c-0.069,0.135-0.139,0.27-0.208,0.404
			c-2.569,0.15-5.138,0.298-8.296,0.482c3.561-2.729,4.11-6.223,3.461-10.107C207.834,124.335,208.074,124.331,208.313,124.327z"/>
		<path stroke="#000000" stroke-miterlimit="10" d="M155.655,83.306c-2.56-0.179-5.256-0.813-7.81-0.452
			c-4.573,0.648-8.002,3.249-10.055,7.539c-0.614,1.283-2.16,2.412-2.173,3.624c-0.019,1.761-1.471,2.095-2.041,3.196
			c0.923-5.206,3.546-9.407,7.706-12.609c3.999-3.075,8.682-3.707,13.699-2.891C155.082,81.951,155.409,82.723,155.655,83.306z"/>
		<path stroke="#000000" stroke-miterlimit="10" d="M283.612,132.28c0.216-0.336,0.429-0.674,0.638-1.001
			c0.244,0.419,0.402,1.091,0.725,1.183c4.768,1.349,8.912,3.787,12.768,6.859c1.468,1.169,3.281,1.906,4.947,2.82
			c0.587,0.322,1.207,0.58,1.812,0.868c-0.115,0.272-0.232,0.545-0.348,0.815c-1.977-0.787-4.32-1.141-5.861-2.441
			c-4.719-3.984-9.891-6.885-15.869-8.438c-1.896-0.492-1.828-2.318,0.162-4.028c-0.228,1.002-0.432,1.907-0.639,2.815
			c0.129,0.056,0.258,0.111,0.387,0.168c0.254-0.412,0.511-0.827,0.959-1.553c-0.047,0.834-0.074,1.341-0.102,1.848
			C283.331,132.223,283.472,132.253,283.612,132.28z"/>
		<path stroke="#000000" stroke-miterlimit="10" d="M234.411,142.711c-1.696,2.712-2.428,2.931-14.593,4.693
			c-1.243-1.298-2.328-2.597-3.587-3.694c-1.216-1.061-2.614-1.91-3.844-3.178c0.473,0.094,1.042,0.051,1.403,0.305
			c1.751,1.229,3.744,2.133,5.098,3.906c1.198,1.566,2.855,0.751,4.241,0.486c3.203-0.609,6.359-1.477,9.536-2.229
			C233.12,142.893,233.591,142.844,234.411,142.711z"/>
		<path stroke="#000000" stroke-miterlimit="10" d="M172.928,76.052c0.245-0.388,0.361-0.707,0.585-0.906
			c3.029-2.697,3.771-5.972,2.234-9.66c-0.658-1.58-1.614-2.446-3.431-1.95c-0.692,0.189-1.42,0.249-2.131,0.369
			c-0.039-0.22-0.078-0.439-0.117-0.659c1.46-0.287,2.922-0.573,4.494-0.881c0.378-0.671,0.842-1.498,1.308-2.325
			c0.193,0.042,0.388,0.081,0.582,0.122c0,1.244,0,2.488,0,3.876c0.597-0.868,1.167-1.697,1.735-2.525
			c0.078,0.04,0.157,0.079,0.235,0.118c-0.547,1.156-1.095,2.311-1.847,3.896c0.784-0.294,1.104-0.413,1.313-0.492
			c0,1.237-0.234,2.566,0.045,3.776C178.711,72.176,176.696,75.334,172.928,76.052z"/>
		<path stroke="#000000" stroke-miterlimit="10" d="M219.997,119.382c0.612-0.908,0.877-1.299,1.499-2.221
			c-0.298,1.209-0.449,1.819-0.6,2.43c0.171,0.146,0.343,0.292,0.515,0.438c0.751-0.761,1.504-1.522,2.607-2.639
			c-0.474,1.039-0.753,1.652-1.065,2.336c2.255,0.486,4.401,0.951,6.549,1.412c-0.032,0.299-0.066,0.6-0.1,0.896
			c-3.677,0.553-7.561-2.645-11.065,0.66c-0.049-0.492-0.565-5.645-0.565-5.645c-0.236-1.531-0.628-3.096,0.705-4.469
			C218.978,114.822,219.425,116.819,219.997,119.382z"/>
		<path stroke="#000000" stroke-miterlimit="10" d="M173.109,149.757c-0.571-0.918-0.883-1.418-1.205-1.938
			c0.571-0.69,1.265-1.528,2.377-2.873c-1.11,0.271-1.578,0.387-2.046,0.5c-0.038-0.09-0.075-0.182-0.112-0.271
			c0.842-0.354,1.686-0.705,2.527-1.059c-0.05-0.164-0.101-0.327-0.15-0.49c-1.055,0.324-2.11,0.648-3.166,0.972
			c-0.044-0.093-0.086-0.187-0.131-0.278c1.005-0.426,2.01-0.852,3.148-1.332c-0.766-0.643-1.533-1.285-2.181-1.829
			c-0.452-1.067-0.92-2.174-1.388-3.28c0.178-0.089,0.358-0.178,0.536-0.266c1.063,1.291,2.124,2.582,3.189,3.871
			c0.858,1.039,1.762,1.637,3.305,1.34c1.511-0.291,3.121-0.062,4.779,0.38C177.803,142.986,173.967,143.987,173.109,149.757z"/>
		<path stroke="#000000" stroke-miterlimit="10" d="M125.405,119.419c0-1.33,0-2.211,0-3.17c1.776,2.219,3.354,4.189,5.057,6.316
			c-1.104,0.871-2.306,1.927-3.617,2.824c-1.209,0.826-1.424,2.924-3.701,2.447c1.45-1.57,2.899-3.141,4.419-4.784
			c-0.992-0.487-2.153-1.058-3.314-1.628c0.034-0.092,0.067-0.186,0.1-0.279c1.532,0.525,3.064,1.051,4.596,1.576
			c0.023-0.082,0.046-0.166,0.07-0.25C127.738,121.392,126.461,120.312,125.405,119.419z"/>
		<path stroke="#000000" stroke-miterlimit="10" d="M201.54,86.216c1.153,0.184,2.129,0.339,3.257,0.518
			c-0.056-0.676-0.11-1.338-0.166-2c0.097-0.03,0.194-0.059,0.291-0.09c0.512,1.067,0.877,2.24,1.564,3.18
			c1.359,1.855,3.247,3.302,4.129,5.552c0.125,0.318,1.093,0.33,1.68,0.437c0.897,0.164,1.804,0.287,2.706,0.427
			c-0.021,0.173-0.042,0.349-0.062,0.521c-1.234,0.13-2.47,0.367-3.7,0.337c-0.485-0.012-1.068-0.529-1.414-0.966
			c-1.188-1.501-2.119-3.245-3.474-4.562C205.041,88.295,203.328,87.43,201.54,86.216z"/>
		<path stroke="#000000" stroke-miterlimit="10" d="M296.641,89.683c-0.947-3.192-2.348-5.955-5.924-6.576c0-1.609,0-3.103,0-4.595
			c0.152-0.035,0.307-0.07,0.459-0.104c0.223,0.675,0.443,1.35,0.672,2.047c-0.021,0.001,0.082,0.021,0.102-0.01
			c0.119-0.199,0.223-0.41,0.41-0.771c-0.225,2.243,1.601,2.954,2.537,4.272c1.135,1.595,1.841,3.494,2.732,5.262
			C297.3,89.367,296.969,89.525,296.641,89.683z"/>
		<path stroke="#000000" stroke-miterlimit="10" d="M231.657,68.367c0.413-0.845,0.637-1.303,0.883-1.805
			c0.156,0.102,0.711,0.679,0.934,0.571c1.69-0.827,3.329-0.443,4.421,0.74c1.146,1.243,2.064,2.867,2.566,4.485
			c0.465,1.49,0.973,2.426,2.672,2.398c-1.5,0.901-2.627,0.698-3.256-0.998c-0.27-0.727-0.426-1.495-0.658-2.236
			c-0.988-3.165-3.044-4.193-6.2-3.177C232.56,68.493,232.014,68.367,231.657,68.367z"/>
		<path stroke="#000000" stroke-miterlimit="10" d="M172.63,156.276c2.263,2.724,4.325,5.205,6.37,7.666
			C177.349,164.918,172.693,159.934,172.63,156.276z"/>
		<path stroke="#000000" stroke-miterlimit="10" d="M131.139,123.3c1.077,3.173,2.008,5.919,2.86,8.43
			c-1.921-0.524-3.501-3.263-3.25-6.438c-0.481,0.386-0.866,0.693-1.252,1.001c-0.059-0.067-0.118-0.132-0.177-0.199
			C129.971,125.093,130.624,124.091,131.139,123.3z"/>
		<path stroke="#000000" stroke-miterlimit="10" d="M313.516,97.553c-0.717,0.66-1.312,1.207-2.041,1.875
			c-0.605-2.509-1.195-4.941-1.891-7.817c1.931,1.17,2.547,2.669,2.752,4.287C312.487,97.093,312.322,97.114,313.516,97.553z"/>
		<path fill="none" stroke="#000000" stroke-miterlimit="10" d="M258.076,52.462c-2.272,1.182-5.783,0.156-7.32-2.566
			c1.141,0.541,2.265,1.128,3.434,1.605c0.697,0.283,1.457,0.474,2.205,0.552c0.541,0.057,1.108-0.138,1.664-0.22
			C258.064,52.042,258.07,52.252,258.076,52.462z"/>
		<path stroke="#000000" stroke-miterlimit="10" d="M299.551,82.187c0.834,0.36,1.668,0.721,2.549,1.102
			c0.456-0.191,1.1-0.459,1.785-0.747c0.221,1.237,0.398,2.229,0.66,3.698c-2.021-1.265-3.699-2.312-5.377-3.36
			C299.295,82.649,299.424,82.418,299.551,82.187z"/>
		<path stroke="#000000" stroke-miterlimit="10" d="M168.47,70.706c-0.896-1.741-1.762-3.421-2.73-5.3
			c0.131-0.092,0.562-0.395,1.093-0.767C168.041,66.572,169.567,68.327,168.47,70.706z"/>
		<path stroke="#000000" stroke-miterlimit="10" d="M126.941,135.647c-0.552-0.777-1.105-1.555-1.81-2.547
			c-0.234,0.089-0.888,0.338-1.551,0.59c0.771-1.129,1.493-2.184,2.302-3.365c0.636,1.792,1.185,3.34,1.734,4.891
			C127.392,135.358,127.166,135.503,126.941,135.647z"/>
		<path stroke="#000000" stroke-miterlimit="10" d="M291.787,98.503c1.551,0.837,2.922,1.578,4.291,2.316
			c-0.098,0.172-0.195,0.343-0.293,0.516c-1.727-0.646-3.454-1.292-5.329-1.993c0.211-0.933,0.456-2.009,0.702-3.085
			c0.104-0.022,0.206-0.045,0.311-0.066C291.581,97.011,291.695,97.834,291.787,98.503z"/>
		<path fill="#FFFFFF" stroke="#000000" stroke-miterlimit="10" d="M295.107,152.993c-3.596,0.799-7.191,1.601-10.785,2.4
			c0.866-0.375,1.701-0.92,2.605-1.092C289.641,153.786,292.378,153.419,295.107,152.993z"/>
		<path fill="none" stroke="#000000" stroke-miterlimit="10" d="M275.221,195.155c-0.646-0.311-1.418-0.482-1.92-0.949
			c-3.751-3.492-7.449-7.041-11.163-10.573c0.153-0.155,0.308-0.31,0.462-0.466c3.709,3.615,7.414,7.234,11.134,10.838
			c0.446,0.436,0.97,0.791,1.464,1.18C275.205,195.18,275.221,195.155,275.221,195.155z"/>
	</g>
	<g opacity="0">
		<polygon fill="#848383" points="164.171,137.11 165.897,132.454 165.66,126.274 167.939,115.788 165.6,102.205 167.294,98.761 
			163.525,94.339 166.993,83.021 164.922,77.2 167.801,69.407 166.68,60.727 159.305,62.37 151.016,70.289 149.017,75.457 
			147.258,73.078 138.903,75.664 130.57,87.307 127.915,91.984 120.558,98.761 117.173,106.29 117.062,116.249 119.458,127.514 
			120.777,134.446 130.686,138.546 135.496,140.495 141.417,140.38 148.221,143.968 156.842,140.575 		"/>
		<polygon fill="#848383" points="216.575,47.492 214.447,52.699 205.246,57.469 196.897,59.481 192.02,72.452 185.918,90.049 
			183.006,97.213 186.397,106.29 193.21,115.243 201.54,108.63 201.968,103.117 195.857,97.078 204.797,86.734 211.161,78.847 
			209.472,69.212 215.556,65.233 225.39,59.57 229.607,57.517 229.663,50.549 228.882,47.609 222.61,44.239 		"/>
		<polygon fill="#848383" points="271.742,57.428 261.248,58.838 255.227,64.45 256.227,83.256 260.702,89.292 266.34,89.301 
			288.525,92.86 296.641,89.683 304.545,86.24 306.083,78.409 300.071,70.706 293.955,66.561 287.721,62.219 281.046,58.838 		"/>
		<path fill="#848383" d="M295.92,128.719c0,0,8.449-1.017,7.532-2.743s0-4.294,0-4.294l7.746-3.377l0.287-4.168l-4.468-7.746
			l-6.311-1.913l-4.285,1.813l-12.818,2.641l-10.939-4.045l-4.654,7.695l-1.67,7.457l-0.875,14.406l5.661,1.461l6.609,3.905
			l15.038-2.44l1.398-4.352L295.92,128.719z"/>
		<polyline fill="#848383" points="243.982,164.798 253.097,156.743 266.743,146.315 279.033,147.861 294.275,152.191 
			304.963,155.546 310.234,157.132 309.581,163.173 309.914,168.071 308.348,171.032 307.221,172.749 304.545,178.858 
			297.628,184.509 293.312,186.343 290.456,189.177 283.488,194.139 280.654,197.272 272.456,198.823 267.851,200.499 
			256.787,200.499 248.902,196.723 243.982,188.581 240.729,177.132 		"/>
		<polygon fill="#848383" points="187.451,167.632 197.456,173.042 210.249,170.731 219.887,164.993 231.47,157.727 241.076,152.37 
			248.192,149.819 255.227,147.403 256.18,139.811 237.514,138.2 223.129,145.229 209.339,152.37 192.362,161.784 		"/>
	</g>
</g>
<g>
	<circle fill="#FF0000" stroke="#FF0000" stroke-miterlimit="10" cx="14.957" cy="74.602" r="4.025"/>
	<circle fill="#FF0000" cx="386" cy="96.899" r="4.025"/>
	<circle fill="#FF0000" cx="363.667" cy="32.778" r="4.025"/>
	<circle fill="#FF0000" cx="141.315" cy="14.695" r="4.025"/>
	<circle fill="#FF0000" cx="119.912" cy="230.7" r="4.025"/>
	<circle fill="#FF0000" cx="384.355" cy="231.657" r="4.025"/>
</g>
</svg>
